<svg width="757" height="757" viewBox="0 0 757 757" fill="none" xmlns="http://www.w3.org/2000/svg">
<circle cx="378.5" cy="378.5" r="378.5" fill="#FFEA00"/>
<path d="M496.662 293.672L440.574 237.437L510.628 167.207C547.402 130.337 618.549 157.322 625.603 164.394C632.648 171.457 659.562 242.791 622.788 279.661L552.742 349.899L496.662 293.672Z" fill="black"/>
<path d="M515.938 292.068C515.938 292.068 526.576 269.807 521.658 264.934C516.774 260.104 494.885 270.952 494.885 270.952L470.211 297.236L492.211 315.236L515.938 292.068Z" fill="black"/>
<path d="M262.616 264.755C262.616 264.755 240.74 253.347 235.699 258.091C230.7 262.804 240.778 285.058 240.778 285.058L266.185 310.635L284.942 289.277L262.616 264.755Z" fill="black"/>
<path d="M257.304 583.558C265.467 558.881 260.591 539.225 258.438 537.076C256.286 534.917 236.682 530.02 212.069 538.204C186.952 546.554 171.835 562.499 171.835 562.499C171.835 562.499 180.229 579.665 198.095 597.577C215.952 615.489 233.072 623.906 233.072 623.906C233.072 623.906 248.976 608.741 257.304 583.558ZM187.192 608.5C174.931 596.207 164.194 581.972 156.188 565.579C162.496 559.121 178.408 540.528 209.089 530.327C224.206 525.306 238.354 524.559 248.744 525.704L261.713 528.179L272.172 530.327H277.712H282.712L285.712 532.179L269.78 546.837C270.914 557.245 270.169 571.414 265.16 586.546C258.802 605.769 245.399 624.91 230.001 639.593C213.617 631.542 199.428 620.768 187.192 608.5Z" fill="black"/>
<path d="M127.213 287.993C158.225 241.486 176.713 209.236 176.713 209.236C176.713 209.236 217.673 183.329 264.059 152.236C310.436 121.151 368.61 130.236 368.61 130.236L373.851 139.342C373.851 139.342 323.624 165.081 288.083 192.182C268.479 207.123 252.915 221.059 252.915 225.176C252.915 229.284 264.059 252.019 264.059 252.019L246.119 270.006L228.187 287.993C228.187 287.993 205.503 276.812 201.405 276.812C197.307 276.812 183.399 292.425 168.498 312.081C141.468 347.714 115.795 398.073 115.795 398.073L106.714 392.818C106.714 392.818 96.2098 334.492 127.213 287.993Z" fill="black"/>
<rect width="31.7171" height="101.421" transform="matrix(0.719337 -0.694661 -0.694656 -0.719342 585.905 616.225)" fill="black"/>
<path d="M561.964 479.87C561.964 479.87 505.917 471.546 476.301 469.158C447.859 466.867 414.155 465.544 377.998 465.544C341.84 465.544 308.137 466.867 279.703 469.158C250.079 471.578 194.04 483.129 194.04 483.129V497.65C194.04 510.556 276.405 521.043 377.998 521.043C479.591 521.043 561.955 510.556 561.955 497.65L561.964 479.87Z" fill="black"/>
<path d="M321.437 287.277C254.262 311.275 209.404 375.041 209.4 446.539V470.481C233.371 464.739 257.812 461.186 282.423 459.865C282.257 455.272 282.171 450.645 282.165 445.982C282.19 383.158 297.315 326.627 321.437 287.277Z" fill="black"/>
<path d="M546.588 446.539C546.646 407.308 533.034 369.288 508.106 339.049C518.913 373.656 524.298 409.735 524.068 445.998C524.068 452.597 523.899 459.12 523.561 465.568C531.233 466.752 538.832 468.368 546.323 470.408L546.588 446.539Z" fill="black"/>
<path d="M546.588 446.539C546.646 407.308 533.034 369.288 508.106 339.049C518.913 373.656 524.298 409.735 524.068 445.998C524.068 452.597 523.899 459.12 523.561 465.568C531.233 466.752 538.832 468.368 546.323 470.408L546.588 446.539Z" fill="black"/>
<path d="M508.106 339.041C462.936 284.144 388.331 263.455 321.445 287.277C297.307 326.627 282.19 383.158 282.19 445.99C282.19 450.653 282.275 455.28 282.447 459.873C307.55 457.929 336.611 456.727 367.732 456.509C367.732 456.509 374.804 456.509 378.014 456.509C426.693 455.924 475.348 458.962 523.577 465.6C523.905 459.147 524.074 452.624 524.084 446.031C524.313 409.753 518.922 373.66 508.106 339.041Z" fill="black"/>
<path d="M445.816 350.222L435.131 283.268C434.372 278.342 430.852 274.294 426.087 272.87C394.955 263.71 361.854 263.71 330.721 272.87C325.96 274.297 322.444 278.344 321.686 283.268L310.993 350.222" fill="black"/>
<path d="M378.014 455.089C374.796 455.089 371.602 455.089 368.432 455.089H368.078H367.724C270.909 455.767 194.049 465.963 194.049 478.443V496.528C193.892 497.588 194.117 498.669 194.684 499.578C199.601 495.875 205.253 493.273 211.258 491.946C226.553 488.215 242.098 485.605 257.771 484.138C266.672 483.159 275.563 486.068 282.173 492.124C294.278 503.234 310.094 509.396 326.505 509.395H429.491C445.902 509.395 461.718 503.234 473.823 492.124C480.433 486.061 489.328 483.148 498.233 484.13C513.903 485.597 529.446 488.207 544.738 491.938C550.425 493.035 555.796 495.391 560.459 498.835C560.725 499.102 561.03 499.336 561.264 499.578C561.835 498.665 562.063 497.578 561.907 496.512V478.427C561.964 465.56 479.6 455.089 378.014 455.089Z" fill="black"/>
<path d="M369.682 411.364H350.455C350.318 409.773 349.955 408.33 349.364 407.034C348.795 405.739 348 404.625 346.977 403.693C345.977 402.739 344.761 402.011 343.33 401.511C341.898 400.989 340.273 400.727 338.455 400.727C335.273 400.727 332.58 401.5 330.375 403.045C328.193 404.591 326.534 406.807 325.398 409.693C324.284 412.58 323.727 416.045 323.727 420.091C323.727 424.364 324.295 427.943 325.432 430.83C326.591 433.693 328.261 435.852 330.443 437.307C332.625 438.739 335.25 439.455 338.318 439.455C340.068 439.455 341.636 439.239 343.023 438.807C344.409 438.352 345.614 437.705 346.636 436.864C347.659 436.023 348.489 435.011 349.125 433.83C349.784 432.625 350.227 431.273 350.455 429.773L369.682 429.909C369.455 432.864 368.625 435.875 367.193 438.943C365.761 441.989 363.727 444.807 361.091 447.398C358.477 449.966 355.239 452.034 351.375 453.602C347.511 455.17 343.023 455.955 337.909 455.955C331.5 455.955 325.75 454.58 320.659 451.83C315.591 449.08 311.58 445.034 308.625 439.693C305.693 434.352 304.227 427.818 304.227 420.091C304.227 412.318 305.727 405.773 308.727 400.455C311.727 395.114 315.773 391.08 320.864 388.352C325.955 385.602 331.636 384.227 337.909 384.227C342.318 384.227 346.375 384.83 350.08 386.034C353.784 387.239 357.034 389 359.83 391.318C362.625 393.614 364.875 396.443 366.58 399.807C368.284 403.17 369.318 407.023 369.682 411.364ZM397.236 385.182V455H378.281V385.182H397.236ZM406.219 455V385.182H425.173V439.727H453.401V455H406.219Z" fill="#FFEA00"/>
</svg>
