<svg width="537" height="511" viewBox="0 0 537 511" fill="none" xmlns="http://www.w3.org/2000/svg">
<path d="M391.662 164.672L335.574 108.437L405.628 38.2074C442.402 1.3372 513.549 28.3218 520.603 35.3937C527.648 42.4573 554.562 113.791 517.788 150.661L447.742 220.899L391.662 164.672Z" fill="white"/>
<path d="M410.938 163.068C410.938 163.068 421.576 140.807 416.658 135.934C411.774 131.104 389.885 141.952 389.885 141.952L365.211 168.236L387.211 186.236L410.938 163.068Z" fill="white"/>
<path d="M157.616 135.755C157.616 135.755 135.74 124.347 130.699 129.091C125.7 133.804 135.778 156.058 135.778 156.058L161.185 181.635L179.942 160.277L157.616 135.755Z" fill="white"/>
<path d="M152.304 454.558C160.467 429.881 155.591 410.225 153.438 408.076C151.286 405.917 131.682 401.02 107.069 409.204C81.9517 417.554 66.8347 433.499 66.8347 433.499C66.8347 433.499 75.2293 450.665 93.0947 468.577C110.952 486.489 128.072 494.906 128.072 494.906C128.072 494.906 143.976 479.741 152.304 454.558ZM82.1918 479.5C69.931 467.207 59.1936 452.972 51.1881 436.579C57.4965 430.121 73.408 411.528 104.089 401.327C119.206 396.306 133.354 395.559 143.744 396.704L156.713 399.179L167.172 401.327H172.713H177.712L180.712 403.179L164.78 417.837C165.914 428.245 165.169 442.414 160.16 457.546C153.802 476.769 140.399 495.91 125.001 510.593C108.617 502.542 94.4277 491.768 82.1918 479.5Z" fill="white"/>
<path d="M22.2135 158.993C53.2255 112.486 71.7132 80.2363 71.7132 80.2363C71.7132 80.2363 112.673 54.3295 159.059 23.2363C205.436 -7.84858 263.61 1.2363 263.61 1.2363L268.851 10.3418C268.851 10.3418 218.624 36.0812 183.083 63.1819C163.479 78.1225 147.915 92.0588 147.915 96.1758C147.915 100.284 159.059 123.019 159.059 123.019L141.119 141.006L123.187 158.993C123.187 158.993 100.503 147.812 96.4054 147.812C92.3075 147.812 78.3993 163.425 63.4976 183.081C36.4677 218.714 10.7954 269.073 10.7954 269.073L1.71367 263.818C1.71367 263.818 -8.7902 205.492 22.2135 158.993Z" fill="white"/>
<rect width="31.7171" height="101.421" transform="matrix(0.719337 -0.694661 -0.694656 -0.719342 480.905 487.225)" fill="white"/>
<path d="M456.964 350.87C456.964 350.87 400.917 342.546 371.301 340.158C342.859 337.867 309.156 336.544 272.998 336.544C236.841 336.544 203.137 337.867 174.703 340.158C145.079 342.578 89.0405 354.129 89.0405 354.129V368.65C89.0405 381.556 171.405 392.043 272.998 392.043C374.591 392.043 456.956 381.556 456.956 368.65L456.964 350.87Z" fill="white"/>
<path d="M216.437 158.277C149.262 182.275 104.404 246.041 104.4 317.539V341.481C128.371 335.739 152.812 332.186 177.423 330.865C177.257 326.272 177.171 321.645 177.165 316.982C177.19 254.158 192.316 197.627 216.437 158.277Z" fill="white"/>
<path d="M441.588 317.539C441.646 278.308 428.034 240.288 403.106 210.049C413.913 244.656 419.298 280.735 419.068 316.998C419.068 323.597 418.899 330.12 418.561 336.568C426.233 337.752 433.832 339.368 441.323 341.408L441.588 317.539Z" fill="white"/>
<path d="M441.588 317.539C441.646 278.308 428.034 240.288 403.106 210.049C413.913 244.656 419.298 280.735 419.068 316.998C419.068 323.597 418.899 330.12 418.561 336.568C426.233 337.752 433.832 339.368 441.323 341.408L441.588 317.539Z" fill="white"/>
<path d="M403.106 210.041C357.936 155.144 283.331 134.455 216.445 158.277C192.307 197.627 177.19 254.158 177.19 316.99C177.19 321.653 177.275 326.28 177.447 330.873C202.55 328.929 231.611 327.727 262.732 327.509C262.732 327.509 269.804 327.509 273.014 327.509C321.693 326.923 370.348 329.962 418.577 336.6C418.905 330.147 419.074 323.624 419.084 317.03C419.313 280.753 413.922 244.66 403.106 210.041Z" fill="white"/>
<path d="M340.816 221.222L330.131 154.268C329.372 149.342 325.852 145.294 321.087 143.87C289.955 134.71 256.854 134.71 225.721 143.87C220.96 145.297 217.444 149.344 216.686 154.268L205.993 221.222" fill="white"/>
<path d="M273.014 326.089C269.796 326.089 266.602 326.089 263.432 326.089H263.078H262.724C165.909 326.767 89.0486 336.963 89.0486 349.443V367.528C88.8918 368.588 89.1172 369.669 89.6843 370.578C94.6013 366.875 100.253 364.273 106.258 362.946C121.553 359.215 137.098 356.606 152.771 355.138C161.672 354.159 170.563 357.068 177.173 363.124C189.278 374.234 205.094 380.396 221.505 380.395H324.491C340.902 380.395 356.718 374.234 368.823 363.124C375.433 357.061 384.328 354.148 393.233 355.13C408.903 356.597 424.446 359.207 439.738 362.938C445.425 364.035 450.796 366.391 455.459 369.835C455.725 370.102 456.03 370.336 456.264 370.578C456.835 369.665 457.063 368.578 456.907 367.512V349.427C456.964 336.56 374.6 326.089 273.014 326.089Z" fill="white"/>
<path d="M264.682 282.364H245.455C245.318 280.773 244.955 279.33 244.364 278.034C243.795 276.739 243 275.625 241.977 274.693C240.977 273.739 239.761 273.011 238.33 272.511C236.898 271.989 235.273 271.727 233.455 271.727C230.273 271.727 227.58 272.5 225.375 274.045C223.193 275.591 221.534 277.807 220.398 280.693C219.284 283.58 218.727 287.045 218.727 291.091C218.727 295.364 219.295 298.943 220.432 301.83C221.591 304.693 223.261 306.852 225.443 308.307C227.625 309.739 230.25 310.455 233.318 310.455C235.068 310.455 236.636 310.239 238.023 309.807C239.409 309.352 240.614 308.705 241.636 307.864C242.659 307.023 243.489 306.011 244.125 304.83C244.784 303.625 245.227 302.273 245.455 300.773L264.682 300.909C264.455 303.864 263.625 306.875 262.193 309.943C260.761 312.989 258.727 315.807 256.091 318.398C253.477 320.966 250.239 323.034 246.375 324.602C242.511 326.17 238.023 326.955 232.909 326.955C226.5 326.955 220.75 325.58 215.659 322.83C210.591 320.08 206.58 316.034 203.625 310.693C200.693 305.352 199.227 298.818 199.227 291.091C199.227 283.318 200.727 276.773 203.727 271.455C206.727 266.114 210.773 262.08 215.864 259.352C220.955 256.602 226.636 255.227 232.909 255.227C237.318 255.227 241.375 255.83 245.08 257.034C248.784 258.239 252.034 260 254.83 262.318C257.625 264.614 259.875 267.443 261.58 270.807C263.284 274.17 264.318 278.023 264.682 282.364ZM292.236 256.182V326H273.281V256.182H292.236ZM301.219 326V256.182H320.173V310.727H348.401V326H301.219Z" fill="#1A365D"/>
</svg>
