<svg id="visual" viewBox="0 0 540 960" width="540" height="960" xmlns="http://www.w3.org/2000/svg" xmlns:xlink="http://www.w3.org/1999/xlink" version="1.1"><g fill="none" stroke="RGBA(20, 20, 20, 0.03)" stroke-width="1"><circle r="25" cx="499" cy="385"></circle><circle r="0" cx="408" cy="650"></circle><circle r="18" cx="123" cy="109"></circle><circle r="23" cx="380" cy="821"></circle><circle r="2" cx="48" cy="916"></circle><circle r="2" cx="130" cy="336"></circle><circle r="18" cx="172" cy="630"></circle><circle r="13" cx="448" cy="719"></circle><circle r="15" cx="55" cy="150"></circle><circle r="22" cx="222" cy="416"></circle><circle r="3" cx="40" cy="831"></circle><circle r="19" cx="291" cy="560"></circle><circle r="12" cx="49" cy="322"></circle><circle r="14" cx="131" cy="690"></circle><circle r="14" cx="339" cy="917"></circle><circle r="21" cx="136" cy="855"></circle><circle r="2" cx="319" cy="89"></circle><circle r="6" cx="290" cy="703"></circle><circle r="22" cx="165" cy="208"></circle><circle r="15" cx="382" cy="171"></circle><circle r="23" cx="335" cy="331"></circle><circle r="12" cx="258" cy="456"></circle><circle r="1" cx="180" cy="546"></circle><circle r="14" cx="500" cy="601"></circle><circle r="1" cx="409" cy="550"></circle><circle r="4" cx="307" cy="826"></circle><circle r="8" cx="85" cy="740"></circle><circle r="14" cx="373" cy="62"></circle><circle r="4" cx="89" cy="262"></circle><circle r="15" cx="75" cy="592"></circle><circle r="12" cx="236" cy="278"></circle><circle r="14" cx="235" cy="794"></circle><circle r="4" cx="276" cy="32"></circle><circle r="8" cx="173" cy="742"></circle><circle r="9" cx="441" cy="843"></circle><circle r="22" cx="513" cy="202"></circle><circle r="13" cx="355" cy="702"></circle><circle r="0" cx="283" cy="187"></circle><circle r="21" cx="260" cy="339"></circle><circle r="6" cx="474" cy="241"></circle><circle r="9" cx="196" cy="833"></circle><circle r="6" cx="505" cy="295"></circle><circle r="-1" cx="427" cy="475"></circle><circle r="14" cx="223" cy="187"></circle><circle r="9" cx="83" cy="398"></circle><circle r="10" cx="447" cy="610"></circle><circle r="22" cx="434" cy="63"></circle><circle r="6" cx="295" cy="496"></circle><circle r="5" cx="336" cy="616"></circle><circle r="3" cx="197" cy="902"></circle><circle r="22" cx="98" cy="28"></circle><circle r="13" cx="225" cy="119"></circle><circle r="6" cx="314" cy="409"></circle><circle r="22" cx="166" cy="463"></circle><circle r="18" cx="33" cy="508"></circle><circle r="5" cx="501" cy="537"></circle><circle r="21" cx="77" cy="872"></circle><circle r="19" cx="505" cy="67"></circle><circle r="5" cx="182" cy="344"></circle><circle r="22" cx="407" cy="365"></circle><circle r="21" cx="159" cy="394"></circle><circle r="17" cx="171" cy="83"></circle></g></svg>