<svg width="76" height="59" viewBox="0 0 76 59" fill="none" xmlns="http://www.w3.org/2000/svg">
<path d="M38 2.56273C15.3584 2.56273 2.32712 23.2494 4.28178 49.1494C4.28178 49.1494 22.037 51.0654 38 51.0654C53.9631 51.0654 71.7183 49.1494 71.7183 49.1494C73.673 23.2494 60.6418 2.56273 38 2.56273Z" fill="#FBB03B"/>
<path d="M38 0.310696V31.1334C42.3282 31.1334 43.8735 18.536 44.461 3.21337C43.3782 1.14937 40.1558 0.310696 38 0.310696Z" fill="#E58126"/>
<path d="M38 0.310696V31.1334C33.6719 31.1334 32.126 18.536 31.5391 3.21337C32.6214 1.14937 35.8443 0.310696 38 0.310696Z" fill="#E58126"/>
<path d="M62.0751 13.3973C62.0751 8.84267 55.7194 4.82135 53.6574 6.51068C55.449 17.872 51.0896 26.0814 54.4266 26.0814C57.5615 24.752 62.0751 18.5947 62.0751 13.3973Z" fill="#E58126"/>
<path d="M13.9251 13.3973C13.9251 8.84267 20.2803 4.82135 22.3427 6.51068C20.5505 17.872 24.9104 26.0814 21.5735 26.0814C18.4385 24.752 13.9251 18.5947 13.9251 13.3973Z" fill="#E58126"/>
<path d="M75.874 49.2093C74.9599 47.1107 71.9 45.236 71.9 45.236C71.9 45.236 56.5703 48.636 38 48.636C19.4298 48.636 4.10004 45.236 4.10004 45.236C4.10004 45.236 1.04017 47.1107 0.126041 49.2093C-0.787959 51.3093 13.7438 58.5507 38 58.5507C62.2563 58.5507 76.788 51.3093 75.874 49.2093Z" fill="#E58126"/>
<path d="M71.911 36.1053H44.4484V29.0333H70.7208L71.911 36.1053Z" fill="#535B65"/>
<path d="M4.08911 36.1053H31.5516V29.0333H5.27871L4.08911 36.1053Z" fill="#535B65"/>
<path d="M54.035 32.5693C54.035 41.4253 46.8558 48.604 38 48.604C29.1443 48.604 21.9651 41.4253 21.9651 32.5693C21.9651 23.7133 29.1443 16.5347 38 16.5347C46.8558 16.5347 54.035 23.7133 54.035 32.5693Z" fill="#28292E"/>
<path d="M50.1068 32.5693C50.1068 39.2547 44.6864 44.676 38 44.676C31.3136 44.676 25.8932 39.2547 25.8932 32.5693C25.8932 25.8827 31.3136 20.4627 38 20.4627C44.6864 20.4627 50.1068 25.8827 50.1068 32.5693Z" fill="white"/>
</svg>
