<svg width="350" height="350" viewBox="0 0 350 350" fill="none" xmlns="http://www.w3.org/2000/svg">
<path d="M176.913 17.0284L285.35 61.9442C286.575 62.4517 287.548 63.4251 288.056 64.6502L332.972 173.087C333.479 174.312 333.479 175.688 332.972 176.913L288.056 285.35C287.548 286.575 286.575 287.548 285.35 288.056L176.913 332.972C175.688 333.479 174.312 333.479 173.087 332.972L64.6502 288.056C63.4251 287.548 62.4517 286.575 61.9442 285.35L17.0284 176.913C16.521 175.688 16.521 174.312 17.0284 173.087L61.9442 64.6502C62.4517 63.4251 63.4251 62.4517 64.6502 61.9442L173.087 17.0285C174.312 16.521 175.688 16.521 176.913 17.0284Z" stroke="#FF0080" stroke-width="30"/>
</svg>
