<svg width="1123" height="794" viewBox="0 0 1123 794" fill="none" xmlns="http://www.w3.org/2000/svg">
<g clip-path="url(#clip0_118_2)">
<path d="M1122.52 0H0V793.701H1122.52V0Z" fill="#212121"/>
<g opacity="0.5">
<g filter="url(#filter0_f_118_2)">
<path d="M1072 108C1072 114.566 1070.71 121.068 1068.19 127.134C1065.68 133.2 1062 138.712 1057.36 143.355C1052.71 147.998 1047.2 151.681 1041.13 154.194C1035.07 156.707 1028.57 158 1022 158C1015.43 158 1008.93 156.707 1002.87 154.194C996.8 151.681 991.288 147.998 986.645 143.355C982.002 138.712 978.319 133.2 975.806 127.134C973.293 121.068 972 114.566 972 108C972 101.434 973.293 94.9321 975.806 88.8658C978.319 82.7996 982.002 77.2876 986.645 72.6447C991.288 68.0017 996.8 64.3188 1002.87 61.806C1008.93 59.2933 1015.43 58 1022 58C1028.57 58 1035.07 59.2933 1041.13 61.806C1047.2 64.3188 1052.71 68.0017 1057.36 72.6447C1062 77.2876 1065.68 82.7996 1068.19 88.8658C1070.71 94.9321 1072 101.434 1072 108V108Z" fill="white"/>
</g>
</g>
<path d="M1061.52 108C1061.52 113.19 1060.5 118.329 1058.51 123.124C1056.53 127.919 1053.62 132.275 1049.95 135.945C1046.28 139.615 1041.92 142.526 1037.12 144.512C1032.33 146.498 1027.19 147.52 1022 147.52C1016.81 147.52 1011.67 146.498 1006.88 144.512C1002.08 142.526 997.725 139.615 994.055 135.945C990.385 132.275 987.474 127.919 985.488 123.124C983.502 118.329 982.479 113.19 982.479 108C982.479 102.81 983.502 97.6709 985.488 92.8761C987.474 88.0812 990.385 83.7245 994.055 80.0547C997.725 76.3849 1002.08 73.4738 1006.88 71.4877C1011.67 69.5016 1016.81 68.4794 1022 68.4794C1027.19 68.4794 1032.33 69.5016 1037.12 71.4877C1041.92 73.4738 1046.28 76.3849 1049.95 80.0547C1053.62 83.7245 1056.53 88.0812 1058.51 92.8761C1060.5 97.6709 1061.52 102.81 1061.52 108Z" fill="white"/>
<path d="M1023.13 78.9637C1022.45 78.9616 1021.78 79.0618 1021.13 79.2609C1020.08 79.5803 1019.13 80.1457 1018.36 80.9092C1017.29 80.2564 1016.06 79.9106 1014.81 79.9098C1013.01 79.9116 1011.29 80.629 1010.01 81.904C1008.74 83.179 1008.03 84.9074 1008.03 86.7088C1008.03 88.5102 1008.75 90.2372 1010.02 91.5097C1011.3 92.7823 1013.03 93.4963 1014.83 93.4946C1016.6 93.4906 1018.31 92.7909 1019.57 91.5455C1021.04 92.4383 1022.79 92.7445 1024.47 92.4027C1023.54 93.5174 1022.99 94.9003 1022.9 96.3487C1022.85 97.2816 1022.99 98.2151 1023.32 99.0911C1023.64 99.9671 1024.14 100.767 1024.79 101.44C1024.8 101.494 1024.81 101.548 1024.82 101.602C1025.01 102.339 1025.31 103.039 1025.73 103.675C1024.33 102.847 1022.68 102.551 1021.07 102.841C1020.86 102.822 1020.64 102.814 1020.42 102.816C1019.97 102.826 1019.52 102.881 1019.07 102.98C1018.2 103.175 1017.38 103.54 1016.65 104.054C1015.92 104.567 1015.3 105.219 1014.82 105.973C1014.35 106.726 1014.02 107.567 1013.87 108.446C1013.72 109.324 1013.74 110.225 1013.93 111.095C1014.15 112.049 1014.57 112.945 1015.17 113.721C1014.28 114.315 1013.55 115.11 1013.02 116.041C1012.81 116.204 1012.61 116.38 1012.42 116.568C1011.71 116.055 1010.9 115.686 1010.05 115.481C1010.01 115.472 1009.96 115.463 1009.92 115.455C1009.21 114.821 1008.38 114.342 1007.47 114.05C1007.86 113.434 1008.14 112.761 1008.31 112.055C1008.52 111.187 1008.55 110.288 1008.41 109.407C1008.27 108.526 1007.96 107.681 1007.49 106.921C1007.02 106.162 1006.41 105.501 1005.69 104.978C1004.96 104.455 1004.15 104.079 1003.28 103.872C1002.84 103.767 1002.39 103.706 1001.93 103.691C1001.77 103.685 1001.61 103.686 1001.45 103.692C999.97 103.746 998.545 104.285 997.397 105.226C996.248 106.167 995.44 107.459 995.095 108.903C994.698 110.57 994.945 112.325 995.788 113.817C996.63 115.309 998.005 116.428 999.637 116.949C998.861 118.197 998.511 119.663 998.639 121.127C998.77 122.567 999.356 123.927 1000.31 125.011C1001.27 126.094 1002.55 126.844 1003.96 127.151C1004.81 127.911 1005.83 128.446 1006.94 128.707C1007.68 128.878 1008.45 128.923 1009.2 128.841C1010.41 129.957 1011.98 130.595 1013.63 130.64C1014.4 130.657 1015.16 130.543 1015.89 130.303C1016.11 130.287 1016.32 130.262 1016.54 130.226C1016.91 130.158 1017.29 130.058 1017.65 129.927C1018.13 130.342 1018.66 130.689 1019.24 130.957C1020.21 131.598 1021.32 131.981 1022.48 132.067C1023.62 132.149 1024.76 131.944 1025.79 131.471C1026.58 132.176 1027.51 132.69 1028.53 132.972C1029.37 133.202 1030.25 133.267 1031.12 133.163C1031.3 133.213 1031.49 133.255 1031.67 133.29C1032.13 133.371 1032.6 133.404 1033.07 133.389C1032.73 134.221 1032.55 135.114 1032.55 136.015C1032.56 136.184 1032.57 136.354 1032.58 136.523C1032.37 137.372 1032.32 138.254 1032.44 139.121C1032.45 139.203 1032.47 139.284 1032.48 139.364C1032.54 140.281 1032.78 141.177 1033.19 141.999C1033.6 142.821 1034.17 143.551 1034.87 144.145C1039.79 142.22 1044.28 139.326 1048.06 135.635C1051.85 131.945 1054.85 127.532 1056.9 122.66C1055.94 121.66 1054.7 120.978 1053.34 120.705C1051.85 120.412 1050.31 120.623 1048.96 121.305C1047.61 121.988 1046.52 123.102 1045.88 124.471C1045.09 124.896 1044.39 125.472 1043.83 126.168C1043.26 126.863 1042.84 127.663 1042.59 128.522C1042.46 128.975 1042.37 129.44 1042.34 129.91C1041.4 129.443 1040.37 129.199 1039.32 129.197C1039.26 129.199 1039.19 129.202 1039.12 129.205C1039.32 128.75 1039.46 128.275 1039.55 127.789C1039.75 126.665 1039.66 125.508 1039.29 124.427C1038.93 122.86 1038.02 121.474 1036.73 120.515C1036.86 120.552 1036.99 120.585 1037.12 120.614C1038.75 120.949 1040.44 120.677 1041.88 119.851C1043.32 119.024 1044.4 117.7 1044.93 116.128C1045.69 115.297 1046.23 114.291 1046.5 113.2C1046.77 112.11 1046.77 110.969 1046.49 109.88C1046.12 108.445 1045.3 107.169 1044.13 106.249C1043.52 105.243 1042.66 104.414 1041.63 103.843C1041.19 103.529 1040.71 103.269 1040.21 103.067C1039.99 102.917 1039.76 102.78 1039.52 102.657C1040 101.373 1040.07 99.9753 1039.73 98.648C1039.48 97.6601 1039.01 96.7417 1038.35 95.961C1037.7 95.1802 1036.88 94.5571 1035.95 94.1379C1035.46 92.96 1034.65 91.9433 1033.61 91.2038C1032.57 90.4644 1031.35 90.0322 1030.07 89.9567C1029.49 89.9248 1028.91 89.9675 1028.34 90.0838C1029.06 89.2183 1029.55 88.1884 1029.77 87.0865C1029.99 85.9847 1029.93 84.8452 1029.61 83.7702C1029.18 82.3828 1028.33 81.1676 1027.16 80.3028C1026 79.4379 1024.58 78.9687 1023.13 78.964L1023.13 78.9637ZM1049.02 80.0406C1047.88 80.3733 1046.85 81.0003 1046.02 81.859C1045.2 82.7178 1044.61 83.7779 1044.33 84.9334C1043.9 86.6829 1044.18 88.5314 1045.11 90.0722C1046.05 91.613 1047.56 92.72 1049.3 93.1495C1050.58 93.4601 1051.91 93.3961 1053.15 92.9653C1054.39 92.5346 1055.47 91.7554 1056.28 90.7216C1054.46 86.7878 1052.01 83.1793 1049.02 80.0406V80.0406ZM1057.62 93.9555C1057.23 93.9711 1056.85 94.0197 1056.47 94.1005C1054.71 94.4884 1053.18 95.5592 1052.21 97.0774C1051.24 98.5956 1050.91 100.437 1051.3 102.196C1051.69 103.955 1052.76 105.488 1054.27 106.458C1055.79 107.428 1057.63 107.755 1059.39 107.367C1059.59 107.322 1059.79 107.268 1059.99 107.205C1059.96 102.685 1059.16 98.2038 1057.62 93.9555V93.9555ZM1031.77 114.783C1031.88 115.694 1032.18 116.573 1032.64 117.368C1033.1 118.162 1033.71 118.854 1034.45 119.403C1033.81 119.23 1033.15 119.152 1032.48 119.171C1032.02 119.187 1031.56 119.25 1031.11 119.359C1031.45 118.226 1031.48 117.026 1031.21 115.876C1031.18 115.751 1031.14 115.627 1031.1 115.504C1031.34 115.28 1031.57 115.039 1031.77 114.783H1031.77ZM1018.38 133.636C1017.92 133.64 1017.47 133.69 1017.03 133.784C1016.72 133.852 1016.42 133.941 1016.12 134.051C1015.99 134.02 1015.86 133.993 1015.73 133.97C1014.85 133.835 1013.95 133.875 1013.08 134.087C1012.21 134.299 1011.4 134.681 1010.68 135.208C1009.96 135.736 1009.35 136.401 1008.89 137.163C1008.43 137.926 1008.12 138.773 1007.98 139.654C1007.83 140.676 1007.91 141.721 1008.22 142.708C1008.52 143.694 1009.05 144.598 1009.76 145.349C1013.25 146.343 1016.85 146.853 1020.47 146.865C1020.52 146.864 1020.56 146.862 1020.61 146.861C1022.18 146.329 1023.51 145.236 1024.34 143.791C1025.16 142.345 1025.43 140.647 1025.08 139.018C1024.76 137.485 1023.91 136.112 1022.69 135.131C1021.47 134.15 1019.94 133.622 1018.38 133.636V133.636Z" fill="#ECECEC"/>
<path d="M1024.66 79.6186C1023.98 79.6166 1023.3 79.7168 1022.65 79.9159C1021.61 80.2353 1020.66 80.8006 1019.88 81.5642C1018.82 80.9114 1017.59 80.5656 1016.34 80.5648C1014.54 80.5666 1012.81 81.2839 1011.54 82.559C1010.27 83.834 1009.55 85.5623 1009.56 87.3638C1009.56 89.1652 1010.28 90.8922 1011.55 92.1647C1012.83 93.4373 1014.55 94.1513 1016.36 94.1496C1018.13 94.1456 1019.84 93.4459 1021.1 92.2005C1022.57 93.0932 1024.31 93.3995 1025.99 93.0577C1025.06 94.1724 1024.52 95.5553 1024.43 97.0037C1024.38 97.9365 1024.52 98.8701 1024.84 99.7461C1025.17 100.622 1025.67 101.422 1026.32 102.095C1026.33 102.149 1026.34 102.203 1026.35 102.256C1026.54 102.994 1026.84 103.694 1027.26 104.33C1025.86 103.502 1024.2 103.206 1022.6 103.496C1022.38 103.477 1022.17 103.469 1021.95 103.471C1021.5 103.481 1021.04 103.536 1020.6 103.635C1019.73 103.83 1018.91 104.195 1018.18 104.709C1017.45 105.222 1016.83 105.874 1016.35 106.628C1015.87 107.381 1015.55 108.222 1015.4 109.101C1015.24 109.979 1015.27 110.88 1015.46 111.75C1015.68 112.704 1016.1 113.6 1016.69 114.376C1015.81 114.97 1015.07 115.765 1014.55 116.696C1014.34 116.859 1014.14 117.035 1013.95 117.223C1013.24 116.71 1012.43 116.341 1011.58 116.136C1011.53 116.127 1011.49 116.118 1011.45 116.11C1010.74 115.476 1009.9 114.997 1009 114.705C1009.38 114.089 1009.67 113.416 1009.84 112.71C1010.05 111.842 1010.08 110.942 1009.94 110.062C1009.8 109.181 1009.48 108.336 1009.02 107.576C1008.55 106.817 1007.94 106.156 1007.22 105.633C1006.49 105.11 1005.67 104.734 1004.81 104.527C1004.37 104.422 1003.92 104.361 1003.46 104.346C1003.3 104.34 1003.14 104.341 1002.98 104.347C1001.5 104.401 1000.07 104.94 998.925 105.881C997.776 106.822 996.968 108.114 996.624 109.558C996.226 111.225 996.474 112.98 997.316 114.472C998.158 115.964 999.533 117.082 1001.17 117.604C1000.39 118.852 1000.04 120.318 1000.17 121.782C1000.3 123.222 1000.88 124.582 1001.84 125.666C1002.8 126.749 1004.08 127.499 1005.49 127.806C1006.34 128.566 1007.36 129.101 1008.47 129.362C1009.21 129.533 1009.97 129.578 1010.73 129.496C1011.94 130.612 1013.51 131.25 1015.15 131.295C1015.92 131.312 1016.69 131.198 1017.42 130.958C1017.64 130.942 1017.85 130.917 1018.06 130.881C1018.44 130.813 1018.81 130.713 1019.18 130.582C1019.65 130.997 1020.19 131.344 1020.76 131.612C1021.73 132.253 1022.85 132.636 1024.01 132.722C1025.15 132.804 1026.29 132.599 1027.32 132.126C1028.11 132.831 1029.04 133.345 1030.06 133.627C1030.9 133.857 1031.78 133.922 1032.65 133.818C1032.83 133.868 1033.01 133.91 1033.2 133.945C1033.66 134.026 1034.13 134.059 1034.6 134.044C1034.26 134.876 1034.08 135.769 1034.08 136.67C1034.09 136.839 1034.09 137.009 1034.11 137.178C1033.89 138.027 1033.85 138.909 1033.97 139.776C1033.98 139.858 1034 139.939 1034.01 140.019C1034.07 140.936 1034.31 141.832 1034.71 142.654C1035.12 143.476 1035.7 144.206 1036.4 144.801C1041.32 142.875 1045.81 139.981 1049.59 136.29C1053.37 132.6 1056.38 128.187 1058.43 123.315C1057.47 122.315 1056.22 121.633 1054.87 121.36C1053.38 121.067 1051.84 121.278 1050.49 121.96C1049.14 122.643 1048.05 123.757 1047.41 125.126C1046.62 125.551 1045.92 126.127 1045.36 126.823C1044.79 127.518 1044.37 128.318 1044.11 129.177C1043.98 129.63 1043.9 130.095 1043.87 130.565C1042.93 130.098 1041.9 129.854 1040.85 129.852C1040.78 129.854 1040.72 129.856 1040.65 129.86C1040.84 129.405 1040.99 128.93 1041.08 128.444C1041.28 127.32 1041.19 126.163 1040.82 125.081C1040.46 123.515 1039.55 122.129 1038.26 121.169C1038.39 121.206 1038.52 121.239 1038.65 121.268C1040.28 121.603 1041.97 121.332 1043.41 120.505C1044.85 119.679 1045.93 118.355 1046.46 116.783C1047.22 115.951 1047.76 114.946 1048.03 113.855C1048.3 112.764 1048.3 111.623 1048.02 110.534C1047.65 109.099 1046.82 107.824 1045.66 106.903C1045.05 105.898 1044.19 105.069 1043.16 104.498C1042.72 104.183 1042.24 103.923 1041.74 103.722C1041.52 103.572 1041.29 103.435 1041.05 103.312C1041.52 102.027 1041.6 100.63 1041.26 99.3027C1041.01 98.3148 1040.54 97.3964 1039.88 96.6156C1039.23 95.8349 1038.4 95.2118 1037.47 94.7925C1036.99 93.6147 1036.18 92.5979 1035.14 91.8585C1034.1 91.1191 1032.87 90.6869 1031.6 90.6113C1031.02 90.5794 1030.44 90.6222 1029.87 90.7385C1030.59 89.8729 1031.08 88.8431 1031.3 87.7412C1031.52 86.6393 1031.46 85.4998 1031.14 84.4249C1030.71 83.0374 1029.85 81.8223 1028.69 80.9574C1027.52 80.0925 1026.11 79.6234 1024.66 79.6186L1024.66 79.6186ZM1050.55 80.6956C1049.41 81.0282 1048.37 81.6553 1047.55 82.514C1046.73 83.3727 1046.14 84.4329 1045.86 85.5884C1045.43 87.3379 1045.71 89.1864 1046.64 90.7272C1047.58 92.268 1049.08 93.375 1050.83 93.8045C1052.11 94.115 1053.44 94.0511 1054.68 93.6203C1055.91 93.1895 1057 92.4104 1057.8 91.3766C1055.99 87.4428 1053.54 83.8343 1050.55 80.6956V80.6956ZM1059.14 94.6104C1058.76 94.6261 1058.37 94.6747 1058 94.7555C1056.24 95.1433 1054.7 96.2141 1053.74 97.7324C1052.77 99.2506 1052.44 101.092 1052.83 102.851C1053.21 104.61 1054.28 106.143 1055.8 107.113C1057.32 108.083 1059.16 108.41 1060.92 108.022C1061.12 107.977 1061.32 107.923 1061.52 107.86C1061.49 103.34 1060.69 98.8588 1059.14 94.6104ZM1033.3 115.438C1033.41 116.349 1033.7 117.228 1034.16 118.022C1034.62 118.817 1035.24 119.509 1035.98 120.058C1035.34 119.885 1034.67 119.807 1034.01 119.826C1033.55 119.842 1033.09 119.905 1032.64 120.014C1032.98 118.881 1033.01 117.681 1032.74 116.531C1032.71 116.406 1032.67 116.282 1032.63 116.159C1032.87 115.935 1033.09 115.694 1033.3 115.438V115.438ZM1019.9 134.291C1019.45 134.295 1019 134.345 1018.56 134.439C1018.25 134.507 1017.95 134.596 1017.65 134.706C1017.52 134.675 1017.39 134.648 1017.26 134.625C1016.38 134.49 1015.48 134.53 1014.61 134.742C1013.74 134.955 1012.93 135.336 1012.21 135.863C1011.49 136.391 1010.88 137.056 1010.42 137.818C1009.96 138.581 1009.65 139.428 1009.51 140.309C1009.36 141.331 1009.44 142.376 1009.74 143.363C1010.05 144.349 1010.58 145.253 1011.29 146.004C1014.78 146.998 1018.38 147.508 1022 147.52C1022.05 147.519 1022.09 147.517 1022.14 147.516C1023.71 146.984 1025.04 145.891 1025.86 144.445C1026.69 143 1026.95 141.302 1026.61 139.673C1026.28 138.14 1025.44 136.767 1024.22 135.786C1022.99 134.805 1021.47 134.277 1019.9 134.291V134.291Z" fill="#F2F2F2"/>
</g>
<defs>
<filter id="filter0_f_118_2" x="921.971" y="7.97121" width="200.058" height="200.058" filterUnits="userSpaceOnUse" color-interpolation-filters="sRGB">
<feFlood flood-opacity="0" result="BackgroundImageFix"/>
<feBlend mode="normal" in="SourceGraphic" in2="BackgroundImageFix" result="shape"/>
<feGaussianBlur stdDeviation="25.0144" result="effect1_foregroundBlur_118_2"/>
</filter>
<clipPath id="clip0_118_2">
<rect width="1122.52" height="793.701" fill="white"/>
</clipPath>
</defs>
</svg>
