<svg width="822" height="893" viewBox="0 0 822 893" fill="none" xmlns="http://www.w3.org/2000/svg">
<path d="M583.055 133.234C656.827 177.532 720.309 237.875 765.479 310.601C810.824 383.327 837.681 468.609 812.044 538.893C786.233 609.177 708.101 664.811 643.398 703.703C578.695 742.769 527.595 765.266 479.46 781.137C431.5 797.007 386.33 806.251 338.369 811.483C290.234 816.715 238.96 818.11 175.129 811.483C111.124 804.681 34.387 790.031 9.79635 745.733C-14.9687 701.435 12.238 627.489 35.9566 567.32C59.6752 507.152 79.7315 460.761 90.1956 391.698C100.66 322.809 101.532 231.248 141.818 167.592C182.105 103.935 261.632 68.1826 343.427 64.3457C425.396 60.5089 509.283 88.9364 583.055 133.234Z" fill="#FF0080"/>
<g filter="url(#filter0_d_44_447)">
<rect x="198.464" width="424.987" height="880" rx="73.9108" fill="#B7ABAB"/>
<rect x="198.464" width="424.987" height="880" rx="73.9108" fill="url(#paint0_linear_44_447)"/>
<rect x="203.084" y="4.61938" width="415.748" height="870.761" rx="69.2913" fill="#111111" stroke="#342E3C" stroke-width="3.46457"/>
<rect x="216.942" y="17.3228" width="389.186" height="844.199" rx="58.8976" fill="white"/>
<rect x="341.667" y="848.819" width="139.738" height="5.77428" rx="2.88714" fill="white"/>
<g style="mix-blend-mode:overlay">
<rect x="348.596" y="26.5618" width="123.57" height="36.9554" rx="18.4777" fill="#E0D8FF" fill-opacity="0.6"/>
</g>
<rect x="348.596" y="27.7166" width="123.57" height="36.9554" rx="18.4777" fill="#111111"/>
<rect x="356.68" y="35.8005" width="63.5171" height="20.7874" rx="10.3937" fill="#222222" fill-opacity="0.6"/>
<circle cx="457.152" cy="46.1943" r="8.08399" fill="#09060A"/>
<circle cx="457.152" cy="46.1944" r="5.19685" fill="#000C1E" stroke="#1C1C42" stroke-width="1.15486"/>
<ellipse cx="457.152" cy="44.462" rx="2.30971" ry="1.73228" fill="#4D518E" fill-opacity="0.6"/>
<ellipse cx="457.73" cy="48.504" rx="1.73228" ry="1.15486" fill="#01324E"/>
<mask id="path-14-inside-1_44_447" fill="white">
<path d="M195 319.895C195 319.257 195.517 318.74 196.155 318.74H198.465V384.567H196.155C195.517 384.567 195 384.05 195 383.412V319.895Z"/>
</mask>
<g filter="url(#filter1_i_44_447)">
<path d="M195 319.895C195 319.257 195.517 318.74 196.155 318.74H198.465V384.567H196.155C195.517 384.567 195 384.05 195 383.412V319.895Z" fill="#918A8C"/>
</g>
<path d="M195 318.74H198.465H195ZM198.465 384.567H195H198.465ZM196.155 384.567C194.879 384.567 193.845 383.533 193.845 382.257V321.05C193.845 319.774 194.879 318.74 196.155 318.74C196.155 318.74 196.155 319.257 196.155 319.895V383.412C196.155 384.05 196.155 384.567 196.155 384.567ZM198.465 318.74V384.567V318.74Z" fill="#9D9494" mask="url(#path-14-inside-1_44_447)"/>
<path fill-rule="evenodd" clip-rule="evenodd" d="M198.822 322.884H196.155V321.106H198.822V322.884Z" fill="black" fill-opacity="0.6"/>
<path opacity="0.25" fill-rule="evenodd" clip-rule="evenodd" d="M198.822 322.884H196.155V319.328H198.822V322.884Z" fill="black" fill-opacity="0.9"/>
<path opacity="0.25" fill-rule="evenodd" clip-rule="evenodd" d="M198.822 324.662H196.155V321.106H198.822V324.662Z" fill="black" fill-opacity="0.9"/>
<path fill-rule="evenodd" clip-rule="evenodd" d="M198.822 382.937H196.155V381.159H198.822V382.937Z" fill="black" fill-opacity="0.6"/>
<path opacity="0.25" fill-rule="evenodd" clip-rule="evenodd" d="M198.822 382.937H196.155V379.38H198.822V382.937Z" fill="black" fill-opacity="0.9"/>
<path opacity="0.25" fill-rule="evenodd" clip-rule="evenodd" d="M198.822 384.715H196.155V381.159H198.822V384.715Z" fill="black" fill-opacity="0.9"/>
<mask id="path-22-inside-2_44_447" fill="white">
<path d="M195 234.436C195 233.798 195.517 233.281 196.155 233.281H198.465V299.108H196.155C195.517 299.108 195 298.59 195 297.953V234.436Z"/>
</mask>
<g filter="url(#filter2_i_44_447)">
<path d="M195 234.436C195 233.798 195.517 233.281 196.155 233.281H198.465V299.108H196.155C195.517 299.108 195 298.59 195 297.953V234.436Z" fill="#918A8C"/>
</g>
<path d="M195 233.281H198.465H195ZM198.465 299.108H195H198.465ZM196.155 299.108C194.879 299.108 193.845 298.073 193.845 296.798V235.59C193.845 234.315 194.879 233.281 196.155 233.281C196.155 233.281 196.155 233.798 196.155 234.436V297.953C196.155 298.59 196.155 299.108 196.155 299.108ZM198.465 233.281V299.108V233.281Z" fill="#9D9494" mask="url(#path-22-inside-2_44_447)"/>
<path fill-rule="evenodd" clip-rule="evenodd" d="M198.822 238.58H196.155V236.802H198.822V238.58Z" fill="black" fill-opacity="0.6"/>
<path opacity="0.25" fill-rule="evenodd" clip-rule="evenodd" d="M198.822 238.58H196.155V235.023H198.822V238.58Z" fill="black" fill-opacity="0.9"/>
<path opacity="0.25" fill-rule="evenodd" clip-rule="evenodd" d="M198.822 240.358H196.155V236.802H198.822V240.358Z" fill="black" fill-opacity="0.9"/>
<path fill-rule="evenodd" clip-rule="evenodd" d="M198.822 296.89H196.155V295.111H198.822V296.89Z" fill="black" fill-opacity="0.6"/>
<path opacity="0.25" fill-rule="evenodd" clip-rule="evenodd" d="M198.822 296.889H196.155V293.333H198.822V296.889Z" fill="black" fill-opacity="0.9"/>
<path opacity="0.25" fill-rule="evenodd" clip-rule="evenodd" d="M198.822 298.668H196.155V295.111H198.822V298.668Z" fill="black" fill-opacity="0.9"/>
<mask id="path-30-inside-3_44_447" fill="white">
<path d="M195 169.764C195 169.126 195.517 168.609 196.155 168.609H198.465V202.1H196.155C195.517 202.1 195 201.583 195 200.945V169.764Z"/>
</mask>
<g filter="url(#filter3_i_44_447)">
<path d="M195 169.764C195 169.126 195.517 168.609 196.155 168.609H198.465V202.1H196.155C195.517 202.1 195 201.583 195 200.945V169.764Z" fill="#918A8C"/>
</g>
<path d="M195 168.609H198.465H195ZM198.465 202.1H195H198.465ZM196.155 202.1C194.879 202.1 193.845 201.066 193.845 199.79V170.919C193.845 169.643 194.879 168.609 196.155 168.609C196.155 168.609 196.155 169.126 196.155 169.764V200.945C196.155 201.583 196.155 202.1 196.155 202.1ZM198.465 168.609V202.1V168.609Z" fill="#9D9494" mask="url(#path-30-inside-3_44_447)"/>
<path fill-rule="evenodd" clip-rule="evenodd" d="M198.464 172.843H196.155V171.303H198.464V172.843Z" fill="black" fill-opacity="0.6"/>
<path opacity="0.25" fill-rule="evenodd" clip-rule="evenodd" d="M198.464 172.843H196.155V169.764H198.464V172.843Z" fill="black" fill-opacity="0.9"/>
<path opacity="0.25" fill-rule="evenodd" clip-rule="evenodd" d="M198.464 174.383H196.155V171.303H198.464V174.383Z" fill="black" fill-opacity="0.9"/>
<path fill-rule="evenodd" clip-rule="evenodd" d="M198.822 199.315H196.155V197.536H198.822V199.315Z" fill="black" fill-opacity="0.6"/>
<path opacity="0.25" fill-rule="evenodd" clip-rule="evenodd" d="M198.822 199.315H196.155V195.758H198.822V199.315Z" fill="black" fill-opacity="0.9"/>
<path opacity="0.25" fill-rule="evenodd" clip-rule="evenodd" d="M198.822 201.093H196.155V197.536H198.822V201.093Z" fill="black" fill-opacity="0.9"/>
<mask id="path-38-inside-4_44_447" fill="white">
<path d="M626.916 280.63C626.916 279.992 626.399 279.475 625.761 279.475H623.451V384.567H625.761C626.399 384.567 626.916 384.05 626.916 383.412V280.63Z"/>
</mask>
<g filter="url(#filter4_i_44_447)">
<path d="M626.916 280.63C626.916 279.992 626.399 279.475 625.761 279.475H623.451V384.567H625.761C626.399 384.567 626.916 384.05 626.916 383.412V280.63Z" fill="#918A8C"/>
</g>
<path d="M626.916 279.475H623.451H626.916ZM623.451 384.567H626.916H623.451ZM625.761 384.567C627.037 384.567 628.071 383.533 628.071 382.257V281.785C628.071 280.509 627.037 279.475 625.761 279.475C625.761 279.475 625.761 279.992 625.761 280.63V383.412C625.761 384.05 625.761 384.567 625.761 384.567ZM623.451 279.475V384.567V279.475Z" fill="#9D9494" mask="url(#path-38-inside-4_44_447)"/>
<path fill-rule="evenodd" clip-rule="evenodd" d="M626.119 284.774H623.452V282.996H626.119V284.774Z" fill="black" fill-opacity="0.6"/>
<path opacity="0.25" fill-rule="evenodd" clip-rule="evenodd" d="M626.119 284.774H623.452V281.217H626.119V284.774Z" fill="black" fill-opacity="0.9"/>
<path opacity="0.25" fill-rule="evenodd" clip-rule="evenodd" d="M626.119 286.552H623.452V282.996H626.119V286.552Z" fill="black" fill-opacity="0.9"/>
<path fill-rule="evenodd" clip-rule="evenodd" d="M626.119 380.627H623.452V378.849H626.119V380.627Z" fill="black" fill-opacity="0.6"/>
<path opacity="0.25" fill-rule="evenodd" clip-rule="evenodd" d="M626.119 380.627H623.452V377.07H626.119V380.627Z" fill="black" fill-opacity="0.9"/>
<path opacity="0.25" fill-rule="evenodd" clip-rule="evenodd" d="M626.119 382.405H623.452V378.849H626.119V382.405Z" fill="black" fill-opacity="0.9"/>
<path d="M198.464 92.3884H201.351V98.1627H198.464V92.3884Z" fill="#685E76" fill-opacity="0.8"/>
<path d="M619.987 92.3884H622.874V98.1627H619.987V92.3884Z" fill="#685E76" fill-opacity="0.8"/>
<path d="M198.464 787.611H201.351V793.386H198.464V787.611Z" fill="#685E76" fill-opacity="0.8"/>
<path d="M619.987 787.611H622.874V793.386H619.987V787.611Z" fill="#685E76" fill-opacity="0.8"/>
<path d="M536.837 0L536.837 2.88714L531.063 2.88714L531.063 -2.52402e-07L536.837 0Z" fill="#685E76" fill-opacity="0.8"/>
<path d="M282.769 876.535L282.769 879.422L276.995 879.422L276.995 876.535L282.769 876.535Z" fill="#685E76" fill-opacity="0.8"/>
</g>
<path fill-rule="evenodd" clip-rule="evenodd" d="M364.403 372.744C375.297 372.744 383.673 382.946 390.307 391.587V391.587C401.515 406.185 423.702 406.185 434.909 391.587V391.587C441.543 382.946 449.92 372.744 460.813 372.744L467.274 372.744C533.27 372.744 566.269 372.744 586.771 393.247C607.274 413.749 607.274 446.748 607.274 512.744L607.274 762C607.274 809.141 607.274 832.711 592.629 847.356C577.984 862 554.414 862 507.274 862L317 862C269.86 862 246.289 862 231.645 847.356C217 832.711 217 809.141 217 762L217 512.744C217 446.748 217 413.749 237.503 393.247C258.005 372.744 291.003 372.744 357 372.744L364.403 372.744Z" fill="#5C428F"/>
<path d="M308.456 439.161H310.856V455.961H308.096V442.113L304.712 443.073L304.04 440.721L308.456 439.161Z" fill="white"/>
<g filter="url(#filter5_b_44_447)">
<rect x="533.985" y="76" width="45.2491" height="118.779" rx="15" transform="rotate(90 533.985 76)" fill="#FAFAFA"/>
</g>
<path d="M454.026 98.3324C454.517 98.5884 454.901 98.9404 455.178 99.3884C455.456 99.8364 455.594 100.354 455.594 100.94C455.594 101.858 455.269 102.62 454.618 103.228C453.968 103.836 453.173 104.14 452.234 104.14H447.434V92.9404H451.882C452.8 92.9404 453.573 93.239 454.202 93.8364C454.842 94.423 455.162 95.159 455.162 96.0444C455.162 97.015 454.784 97.7777 454.026 98.3324ZM451.882 94.6684H449.274V97.6124H451.882C452.288 97.6124 452.629 97.4737 452.906 97.1964C453.184 96.9084 453.322 96.5564 453.322 96.1404C453.322 95.7244 453.184 95.3777 452.906 95.1004C452.629 94.8124 452.288 94.6684 451.882 94.6684ZM452.234 102.412C452.661 102.412 453.018 102.263 453.306 101.964C453.605 101.655 453.754 101.282 453.754 100.844C453.754 100.407 453.605 100.039 453.306 99.7404C453.018 99.431 452.661 99.2764 452.234 99.2764H449.274V102.412H452.234ZM462.316 96.1404H464.044V104.14H462.316V103.116C461.794 103.938 460.967 104.348 459.836 104.348C458.919 104.348 458.178 104.055 457.612 103.468C457.047 102.882 456.764 102.076 456.764 101.052V96.1404H458.492V100.876C458.492 101.474 458.652 101.932 458.972 102.252C459.292 102.572 459.73 102.732 460.284 102.732C460.892 102.732 461.383 102.546 461.756 102.172C462.13 101.788 462.316 101.207 462.316 100.428V96.1404ZM471.137 96.1404H472.977L469.905 104.396C469.137 106.466 467.836 107.447 466.001 107.34V105.724C466.545 105.756 466.982 105.639 467.313 105.372C467.644 105.116 467.916 104.711 468.129 104.156L468.209 103.996L464.817 96.1404H466.705L469.089 101.948L471.137 96.1404ZM474.169 105.74H473.289L479.689 91.3404H480.569L474.169 105.74ZM485.664 104.348C484.586 104.348 483.669 104.103 482.912 103.612C482.165 103.122 481.642 102.45 481.344 101.596L482.928 100.668C483.376 101.927 484.304 102.556 485.712 102.556C486.405 102.556 486.922 102.423 487.264 102.156C487.616 101.879 487.792 101.522 487.792 101.084C487.792 100.626 487.605 100.279 487.232 100.044C486.858 99.799 486.197 99.5324 485.248 99.2444C484.714 99.0844 484.282 98.935 483.952 98.7964C483.621 98.6577 483.269 98.4657 482.896 98.2204C482.533 97.9644 482.261 97.6497 482.08 97.2764C481.898 96.903 481.808 96.4657 481.808 95.9644C481.808 94.9724 482.16 94.1884 482.864 93.6124C483.568 93.0257 484.416 92.7324 485.408 92.7324C486.304 92.7324 487.088 92.951 487.76 93.3884C488.432 93.8257 488.949 94.4284 489.312 95.1964L487.76 96.0924C487.29 95.047 486.506 94.5244 485.408 94.5244C484.874 94.5244 484.448 94.6524 484.128 94.9084C483.808 95.1537 483.648 95.4897 483.648 95.9164C483.648 96.3324 483.808 96.663 484.128 96.9084C484.458 97.143 485.05 97.3937 485.904 97.6604C486.33 97.799 486.64 97.9057 486.832 97.9804C487.034 98.0444 487.312 98.151 487.664 98.3004C488.026 98.4497 488.298 98.599 488.48 98.7484C488.661 98.8977 488.853 99.0844 489.056 99.3084C489.269 99.5324 489.418 99.7884 489.504 100.076C489.589 100.364 489.632 100.69 489.632 101.052C489.632 102.066 489.264 102.871 488.528 103.468C487.802 104.055 486.848 104.348 485.664 104.348ZM492.364 100.876C492.492 101.484 492.785 101.954 493.244 102.284C493.702 102.604 494.262 102.764 494.924 102.764C495.841 102.764 496.529 102.434 496.988 101.772L498.412 102.604C497.622 103.767 496.454 104.348 494.908 104.348C493.606 104.348 492.556 103.954 491.756 103.164C490.956 102.364 490.556 101.356 490.556 100.14C490.556 98.9457 490.95 97.9484 491.74 97.1484C492.529 96.3377 493.542 95.9324 494.78 95.9324C495.953 95.9324 496.913 96.343 497.66 97.1644C498.417 97.9857 498.796 98.983 498.796 100.156C498.796 100.338 498.774 100.578 498.732 100.876H492.364ZM492.348 99.4684H497.052C496.934 98.8177 496.662 98.327 496.236 97.9964C495.82 97.6657 495.329 97.5004 494.764 97.5004C494.124 97.5004 493.59 97.6764 493.164 98.0284C492.737 98.3804 492.465 98.8604 492.348 99.4684ZM499.996 104.14V92.4604H501.724V104.14H499.996ZM503.411 104.14V92.4604H505.139V104.14H503.411Z" fill="#989898"/>
<g filter="url(#filter6_b_44_447)">
<rect x="405.779" y="76" width="45.2491" height="118.779" rx="15" transform="rotate(90 405.779 76)" fill="#CBEC44"/>
</g>
<path d="M331.441 104.348C330.363 104.348 329.446 104.103 328.689 103.612C327.942 103.122 327.419 102.45 327.121 101.596L328.705 100.668C329.153 101.927 330.081 102.556 331.489 102.556C332.182 102.556 332.699 102.423 333.041 102.156C333.393 101.879 333.569 101.522 333.569 101.084C333.569 100.626 333.382 100.279 333.009 100.044C332.635 99.799 331.974 99.5324 331.025 99.2444C330.491 99.0844 330.059 98.935 329.729 98.7964C329.398 98.6577 329.046 98.4657 328.673 98.2204C328.31 97.9644 328.038 97.6497 327.857 97.2764C327.675 96.903 327.585 96.4657 327.585 95.9644C327.585 94.9724 327.937 94.1884 328.641 93.6124C329.345 93.0257 330.193 92.7324 331.185 92.7324C332.081 92.7324 332.865 92.951 333.537 93.3884C334.209 93.8257 334.726 94.4284 335.089 95.1964L333.537 96.0924C333.067 95.047 332.283 94.5244 331.185 94.5244C330.651 94.5244 330.225 94.6524 329.905 94.9084C329.585 95.1537 329.425 95.4897 329.425 95.9164C329.425 96.3324 329.585 96.663 329.905 96.9084C330.235 97.143 330.827 97.3937 331.681 97.6604C332.107 97.799 332.417 97.9057 332.609 97.9804C332.811 98.0444 333.089 98.151 333.441 98.3004C333.803 98.4497 334.075 98.599 334.257 98.7484C334.438 98.8977 334.63 99.0844 334.833 99.3084C335.046 99.5324 335.195 99.7884 335.281 100.076C335.366 100.364 335.409 100.69 335.409 101.052C335.409 102.066 335.041 102.871 334.305 103.468C333.579 104.055 332.625 104.348 331.441 104.348ZM345.481 96.1404H347.305L344.793 104.14H343.097L341.433 98.7484L339.753 104.14H338.057L335.545 96.1404H337.369L338.921 101.66L340.601 96.1404H342.249L343.913 101.66L345.481 96.1404ZM354.281 96.1404H356.009V104.14H354.281V102.988C353.63 103.895 352.697 104.348 351.481 104.348C350.382 104.348 349.444 103.943 348.665 103.132C347.886 102.311 347.497 101.314 347.497 100.14C347.497 98.9564 347.886 97.959 348.665 97.1484C349.444 96.3377 350.382 95.9324 351.481 95.9324C352.697 95.9324 353.63 96.3804 354.281 97.2764V96.1404ZM349.945 101.98C350.425 102.46 351.028 102.7 351.753 102.7C352.478 102.7 353.081 102.46 353.561 101.98C354.041 101.49 354.281 100.876 354.281 100.14C354.281 99.4044 354.041 98.7964 353.561 98.3164C353.081 97.8257 352.478 97.5804 351.753 97.5804C351.028 97.5804 350.425 97.8257 349.945 98.3164C349.465 98.7964 349.225 99.4044 349.225 100.14C349.225 100.876 349.465 101.49 349.945 101.98ZM362.231 95.9324C363.33 95.9324 364.269 96.343 365.047 97.1644C365.826 97.975 366.215 98.967 366.215 100.14C366.215 101.324 365.826 102.322 365.047 103.132C364.269 103.943 363.33 104.348 362.231 104.348C361.015 104.348 360.082 103.9 359.431 103.004V107.34H357.703V96.1404H359.431V97.2924C360.082 96.3857 361.015 95.9324 362.231 95.9324ZM360.151 101.98C360.631 102.46 361.234 102.7 361.959 102.7C362.685 102.7 363.287 102.46 363.767 101.98C364.247 101.49 364.487 100.876 364.487 100.14C364.487 99.4044 364.247 98.7964 363.767 98.3164C363.287 97.8257 362.685 97.5804 361.959 97.5804C361.234 97.5804 360.631 97.8257 360.151 98.3164C359.671 98.7964 359.431 99.4044 359.431 100.14C359.431 100.876 359.671 101.49 360.151 101.98Z" fill="#030303"/>
<path d="M317.24 536.154V538.722H315.32V541.746H312.536V538.722H304.28V536.154L310.064 524.946H313.064L307.28 536.154H312.536V531.786H315.32V536.154H317.24Z" fill="white"/>
<path d="M304.088 610.731H314.768V613.131L308.864 627.531H305.96L311.768 613.371H304.088V610.731Z" fill="white"/>
<path d="M404.397 455.961V453.801L410.253 447.825C411.677 446.401 412.389 445.169 412.389 444.129C412.389 443.313 412.141 442.681 411.645 442.233C411.165 441.769 410.549 441.537 409.797 441.537C408.389 441.537 407.349 442.233 406.677 443.625L404.349 442.257C404.877 441.137 405.621 440.289 406.581 439.713C407.541 439.137 408.605 438.849 409.773 438.849C411.245 438.849 412.509 439.313 413.565 440.241C414.621 441.169 415.149 442.433 415.149 444.033C415.149 445.745 414.197 447.569 412.293 449.505L408.501 453.297H415.461V455.961H404.397Z" fill="white"/>
<rect x="240.567" y="139.899" width="343.139" height="194.194" rx="30" fill="#FAFAFA"/>
<path d="M389.621 170.98L385.653 177.652V182.18H384.165V177.636L380.213 170.98H381.877L384.917 176.228L387.957 170.98H389.621ZM395.636 181.172C394.815 181.983 393.817 182.388 392.644 182.388C391.471 182.388 390.473 181.983 389.652 181.172C388.841 180.362 388.436 179.364 388.436 178.18C388.436 176.996 388.841 175.999 389.652 175.188C390.473 174.378 391.471 173.972 392.644 173.972C393.817 173.972 394.815 174.378 395.636 175.188C396.457 175.999 396.868 176.996 396.868 178.18C396.868 179.364 396.457 180.362 395.636 181.172ZM392.644 181.028C393.444 181.028 394.116 180.756 394.66 180.212C395.204 179.668 395.476 178.991 395.476 178.18C395.476 177.37 395.204 176.692 394.66 176.148C394.116 175.604 393.444 175.332 392.644 175.332C391.855 175.332 391.188 175.604 390.644 176.148C390.1 176.692 389.828 177.37 389.828 178.18C389.828 178.991 390.1 179.668 390.644 180.212C391.188 180.756 391.855 181.028 392.644 181.028ZM403.709 174.18H405.101V182.18H403.709V181.028C403.144 181.935 402.28 182.388 401.117 182.388C400.178 182.388 399.426 182.095 398.861 181.508C398.296 180.911 398.013 180.106 398.013 179.092V174.18H399.405V179.012C399.405 179.663 399.581 180.17 399.933 180.532C400.285 180.884 400.77 181.06 401.389 181.06C402.082 181.06 402.642 180.847 403.069 180.42C403.496 179.983 403.709 179.316 403.709 178.42V174.18ZM414.34 182.388C413.295 182.388 412.399 182.143 411.652 181.652C410.916 181.162 410.399 180.49 410.1 179.636L411.38 178.9C411.818 180.255 412.815 180.932 414.372 180.932C415.14 180.932 415.727 180.778 416.132 180.468C416.538 180.148 416.74 179.727 416.74 179.204C416.74 178.671 416.538 178.271 416.132 178.004C415.727 177.738 415.05 177.455 414.1 177.156C413.631 177.007 413.274 176.89 413.028 176.804C412.783 176.708 412.474 176.57 412.1 176.388C411.738 176.196 411.466 176.004 411.284 175.812C411.103 175.61 410.938 175.348 410.788 175.028C410.65 174.708 410.58 174.346 410.58 173.94C410.58 172.97 410.922 172.202 411.604 171.636C412.287 171.06 413.119 170.772 414.1 170.772C414.986 170.772 415.754 170.996 416.404 171.444C417.066 171.892 417.562 172.484 417.892 173.22L416.644 173.94C416.164 172.788 415.316 172.212 414.1 172.212C413.492 172.212 413.002 172.362 412.628 172.66C412.255 172.959 412.068 173.364 412.068 173.876C412.068 174.367 412.244 174.74 412.596 174.996C412.948 175.252 413.556 175.519 414.42 175.796C414.73 175.892 414.948 175.962 415.076 176.004C415.204 176.047 415.402 176.122 415.668 176.228C415.946 176.335 416.148 176.42 416.276 176.484C416.404 176.548 416.575 176.639 416.788 176.756C417.012 176.874 417.178 176.986 417.284 177.092C417.391 177.199 417.514 177.332 417.652 177.492C417.802 177.642 417.908 177.796 417.972 177.956C418.036 178.116 418.09 178.303 418.132 178.516C418.186 178.719 418.212 178.938 418.212 179.172C418.212 180.154 417.855 180.938 417.14 181.524C416.426 182.1 415.492 182.388 414.34 182.388ZM420.674 178.82C420.812 179.535 421.138 180.09 421.65 180.484C422.172 180.879 422.812 181.076 423.57 181.076C424.626 181.076 425.394 180.687 425.874 179.908L427.058 180.58C426.279 181.786 425.106 182.388 423.538 182.388C422.268 182.388 421.234 181.994 420.434 181.204C419.644 180.404 419.25 179.396 419.25 178.18C419.25 176.975 419.639 175.972 420.418 175.172C421.196 174.372 422.204 173.972 423.442 173.972C424.615 173.972 425.57 174.388 426.306 175.22C427.052 176.042 427.426 177.034 427.426 178.196C427.426 178.399 427.41 178.607 427.378 178.82H420.674ZM423.442 175.284C422.695 175.284 422.076 175.498 421.586 175.924C421.095 176.34 420.791 176.9 420.674 177.604H426.018C425.9 176.847 425.602 176.271 425.122 175.876C424.642 175.482 424.082 175.284 423.442 175.284ZM432.69 173.972C433.628 173.972 434.38 174.271 434.946 174.868C435.511 175.455 435.794 176.255 435.794 177.268V182.18H434.402V177.348C434.402 176.698 434.226 176.196 433.874 175.844C433.522 175.482 433.036 175.3 432.418 175.3C431.724 175.3 431.164 175.519 430.738 175.956C430.311 176.383 430.098 177.044 430.098 177.94V182.18H428.706V174.18H430.098V175.332C430.663 174.426 431.527 173.972 432.69 173.972ZM444.041 170.98H445.433V182.18H444.041V180.804C443.348 181.86 442.34 182.388 441.017 182.388C439.897 182.388 438.942 181.983 438.153 181.172C437.364 180.351 436.969 179.354 436.969 178.18C436.969 177.007 437.364 176.015 438.153 175.204C438.942 174.383 439.897 173.972 441.017 173.972C442.34 173.972 443.348 174.5 444.041 175.556V170.98ZM441.193 181.044C442.004 181.044 442.681 180.772 443.225 180.228C443.769 179.674 444.041 178.991 444.041 178.18C444.041 177.37 443.769 176.692 443.225 176.148C442.681 175.594 442.004 175.316 441.193 175.316C440.393 175.316 439.721 175.594 439.177 176.148C438.633 176.692 438.361 177.37 438.361 178.18C438.361 178.991 438.633 179.674 439.177 180.228C439.721 180.772 440.393 181.044 441.193 181.044Z" fill="#989898"/>
<path d="M394.335 263.364L390.367 270.036V274.564H388.879V270.02L384.927 263.364H386.591L389.631 268.612L392.671 263.364H394.335ZM400.349 273.556C399.528 274.367 398.531 274.772 397.357 274.772C396.184 274.772 395.187 274.367 394.365 273.556C393.555 272.745 393.149 271.748 393.149 270.564C393.149 269.38 393.555 268.383 394.365 267.572C395.187 266.761 396.184 266.356 397.357 266.356C398.531 266.356 399.528 266.761 400.349 267.572C401.171 268.383 401.581 269.38 401.581 270.564C401.581 271.748 401.171 272.745 400.349 273.556ZM397.357 273.412C398.157 273.412 398.829 273.14 399.373 272.596C399.917 272.052 400.189 271.375 400.189 270.564C400.189 269.753 399.917 269.076 399.373 268.532C398.829 267.988 398.157 267.716 397.357 267.716C396.568 267.716 395.901 267.988 395.357 268.532C394.813 269.076 394.541 269.753 394.541 270.564C394.541 271.375 394.813 272.052 395.357 272.596C395.901 273.14 396.568 273.412 397.357 273.412ZM408.422 266.564H409.814V274.564H408.422V273.412C407.857 274.319 406.993 274.772 405.83 274.772C404.892 274.772 404.14 274.479 403.574 273.892C403.009 273.295 402.726 272.489 402.726 271.476V266.564H404.118V271.396C404.118 272.047 404.294 272.553 404.646 272.916C404.998 273.268 405.484 273.444 406.102 273.444C406.796 273.444 407.356 273.231 407.782 272.804C408.209 272.367 408.422 271.7 408.422 270.804V266.564ZM426.238 269.012V269.684C426.238 271.145 425.736 272.361 424.734 273.332C423.731 274.292 422.403 274.772 420.75 274.772C419.043 274.772 417.63 274.212 416.51 273.092C415.4 271.961 414.846 270.585 414.846 268.964C414.846 267.343 415.4 265.972 416.51 264.852C417.63 263.721 419.032 263.156 420.718 263.156C421.752 263.156 422.702 263.407 423.566 263.908C424.43 264.399 425.096 265.049 425.566 265.86L424.286 266.612C423.966 266.004 423.48 265.519 422.83 265.156C422.19 264.783 421.48 264.596 420.702 264.596C419.422 264.596 418.371 265.017 417.55 265.86C416.728 266.692 416.318 267.727 416.318 268.964C416.318 270.201 416.728 271.236 417.55 272.068C418.382 272.9 419.454 273.316 420.766 273.316C421.886 273.316 422.792 273.044 423.486 272.5C424.179 271.945 424.6 271.231 424.75 270.356H420.638V269.012H426.238ZM428.559 271.204C428.698 271.919 429.023 272.473 429.535 272.868C430.058 273.263 430.698 273.46 431.455 273.46C432.511 273.46 433.279 273.071 433.759 272.292L434.943 272.964C434.164 274.169 432.991 274.772 431.423 274.772C430.154 274.772 429.119 274.377 428.319 273.588C427.53 272.788 427.135 271.78 427.135 270.564C427.135 269.359 427.524 268.356 428.303 267.556C429.082 266.756 430.09 266.356 431.327 266.356C432.5 266.356 433.455 266.772 434.191 267.604C434.938 268.425 435.311 269.417 435.311 270.58C435.311 270.783 435.295 270.991 435.263 271.204H428.559ZM431.327 267.668C430.58 267.668 429.962 267.881 429.471 268.308C428.98 268.724 428.676 269.284 428.559 269.988H433.903C433.786 269.231 433.487 268.655 433.007 268.26C432.527 267.865 431.967 267.668 431.327 267.668ZM440.709 267.908H438.581V272.244C438.581 272.639 438.655 272.921 438.805 273.092C438.965 273.252 439.205 273.337 439.525 273.348C439.845 273.348 440.239 273.337 440.709 273.316V274.564C439.493 274.724 438.602 274.628 438.037 274.276C437.471 273.913 437.189 273.236 437.189 272.244V267.908H435.605V266.564H437.189V264.74L438.581 264.324V266.564H440.709V267.908Z" fill="#989898"/>
<path d="M395.42 212.454C394.095 214.302 392.238 215.226 389.848 215.226C387.459 215.226 385.602 214.302 384.276 212.454C382.951 210.606 382.288 208.142 382.288 205.062C382.288 201.982 382.951 199.518 384.276 197.67C385.602 195.822 387.459 194.898 389.848 194.898C392.238 194.898 394.095 195.822 395.42 197.67C396.746 199.518 397.408 201.982 397.408 205.062C397.408 208.142 396.746 210.606 395.42 212.454ZM386.18 210.69C387.039 212.015 388.262 212.678 389.848 212.678C391.435 212.678 392.658 212.015 393.516 210.69C394.394 209.365 394.832 207.489 394.832 205.062C394.832 202.635 394.394 200.759 393.516 199.434C392.658 198.09 391.435 197.418 389.848 197.418C388.262 197.418 387.039 198.081 386.18 199.406C385.322 200.731 384.892 202.617 384.892 205.062C384.892 207.489 385.322 209.365 386.18 210.69ZM400.645 215.17C400.141 215.17 399.712 214.993 399.357 214.638C399.003 214.283 398.825 213.854 398.825 213.35C398.825 212.846 399.003 212.417 399.357 212.062C399.712 211.707 400.141 211.53 400.645 211.53C401.168 211.53 401.597 211.707 401.933 212.062C402.288 212.417 402.465 212.846 402.465 213.35C402.465 213.854 402.288 214.283 401.933 214.638C401.597 214.993 401.168 215.17 400.645 215.17ZM411.066 202.906C412.914 202.906 414.473 203.457 415.742 204.558C417.03 205.641 417.674 207.143 417.674 209.066C417.674 210.97 417.021 212.473 415.714 213.574C414.407 214.675 412.821 215.226 410.954 215.226C409.461 215.226 408.126 214.871 406.95 214.162C405.774 213.434 404.953 212.389 404.486 211.026L406.698 209.766C406.959 210.718 407.463 211.446 408.21 211.95C408.957 212.435 409.871 212.678 410.954 212.678C412.186 212.678 413.185 212.361 413.95 211.726C414.715 211.091 415.098 210.205 415.098 209.066C415.098 207.927 414.715 207.041 413.95 206.406C413.185 205.753 412.205 205.426 411.01 205.426H405.466L406.194 195.262H416.918V197.698H408.546L408.21 202.906H411.066ZM425.681 202.038C427.641 202.038 429.256 202.654 430.525 203.886C431.794 205.099 432.429 206.677 432.429 208.618C432.429 210.559 431.794 212.146 430.525 213.378C429.256 214.61 427.641 215.226 425.681 215.226C423.702 215.226 422.078 214.61 420.809 213.378C419.558 212.146 418.933 210.559 418.933 208.618C418.933 207.106 419.325 205.799 420.109 204.698L426.409 195.262H429.377L424.757 202.094C425.168 202.057 425.476 202.038 425.681 202.038ZM422.657 211.614C423.441 212.361 424.449 212.734 425.681 212.734C426.913 212.734 427.912 212.361 428.677 211.614C429.461 210.849 429.853 209.85 429.853 208.618C429.853 207.386 429.461 206.397 428.677 205.65C427.912 204.903 426.913 204.53 425.681 204.53C424.43 204.53 423.422 204.903 422.657 205.65C421.892 206.397 421.509 207.386 421.509 208.618C421.509 209.85 421.892 210.849 422.657 211.614ZM445.24 201.478C445.24 202.99 444.839 204.306 444.036 205.426H444.064L437.736 214.862H434.796L439.444 208.002C439.034 208.039 438.716 208.058 438.492 208.058C436.514 208.058 434.89 207.451 433.62 206.238C432.37 205.006 431.744 203.419 431.744 201.478C431.744 199.537 432.37 197.959 433.62 196.746C434.89 195.514 436.514 194.898 438.492 194.898C440.471 194.898 442.086 195.514 443.336 196.746C444.606 197.959 445.24 199.537 445.24 201.478ZM435.468 198.51C434.703 199.257 434.32 200.246 434.32 201.478C434.32 202.71 434.703 203.709 435.468 204.474C436.252 205.221 437.26 205.594 438.492 205.594C439.724 205.594 440.723 205.221 441.488 204.474C442.272 203.709 442.664 202.71 442.664 201.478C442.664 200.246 442.282 199.257 441.516 198.51C440.751 197.763 439.743 197.39 438.492 197.39C437.26 197.39 436.252 197.763 435.468 198.51Z" fill="#030303"/>
<path d="M387.991 295.682C389.484 295.962 390.707 296.606 391.659 297.614C392.611 298.622 393.087 299.9 393.087 301.45C393.087 303.354 392.434 304.856 391.127 305.958C389.82 307.059 388.234 307.61 386.367 307.61C384.874 307.61 383.548 307.274 382.391 306.602C381.234 305.911 380.412 304.922 379.927 303.634L382.111 302.346C382.69 304.156 384.108 305.062 386.367 305.062C387.58 305.062 388.57 304.744 389.335 304.11C390.1 303.475 390.483 302.588 390.483 301.45C390.483 300.311 390.1 299.424 389.335 298.79C388.57 298.136 387.58 297.81 386.367 297.81H385.695L384.659 296.214L389.195 290.082H380.487V287.646H392.247V289.942L387.991 295.682ZM407.137 293.862C407.137 295.374 406.735 296.69 405.933 297.81H405.961L399.633 307.246H396.693L401.341 300.386C400.93 300.423 400.613 300.442 400.389 300.442C398.41 300.442 396.786 299.835 395.517 298.622C394.266 297.39 393.641 295.803 393.641 293.862C393.641 291.92 394.266 290.343 395.517 289.13C396.786 287.898 398.41 287.282 400.389 287.282C402.367 287.282 403.982 287.898 405.233 289.13C406.502 290.343 407.137 291.92 407.137 293.862ZM397.365 290.894C396.599 291.64 396.217 292.63 396.217 293.862C396.217 295.094 396.599 296.092 397.365 296.858C398.149 297.604 399.157 297.978 400.389 297.978C401.621 297.978 402.619 297.604 403.385 296.858C404.169 296.092 404.561 295.094 404.561 293.862C404.561 292.63 404.178 291.64 403.413 290.894C402.647 290.147 401.639 289.774 400.389 289.774C399.157 289.774 398.149 290.147 397.365 290.894ZM406.841 307.554C406.337 307.554 405.907 307.376 405.553 307.022C405.198 306.667 405.021 306.238 405.021 305.734C405.021 305.23 405.198 304.8 405.553 304.446C405.907 304.091 406.337 303.914 406.841 303.914C407.363 303.914 407.793 304.091 408.129 304.446C408.483 304.8 408.661 305.23 408.661 305.734C408.661 306.238 408.483 306.667 408.129 307.022C407.793 307.376 407.363 307.554 406.841 307.554ZM418.549 295.682C420.043 295.962 421.265 296.606 422.217 297.614C423.169 298.622 423.645 299.9 423.645 301.45C423.645 303.354 422.992 304.856 421.685 305.958C420.379 307.059 418.792 307.61 416.925 307.61C415.432 307.61 414.107 307.274 412.949 306.602C411.792 305.911 410.971 304.922 410.485 303.634L412.669 302.346C413.248 304.156 414.667 305.062 416.925 305.062C418.139 305.062 419.128 304.744 419.893 304.11C420.659 303.475 421.041 302.588 421.041 301.45C421.041 300.311 420.659 299.424 419.893 298.79C419.128 298.136 418.139 297.81 416.925 297.81H416.253L415.217 296.214L419.753 290.082H411.045V287.646H422.805V289.942L418.549 295.682ZM428.959 287.646H431.199V307.246H428.623V290.446L424.451 291.678L423.807 289.438L428.959 287.646ZM441.683 295.682C443.177 295.962 444.399 296.606 445.351 297.614C446.303 298.622 446.779 299.9 446.779 301.45C446.779 303.354 446.126 304.856 444.819 305.958C443.513 307.059 441.926 307.61 440.059 307.61C438.566 307.61 437.241 307.274 436.083 306.602C434.926 305.911 434.105 304.922 433.619 303.634L435.803 302.346C436.382 304.156 437.801 305.062 440.059 305.062C441.273 305.062 442.262 304.744 443.027 304.11C443.793 303.475 444.175 302.588 444.175 301.45C444.175 300.311 443.793 299.424 443.027 298.79C442.262 298.136 441.273 297.81 440.059 297.81H439.387L438.351 296.214L442.887 290.082H434.179V287.646H445.939V289.942L441.683 295.682Z" fill="#030303"/>
<path d="M411.195 531.282C412.795 531.282 414.147 531.762 415.251 532.722C416.355 533.666 416.907 534.978 416.907 536.658C416.907 538.338 416.339 539.658 415.203 540.618C414.067 541.578 412.675 542.058 411.027 542.058C409.699 542.058 408.523 541.754 407.499 541.146C406.475 540.522 405.747 539.626 405.315 538.458L407.691 537.09C408.139 538.61 409.251 539.37 411.027 539.37C411.971 539.37 412.723 539.13 413.283 538.65C413.859 538.154 414.147 537.49 414.147 536.658C414.147 535.826 413.867 535.17 413.307 534.69C412.747 534.21 412.003 533.97 411.075 533.97H406.179L406.827 524.946H416.187V527.538H409.371L409.083 531.282H411.195Z" fill="white"/>
<path d="M415.69 618.795C417.338 619.707 418.162 621.067 418.162 622.875C418.162 624.411 417.626 625.627 416.554 626.523C415.482 627.403 414.058 627.843 412.282 627.843C410.506 627.843 409.074 627.403 407.986 626.523C406.914 625.627 406.378 624.411 406.378 622.875C406.378 622.011 406.594 621.227 407.026 620.523C407.458 619.803 408.066 619.227 408.85 618.795C407.586 617.963 406.954 616.779 406.954 615.243C406.954 613.707 407.466 612.523 408.49 611.691C409.514 610.843 410.778 610.419 412.282 610.419C413.77 610.419 415.026 610.843 416.05 611.691C417.09 612.523 417.61 613.707 417.61 615.243C417.61 616.779 416.97 617.963 415.69 618.795ZM412.282 613.035C411.53 613.035 410.914 613.235 410.434 613.635C409.954 614.035 409.714 614.611 409.714 615.363C409.714 616.083 409.954 616.651 410.434 617.067C410.93 617.483 411.546 617.691 412.282 617.691C413.002 617.691 413.61 617.483 414.106 617.067C414.602 616.651 414.85 616.083 414.85 615.363C414.85 614.611 414.602 614.035 414.106 613.635C413.626 613.235 413.018 613.035 412.282 613.035ZM412.282 625.227C413.21 625.227 413.962 625.003 414.538 624.555C415.114 624.091 415.402 623.443 415.402 622.611C415.402 621.779 415.114 621.139 414.538 620.691C413.962 620.227 413.21 619.995 412.282 619.995C411.338 619.995 410.578 620.227 410.002 620.691C409.426 621.139 409.138 621.779 409.138 622.611C409.138 623.443 409.426 624.091 410.002 624.555C410.578 625.003 411.338 625.227 412.282 625.227Z" fill="white"/>
<path d="M417.003 711.252C415.851 712.836 414.235 713.628 412.155 713.628C410.075 713.628 408.451 712.836 407.283 711.252C406.131 709.668 405.555 707.556 405.555 704.916C405.555 702.276 406.131 700.164 407.283 698.58C408.451 696.996 410.075 696.204 412.155 696.204C414.235 696.204 415.851 696.996 417.003 698.58C418.171 700.164 418.755 702.276 418.755 704.916C418.755 707.556 418.171 709.668 417.003 711.252ZM412.155 710.94C413.403 710.94 414.355 710.42 415.011 709.38C415.667 708.34 415.995 706.852 415.995 704.916C415.995 702.98 415.667 701.492 415.011 700.452C414.355 699.412 413.403 698.892 412.155 698.892C410.923 698.892 409.971 699.412 409.299 700.452C408.643 701.492 408.315 702.98 408.315 704.916C408.315 706.852 408.643 708.34 409.299 709.38C409.971 710.42 410.923 710.94 412.155 710.94Z" fill="white"/>
<path d="M520.445 713.316H517.301L513.605 707.244L509.909 713.316H506.765L512.045 704.676L507.077 696.516H510.197L513.605 702.108L517.013 696.516H520.157L515.189 704.676L520.445 713.316Z" fill="white"/>
<path d="M309.957 705.534C309.605 705.886 309.181 706.062 308.685 706.062C308.189 706.062 307.765 705.886 307.413 705.534C307.061 705.182 306.885 704.758 306.885 704.262C306.885 703.766 307.053 703.342 307.389 702.99C307.741 702.638 308.173 702.462 308.685 702.462C309.181 702.462 309.605 702.638 309.957 702.99C310.309 703.342 310.485 703.766 310.485 704.262C310.485 704.758 310.309 705.182 309.957 705.534Z" fill="white"/>
<path d="M515.365 446.025C516.581 446.313 517.565 446.881 518.317 447.729C519.085 448.561 519.469 449.609 519.469 450.873C519.469 452.553 518.901 453.873 517.765 454.833C516.629 455.793 515.237 456.273 513.589 456.273C512.309 456.273 511.157 455.977 510.133 455.385C509.125 454.793 508.397 453.929 507.949 452.793L510.301 451.425C510.797 452.865 511.893 453.585 513.589 453.585C514.549 453.585 515.309 453.345 515.869 452.865C516.429 452.369 516.709 451.705 516.709 450.873C516.709 450.041 516.429 449.385 515.869 448.905C515.309 448.425 514.549 448.185 513.589 448.185H512.965L511.861 446.529L515.485 441.753H508.453V439.161H518.773V441.513L515.365 446.025Z" fill="white"/>
<path d="M513.901 530.586C515.645 530.586 517.069 531.122 518.173 532.194C519.277 533.25 519.829 534.626 519.829 536.322C519.829 538.018 519.277 539.402 518.173 540.474C517.069 541.53 515.645 542.058 513.901 542.058C512.141 542.058 510.709 541.53 509.605 540.474C508.501 539.402 507.949 538.018 507.949 536.322C507.949 535.042 508.285 533.914 508.957 532.938L514.285 524.946H517.429L513.589 530.586H513.901ZM513.901 539.442C514.829 539.442 515.589 539.162 516.181 538.602C516.773 538.026 517.069 537.266 517.069 536.322C517.069 535.378 516.773 534.626 516.181 534.066C515.589 533.49 514.829 533.202 513.901 533.202C512.957 533.202 512.189 533.49 511.597 534.066C511.005 534.626 510.709 535.378 510.709 536.322C510.709 537.266 511.005 538.026 511.597 538.602C512.189 539.162 512.957 539.442 513.901 539.442Z" fill="white"/>
<path d="M519.829 616.155C519.829 617.435 519.493 618.563 518.821 619.539L513.517 627.531H510.349L514.189 621.891H513.901C512.157 621.891 510.725 621.363 509.605 620.307C508.501 619.235 507.949 617.851 507.949 616.155C507.949 614.459 508.501 613.083 509.605 612.027C510.725 610.955 512.157 610.419 513.901 610.419C515.645 610.419 517.069 610.955 518.173 612.027C519.277 613.083 519.829 614.459 519.829 616.155ZM510.709 616.155C510.709 617.083 511.005 617.835 511.597 618.411C512.205 618.987 512.973 619.275 513.901 619.275C514.829 619.275 515.589 618.995 516.181 618.435C516.773 617.859 517.069 617.099 517.069 616.155C517.069 615.211 516.773 614.459 516.181 613.899C515.589 613.323 514.829 613.035 513.901 613.035C512.973 613.035 512.205 613.323 511.597 613.899C511.005 614.459 510.709 615.211 510.709 616.155Z" fill="white"/>
<path d="M257.197 41.6987L251.698 47.1978" stroke="#030303" stroke-width="2" stroke-linecap="round" stroke-linejoin="round"/>
<path d="M251.698 47.1978L257.197 52.6968" stroke="#030303" stroke-width="2" stroke-linecap="round" stroke-linejoin="round"/>
<path d="M330.516 190.019L334.836 194.34" stroke="#030303" stroke-width="1.5" stroke-linecap="round" stroke-linejoin="round"/>
<path d="M334.836 194.34L339.157 190.019" stroke="#030303" stroke-width="1.5" stroke-linecap="round" stroke-linejoin="round"/>
<path d="M330.516 282.403L334.836 286.724" stroke="#030303" stroke-width="1.5" stroke-linecap="round" stroke-linejoin="round"/>
<path d="M334.836 286.724L339.157 282.403" stroke="#030303" stroke-width="1.5" stroke-linecap="round" stroke-linejoin="round"/>
<rect x="276.389" y="750.763" width="270.805" height="73.5298" rx="20" fill="#CDEB45"/>
<path d="M366.614 794.575H374.054V797.215H363.854V780.415H373.934V783.055H366.614V787.423H373.334V790.039H366.614V794.575ZM386.661 797.215H383.661L380.685 793.111L377.685 797.215H374.661L379.173 791.047L374.901 785.215H377.901L380.661 789.007L383.421 785.215H386.445L382.173 791.071L386.661 797.215ZM392.718 797.527C390.91 797.527 389.398 796.919 388.182 795.703C386.982 794.487 386.382 792.991 386.382 791.215C386.382 789.423 386.982 787.927 388.182 786.727C389.398 785.511 390.91 784.903 392.718 784.903C393.886 784.903 394.95 785.183 395.91 785.743C396.87 786.303 397.59 787.055 398.07 787.999L395.838 789.295C395.566 788.719 395.15 788.271 394.59 787.951C394.046 787.615 393.414 787.447 392.694 787.447C391.638 787.447 390.75 787.807 390.03 788.527C389.326 789.247 388.974 790.143 388.974 791.215C388.974 792.287 389.326 793.183 390.03 793.903C390.75 794.623 391.638 794.983 392.694 794.983C393.398 794.983 394.03 794.815 394.59 794.479C395.166 794.143 395.598 793.695 395.886 793.135L398.118 794.407C397.606 795.367 396.87 796.127 395.91 796.687C394.95 797.247 393.886 797.527 392.718 797.527ZM405.824 784.903C407.2 784.903 408.312 785.343 409.16 786.223C410.008 787.103 410.432 788.311 410.432 789.847V797.215H407.84V790.111C407.84 789.215 407.6 788.527 407.12 788.047C406.64 787.567 405.984 787.327 405.152 787.327C404.24 787.327 403.504 787.615 402.944 788.191C402.384 788.751 402.104 789.615 402.104 790.783V797.215H399.512V780.415H402.104V786.751C402.888 785.519 404.128 784.903 405.824 784.903ZM422.247 785.215H424.839V797.215H422.247V795.487C421.271 796.847 419.871 797.527 418.047 797.527C416.399 797.527 414.991 796.919 413.823 795.703C412.655 794.471 412.071 792.975 412.071 791.215C412.071 789.439 412.655 787.943 413.823 786.727C414.991 785.511 416.399 784.903 418.047 784.903C419.871 784.903 421.271 785.575 422.247 786.919V785.215ZM415.743 793.975C416.463 794.695 417.367 795.055 418.455 795.055C419.543 795.055 420.447 794.695 421.167 793.975C421.887 793.239 422.247 792.319 422.247 791.215C422.247 790.111 421.887 789.199 421.167 788.479C420.447 787.743 419.543 787.375 418.455 787.375C417.367 787.375 416.463 787.743 415.743 788.479C415.023 789.199 414.663 790.111 414.663 791.215C414.663 792.319 415.023 793.239 415.743 793.975ZM433.692 784.903C435.068 784.903 436.18 785.343 437.028 786.223C437.876 787.103 438.3 788.311 438.3 789.847V797.215H435.708V790.111C435.708 789.215 435.468 788.527 434.988 788.047C434.508 787.567 433.852 787.327 433.02 787.327C432.108 787.327 431.372 787.615 430.812 788.191C430.252 788.751 429.972 789.615 429.972 790.783V797.215H427.38V785.215H429.972V786.751C430.756 785.519 431.996 784.903 433.692 784.903ZM450.163 785.215H452.707V796.663C452.707 798.487 452.107 799.887 450.907 800.863C449.707 801.839 448.251 802.327 446.539 802.327C443.771 802.327 441.875 801.359 440.851 799.423L443.083 798.127C443.707 799.359 444.875 799.975 446.587 799.975C447.707 799.975 448.579 799.679 449.203 799.087C449.843 798.511 450.163 797.703 450.163 796.663V795.199C449.187 796.591 447.795 797.287 445.987 797.287C444.291 797.287 442.859 796.687 441.691 795.487C440.523 794.271 439.939 792.807 439.939 791.095C439.939 789.383 440.523 787.927 441.691 786.727C442.859 785.511 444.291 784.903 445.987 784.903C447.795 784.903 449.187 785.599 450.163 786.991V785.215ZM443.611 793.783C444.347 794.503 445.259 794.863 446.347 794.863C447.435 794.863 448.339 794.503 449.059 793.783C449.795 793.063 450.163 792.167 450.163 791.095C450.163 790.023 449.795 789.127 449.059 788.407C448.339 787.687 447.435 787.327 446.347 787.327C445.259 787.327 444.347 787.687 443.611 788.407C442.891 789.127 442.531 790.023 442.531 791.095C442.531 792.167 442.891 793.063 443.611 793.783ZM457.288 792.319C457.48 793.231 457.92 793.935 458.608 794.431C459.296 794.911 460.136 795.151 461.128 795.151C462.504 795.151 463.536 794.655 464.224 793.663L466.36 794.911C465.176 796.655 463.424 797.527 461.104 797.527C459.152 797.527 457.576 796.935 456.376 795.751C455.176 794.551 454.576 793.039 454.576 791.215C454.576 789.423 455.168 787.927 456.352 786.727C457.536 785.511 459.056 784.903 460.912 784.903C462.672 784.903 464.112 785.519 465.232 786.751C466.368 787.983 466.936 789.479 466.936 791.239C466.936 791.511 466.904 791.871 466.84 792.319H457.288ZM457.264 790.207H464.32C464.144 789.231 463.736 788.495 463.096 787.999C462.472 787.503 461.736 787.255 460.888 787.255C459.928 787.255 459.128 787.519 458.488 788.047C457.848 788.575 457.44 789.295 457.264 790.207Z" fill="#030303"/>
<path d="M406.01 378.057L413.08 385.127" stroke="#B2A8C7" stroke-width="2.5" stroke-linecap="round" stroke-linejoin="round"/>
<path d="M413.08 385.127L420.15 378.057" stroke="#B2A8C7" stroke-width="2.5" stroke-linecap="round" stroke-linejoin="round"/>
<line x1="266.962" y1="236.939" x2="518.661" y2="236.939" stroke="#EFEFEF" stroke-width="2"/>
<g filter="url(#filter7_b_44_447)">
<rect x="314.097" y="168.18" width="45.2491" height="45.2491" rx="15" transform="rotate(90 314.097 168.18)" fill="#FF7474"/>
</g>
<g filter="url(#filter8_b_44_447)">
<rect x="314.097" y="260.564" width="45.2491" height="45.2491" rx="15" transform="rotate(90 314.097 260.564)" fill="#B28CFF"/>
</g>
<path d="M298.312 187.147C298.11 184.822 296.112 184.025 293.583 183.78L293.613 180.558L291.651 180.54L291.622 183.677C291.107 183.672 290.58 183.678 290.056 183.683L290.086 180.525L288.125 180.507L288.095 183.728C287.67 183.733 287.253 183.737 286.847 183.734L286.846 183.724L284.142 183.698L284.123 185.792C284.123 185.792 285.571 185.778 285.547 185.804C286.341 185.812 286.596 186.276 286.667 186.674L286.633 190.345C286.688 190.346 286.76 190.349 286.841 190.361C286.775 190.36 286.705 190.359 286.633 190.359L286.585 195.501C286.548 195.751 286.398 196.148 285.843 196.144C285.868 196.166 284.417 196.13 284.417 196.13L284.005 198.469L286.558 198.493C287.033 198.498 287.5 198.51 287.959 198.517L287.93 201.776L289.889 201.794L289.918 198.57C290.456 198.586 290.977 198.595 291.485 198.599L291.455 201.809L293.416 201.827L293.446 198.574C296.746 198.415 299.061 197.606 299.376 194.512C299.63 192.021 298.468 190.897 296.601 190.431C297.743 189.862 298.463 188.849 298.313 187.147L298.312 187.147ZM295.504 194.09C295.482 196.525 291.315 196.21 289.986 196.199L290.026 191.881C291.356 191.894 295.527 191.55 295.504 194.09ZM294.648 187.99C294.627 190.205 291.152 189.915 290.044 189.904L290.081 185.989C291.188 185.999 294.669 185.679 294.648 187.99Z" fill="white"/>
<path fill-rule="evenodd" clip-rule="evenodd" d="M291.18 270.942L291.182 270.933L298.43 282.959L298.434 282.961L291.185 287.246V287.244L291.182 287.246L291.18 287.244V287.246L291.18 287.246V287.246L283.931 282.961L291.18 270.933V270.942ZM291.18 294.545V294.552L283.931 284.336L291.18 288.619V288.622L291.182 288.619L298.436 284.336L291.182 294.552L291.18 294.545Z" fill="white"/>
<g filter="url(#filter9_b_44_447)">
<rect x="552.598" y="215.315" width="45.2491" height="45.2491" rx="15" transform="rotate(90 552.598 215.315)" fill="#5C428F"/>
</g>
<g clip-path="url(#clip0_44_447)">
<path d="M537.285 244.627L535.285 246.627M535.285 246.627L533.285 244.627M535.285 246.627L535.285 232.627" stroke="white" stroke-width="2" stroke-linecap="round" stroke-linejoin="round"/>
<path d="M523.285 230.627L525.285 228.627M525.285 228.627L527.285 230.627M525.285 228.627L525.285 242.627" stroke="white" stroke-width="2" stroke-linecap="round" stroke-linejoin="round"/>
<path d="M531.285 228.627C533.494 228.627 535.285 230.418 535.285 232.627" stroke="white" stroke-width="2" stroke-linecap="round"/>
<path d="M529.285 246.627C527.076 246.627 525.285 244.836 525.285 242.627" stroke="white" stroke-width="2" stroke-linecap="round"/>
</g>
<defs>
<filter id="filter0_d_44_447" x="191" y="0" width="439.916" height="893" filterUnits="userSpaceOnUse" color-interpolation-filters="sRGB">
<feFlood flood-opacity="0" result="BackgroundImageFix"/>
<feColorMatrix in="SourceAlpha" type="matrix" values="0 0 0 0 0 0 0 0 0 0 0 0 0 0 0 0 0 0 127 0" result="hardAlpha"/>
<feOffset dy="9"/>
<feGaussianBlur stdDeviation="2"/>
<feComposite in2="hardAlpha" operator="out"/>
<feColorMatrix type="matrix" values="0 0 0 0 0 0 0 0 0 0 0 0 0 0 0 0 0 0 0.25 0"/>
<feBlend mode="normal" in2="BackgroundImageFix" result="effect1_dropShadow_44_447"/>
<feBlend mode="normal" in="SourceGraphic" in2="effect1_dropShadow_44_447" result="shape"/>
</filter>
<filter id="filter1_i_44_447" x="193.845" y="318.74" width="4.61921" height="65.8267" filterUnits="userSpaceOnUse" color-interpolation-filters="sRGB">
<feFlood flood-opacity="0" result="BackgroundImageFix"/>
<feBlend mode="normal" in="SourceGraphic" in2="BackgroundImageFix" result="shape"/>
<feColorMatrix in="SourceAlpha" type="matrix" values="0 0 0 0 0 0 0 0 0 0 0 0 0 0 0 0 0 0 127 0" result="hardAlpha"/>
<feOffset dx="-1.15486"/>
<feGaussianBlur stdDeviation="1.15486"/>
<feComposite in2="hardAlpha" operator="arithmetic" k2="-1" k3="1"/>
<feColorMatrix type="matrix" values="0 0 0 0 0 0 0 0 0 0 0 0 0 0 0 0 0 0 0.5 0"/>
<feBlend mode="normal" in2="shape" result="effect1_innerShadow_44_447"/>
</filter>
<filter id="filter2_i_44_447" x="193.845" y="233.281" width="4.61921" height="65.8267" filterUnits="userSpaceOnUse" color-interpolation-filters="sRGB">
<feFlood flood-opacity="0" result="BackgroundImageFix"/>
<feBlend mode="normal" in="SourceGraphic" in2="BackgroundImageFix" result="shape"/>
<feColorMatrix in="SourceAlpha" type="matrix" values="0 0 0 0 0 0 0 0 0 0 0 0 0 0 0 0 0 0 127 0" result="hardAlpha"/>
<feOffset dx="-1.15486"/>
<feGaussianBlur stdDeviation="1.15486"/>
<feComposite in2="hardAlpha" operator="arithmetic" k2="-1" k3="1"/>
<feColorMatrix type="matrix" values="0 0 0 0 0 0 0 0 0 0 0 0 0 0 0 0 0 0 0.5 0"/>
<feBlend mode="normal" in2="shape" result="effect1_innerShadow_44_447"/>
</filter>
<filter id="filter3_i_44_447" x="193.845" y="168.609" width="4.61921" height="33.4907" filterUnits="userSpaceOnUse" color-interpolation-filters="sRGB">
<feFlood flood-opacity="0" result="BackgroundImageFix"/>
<feBlend mode="normal" in="SourceGraphic" in2="BackgroundImageFix" result="shape"/>
<feColorMatrix in="SourceAlpha" type="matrix" values="0 0 0 0 0 0 0 0 0 0 0 0 0 0 0 0 0 0 127 0" result="hardAlpha"/>
<feOffset dx="-1.15486"/>
<feGaussianBlur stdDeviation="1.15486"/>
<feComposite in2="hardAlpha" operator="arithmetic" k2="-1" k3="1"/>
<feColorMatrix type="matrix" values="0 0 0 0 0 0 0 0 0 0 0 0 0 0 0 0 0 0 0.5 0"/>
<feBlend mode="normal" in2="shape" result="effect1_innerShadow_44_447"/>
</filter>
<filter id="filter4_i_44_447" x="622.297" y="279.475" width="4.61921" height="105.092" filterUnits="userSpaceOnUse" color-interpolation-filters="sRGB">
<feFlood flood-opacity="0" result="BackgroundImageFix"/>
<feBlend mode="normal" in="SourceGraphic" in2="BackgroundImageFix" result="shape"/>
<feColorMatrix in="SourceAlpha" type="matrix" values="0 0 0 0 0 0 0 0 0 0 0 0 0 0 0 0 0 0 127 0" result="hardAlpha"/>
<feOffset dx="-1.15486"/>
<feGaussianBlur stdDeviation="1.15486"/>
<feComposite in2="hardAlpha" operator="arithmetic" k2="-1" k3="1"/>
<feColorMatrix type="matrix" values="0 0 0 0 0 0 0 0 0 0 0 0 0 0 0 0 0 0 0.5 0"/>
<feBlend mode="normal" in2="shape" result="effect1_innerShadow_44_447"/>
</filter>
<filter id="filter5_b_44_447" x="393.206" y="54" width="162.779" height="89.249" filterUnits="userSpaceOnUse" color-interpolation-filters="sRGB">
<feFlood flood-opacity="0" result="BackgroundImageFix"/>
<feGaussianBlur in="BackgroundImageFix" stdDeviation="11"/>
<feComposite in2="SourceAlpha" operator="in" result="effect1_backgroundBlur_44_447"/>
<feBlend mode="normal" in="SourceGraphic" in2="effect1_backgroundBlur_44_447" result="shape"/>
</filter>
<filter id="filter6_b_44_447" x="265" y="54" width="162.779" height="89.249" filterUnits="userSpaceOnUse" color-interpolation-filters="sRGB">
<feFlood flood-opacity="0" result="BackgroundImageFix"/>
<feGaussianBlur in="BackgroundImageFix" stdDeviation="11"/>
<feComposite in2="SourceAlpha" operator="in" result="effect1_backgroundBlur_44_447"/>
<feBlend mode="normal" in="SourceGraphic" in2="effect1_backgroundBlur_44_447" result="shape"/>
</filter>
<filter id="filter7_b_44_447" x="246.848" y="146.18" width="89.249" height="89.249" filterUnits="userSpaceOnUse" color-interpolation-filters="sRGB">
<feFlood flood-opacity="0" result="BackgroundImageFix"/>
<feGaussianBlur in="BackgroundImageFix" stdDeviation="11"/>
<feComposite in2="SourceAlpha" operator="in" result="effect1_backgroundBlur_44_447"/>
<feBlend mode="normal" in="SourceGraphic" in2="effect1_backgroundBlur_44_447" result="shape"/>
</filter>
<filter id="filter8_b_44_447" x="246.848" y="238.564" width="89.249" height="89.249" filterUnits="userSpaceOnUse" color-interpolation-filters="sRGB">
<feFlood flood-opacity="0" result="BackgroundImageFix"/>
<feGaussianBlur in="BackgroundImageFix" stdDeviation="11"/>
<feComposite in2="SourceAlpha" operator="in" result="effect1_backgroundBlur_44_447"/>
<feBlend mode="normal" in="SourceGraphic" in2="effect1_backgroundBlur_44_447" result="shape"/>
</filter>
<filter id="filter9_b_44_447" x="485.349" y="193.315" width="89.249" height="89.2493" filterUnits="userSpaceOnUse" color-interpolation-filters="sRGB">
<feFlood flood-opacity="0" result="BackgroundImageFix"/>
<feGaussianBlur in="BackgroundImageFix" stdDeviation="11"/>
<feComposite in2="SourceAlpha" operator="in" result="effect1_backgroundBlur_44_447"/>
<feBlend mode="normal" in="SourceGraphic" in2="effect1_backgroundBlur_44_447" result="shape"/>
</filter>
<linearGradient id="paint0_linear_44_447" x1="410.958" y1="0" x2="410.958" y2="880" gradientUnits="userSpaceOnUse">
<stop stop-color="#B9ACAC"/>
<stop offset="0.181401" stop-color="#F7F0F0"/>
<stop offset="0.830125" stop-color="#F7F0F0"/>
<stop offset="1" stop-color="#534D4D"/>
</linearGradient>
<clipPath id="clip0_44_447">
<rect width="22.6246" height="22.6246" fill="white" transform="translate(541.285 226.627) rotate(90)"/>
</clipPath>
</defs>
</svg>
