<svg width="276" height="412" viewBox="0 0 276 412" fill="none" xmlns="http://www.w3.org/2000/svg">
<g filter="url(#filter0_d_10_32)">
<path d="M133.921 284V347.345H88.9206" stroke="#ABABAB"/>
<path d="M98.0996 372V369.784L103.277 364.99C103.717 364.564 104.087 364.18 104.385 363.839C104.688 363.499 104.918 363.165 105.074 362.838C105.23 362.507 105.308 362.149 105.308 361.766C105.308 361.339 105.211 360.973 105.017 360.665C104.823 360.352 104.558 360.113 104.222 359.947C103.886 359.777 103.504 359.692 103.078 359.692C102.633 359.692 102.245 359.782 101.913 359.962C101.582 360.142 101.326 360.4 101.146 360.736C100.967 361.072 100.877 361.472 100.877 361.936H97.9575C97.9575 360.984 98.173 360.158 98.6038 359.457C99.0347 358.757 99.6384 358.214 100.415 357.831C101.191 357.447 102.086 357.256 103.1 357.256C104.141 357.256 105.048 357.44 105.82 357.81C106.596 358.174 107.2 358.681 107.631 359.33C108.062 359.978 108.277 360.722 108.277 361.56C108.277 362.109 108.168 362.651 107.95 363.186C107.737 363.721 107.356 364.315 106.807 364.969C106.258 365.617 105.484 366.396 104.485 367.305L102.361 369.386V369.486H108.469V372H98.0996ZM116.4 372.32C115.179 372.315 114.128 372.014 113.247 371.418C112.371 370.821 111.696 369.957 111.223 368.825C110.754 367.694 110.522 366.332 110.527 364.741C110.527 363.155 110.761 361.804 111.23 360.686C111.703 359.569 112.378 358.719 113.254 358.136C114.135 357.549 115.183 357.256 116.4 357.256C117.617 357.256 118.664 357.549 119.54 358.136C120.42 358.723 121.097 359.576 121.571 360.693C122.044 361.806 122.279 363.155 122.274 364.741C122.274 366.337 122.037 367.701 121.564 368.832C121.095 369.964 120.423 370.828 119.547 371.425C118.671 372.021 117.622 372.32 116.4 372.32ZM116.4 369.77C117.234 369.77 117.899 369.351 118.396 368.513C118.893 367.675 119.139 366.418 119.135 364.741C119.135 363.638 119.021 362.72 118.794 361.986C118.571 361.252 118.254 360.7 117.842 360.331C117.435 359.962 116.954 359.777 116.4 359.777C115.572 359.777 114.909 360.191 114.412 361.02C113.915 361.848 113.664 363.089 113.659 364.741C113.659 365.859 113.77 366.792 113.993 367.54C114.22 368.283 114.54 368.842 114.951 369.216C115.363 369.585 115.846 369.77 116.4 369.77ZM132.428 369.273V368.506C132.428 367.923 132.552 367.388 132.798 366.901C133.049 366.408 133.411 366.015 133.884 365.722C134.363 365.423 134.945 365.274 135.632 365.274C136.328 365.274 136.912 365.421 137.386 365.714C137.864 366.008 138.224 366.401 138.465 366.893C138.712 367.381 138.835 367.919 138.835 368.506V369.273C138.835 369.855 138.712 370.393 138.465 370.885C138.219 371.373 137.857 371.763 137.379 372.057C136.9 372.355 136.318 372.504 135.632 372.504C134.936 372.504 134.351 372.355 133.877 372.057C133.404 371.763 133.044 371.373 132.798 370.885C132.552 370.393 132.428 369.855 132.428 369.273ZM134.495 368.506V369.273C134.495 369.609 134.576 369.926 134.737 370.224C134.902 370.523 135.201 370.672 135.632 370.672C136.062 370.672 136.356 370.525 136.512 370.232C136.673 369.938 136.754 369.618 136.754 369.273V368.506C136.754 368.16 136.678 367.838 136.526 367.54C136.375 367.241 136.077 367.092 135.632 367.092C135.205 367.092 134.909 367.241 134.744 367.54C134.578 367.838 134.495 368.16 134.495 368.506ZM124.964 360.949V360.182C124.964 359.595 125.089 359.057 125.34 358.57C125.591 358.077 125.954 357.684 126.427 357.391C126.905 357.097 127.483 356.95 128.16 356.95C128.861 356.95 129.448 357.097 129.921 357.391C130.395 357.684 130.755 358.077 131.001 358.57C131.247 359.057 131.37 359.595 131.37 360.182V360.949C131.37 361.536 131.245 362.073 130.994 362.561C130.748 363.049 130.385 363.439 129.907 363.733C129.434 364.022 128.851 364.166 128.16 364.166C127.469 364.166 126.884 364.019 126.406 363.726C125.932 363.428 125.572 363.037 125.326 362.554C125.085 362.066 124.964 361.531 124.964 360.949ZM127.045 360.182V360.949C127.045 361.295 127.125 361.614 127.286 361.908C127.452 362.201 127.743 362.348 128.16 362.348C128.596 362.348 128.891 362.201 129.048 361.908C129.209 361.614 129.289 361.295 129.289 360.949V360.182C129.289 359.836 129.213 359.514 129.062 359.216C128.91 358.918 128.61 358.768 128.16 358.768C127.739 358.768 127.447 358.92 127.286 359.223C127.125 359.526 127.045 359.846 127.045 360.182ZM125.901 372L135.901 357.455H137.762L127.762 372H125.901ZM144.412 372V363.273H147.356C147.924 363.273 148.398 363.372 148.775 363.571C149.156 363.77 149.442 364.041 149.632 364.385C149.822 364.729 149.917 365.119 149.917 365.557C149.917 365.92 149.856 366.232 149.734 366.49C149.612 366.749 149.446 366.957 149.236 367.116C149.025 367.276 148.791 367.391 148.532 367.462V367.53C148.814 367.55 149.086 367.649 149.351 367.828C149.615 368.004 149.832 368.251 150.003 368.57C150.173 368.888 150.258 369.268 150.258 369.712C150.258 370.152 150.16 370.545 149.964 370.892C149.768 371.236 149.467 371.507 149.061 371.706C148.657 371.902 148.143 372 147.518 372H144.412ZM145.209 371.284H147.518C148.192 371.284 148.689 371.135 149.01 370.837C149.334 370.538 149.496 370.163 149.496 369.712C149.496 369.379 149.415 369.078 149.253 368.808C149.094 368.536 148.868 368.32 148.575 368.161C148.285 368.001 147.944 367.922 147.552 367.922H145.209V371.284ZM145.209 367.214H147.429C147.773 367.214 148.074 367.143 148.332 367.001C148.591 366.859 148.792 366.663 148.937 366.413C149.082 366.163 149.155 365.878 149.155 365.557C149.155 365.094 149.004 364.717 148.703 364.428C148.402 364.135 147.953 363.989 147.356 363.989H145.209V367.214ZM156.183 369.499V365.455H156.941V372H156.183V370.913H156.123C155.97 371.249 155.727 371.528 155.394 371.753C155.062 371.974 154.656 372.085 154.176 372.085C153.758 372.085 153.387 371.994 153.063 371.812C152.739 371.628 152.485 371.358 152.301 371.003C152.116 370.648 152.024 370.212 152.024 369.695V365.455H152.782V369.648C152.782 370.159 152.933 370.571 153.234 370.884C153.535 371.193 153.921 371.348 154.393 371.348C154.688 371.348 154.972 371.277 155.245 371.135C155.518 370.993 155.742 370.786 155.918 370.513C156.095 370.237 156.183 369.899 156.183 369.499ZM158.949 372V365.455H159.687V366.46H159.742C159.873 366.131 160.1 365.865 160.424 365.663C160.75 365.459 161.12 365.357 161.532 365.357C161.594 365.357 161.664 365.358 161.741 365.361C161.817 365.364 161.881 365.366 161.932 365.369V366.141C161.898 366.135 161.839 366.126 161.753 366.115C161.668 366.104 161.576 366.098 161.476 366.098C161.135 366.098 160.831 366.17 160.564 366.315C160.3 366.457 160.091 366.655 159.938 366.908C159.785 367.161 159.708 367.449 159.708 367.773V372H158.949ZM163.985 367.909V372H163.227V365.455H163.964V366.482H164.032C164.186 366.146 164.424 365.878 164.748 365.676C165.075 365.472 165.478 365.369 165.958 365.369C166.399 365.369 166.785 365.462 167.117 365.646C167.453 365.828 167.712 366.097 167.897 366.452C168.085 366.807 168.178 367.243 168.178 367.76V372H167.42V367.807C167.42 367.27 167.269 366.845 166.968 366.533C166.67 366.22 166.269 366.064 165.766 366.064C165.423 366.064 165.117 366.138 164.85 366.286C164.583 366.433 164.372 366.646 164.215 366.925C164.062 367.2 163.985 367.528 163.985 367.909Z" fill="#656565"/>
</g>
<g filter="url(#filter1_d_10_32)">
<path d="M201.921 92V62H100.921" stroke="#BA48FF"/>
<path d="M105.412 56.1989C104.408 56.1989 103.513 56.0142 102.727 55.6449C101.946 55.2756 101.326 54.7666 100.867 54.1179C100.407 53.4692 100.168 52.7259 100.149 51.8878H103.132C103.165 52.4512 103.402 52.9081 103.842 53.2585C104.283 53.6089 104.806 53.7841 105.412 53.7841C105.895 53.7841 106.321 53.6776 106.69 53.4645C107.065 53.2467 107.356 52.946 107.564 52.5625C107.777 52.1742 107.884 51.7292 107.884 51.2273C107.884 50.7159 107.775 50.2661 107.557 49.8778C107.344 49.4896 107.048 49.1866 106.669 48.9688C106.29 48.7509 105.857 48.6397 105.369 48.6349C104.943 48.6349 104.529 48.7225 104.127 48.8977C103.729 49.0729 103.419 49.312 103.196 49.6151L100.462 49.125L101.151 41.4545H110.043V43.9688H103.686L103.31 47.6122H103.395C103.651 47.2524 104.037 46.9541 104.553 46.7173C105.069 46.4806 105.646 46.3622 106.286 46.3622C107.162 46.3622 107.943 46.5682 108.629 46.9801C109.316 47.392 109.858 47.9579 110.256 48.6776C110.654 49.3925 110.85 50.2164 110.845 51.1491C110.85 52.1293 110.623 53.0005 110.163 53.7628C109.709 54.5204 109.072 55.117 108.253 55.5526C107.439 55.9834 106.492 56.1989 105.412 56.1989ZM120.952 53.2727V52.5057C120.952 51.9233 121.075 51.3883 121.321 50.9006C121.572 50.4081 121.934 50.0152 122.408 49.7216C122.886 49.4233 123.468 49.2741 124.155 49.2741C124.851 49.2741 125.436 49.4209 125.909 49.7145C126.387 50.008 126.747 50.401 126.989 50.8935C127.235 51.3812 127.358 51.9186 127.358 52.5057V53.2727C127.358 53.8551 127.235 54.3925 126.989 54.8849C126.743 55.3726 126.38 55.7633 125.902 56.0568C125.424 56.3551 124.842 56.5043 124.155 56.5043C123.459 56.5043 122.874 56.3551 122.401 56.0568C121.927 55.7633 121.567 55.3726 121.321 54.8849C121.075 54.3925 120.952 53.8551 120.952 53.2727ZM123.019 52.5057V53.2727C123.019 53.6089 123.099 53.9261 123.26 54.2244C123.426 54.5227 123.724 54.6719 124.155 54.6719C124.586 54.6719 124.879 54.5251 125.036 54.2315C125.197 53.938 125.277 53.6184 125.277 53.2727V52.5057C125.277 52.16 125.201 51.8381 125.05 51.5398C124.898 51.2415 124.6 51.0923 124.155 51.0923C123.729 51.0923 123.433 51.2415 123.267 51.5398C123.101 51.8381 123.019 52.16 123.019 52.5057ZM113.487 44.9489V44.1818C113.487 43.5947 113.613 43.0573 113.864 42.5696C114.115 42.0772 114.477 41.6842 114.95 41.3906C115.429 41.0971 116.006 40.9503 116.683 40.9503C117.384 40.9503 117.971 41.0971 118.445 41.3906C118.918 41.6842 119.278 42.0772 119.524 42.5696C119.77 43.0573 119.894 43.5947 119.894 44.1818V44.9489C119.894 45.536 119.768 46.0734 119.517 46.5611C119.271 47.0488 118.909 47.4394 118.431 47.733C117.957 48.0218 117.375 48.1662 116.683 48.1662C115.992 48.1662 115.407 48.0194 114.929 47.7259C114.456 47.4276 114.096 47.0369 113.85 46.554C113.608 46.0663 113.487 45.5312 113.487 44.9489ZM115.568 44.1818V44.9489C115.568 45.2945 115.649 45.6141 115.81 45.9077C115.976 46.2012 116.267 46.348 116.683 46.348C117.119 46.348 117.415 46.2012 117.571 45.9077C117.732 45.6141 117.813 45.2945 117.813 44.9489V44.1818C117.813 43.8362 117.737 43.5142 117.585 43.2159C117.434 42.9176 117.133 42.7685 116.683 42.7685C116.262 42.7685 115.971 42.92 115.81 43.223C115.649 43.526 115.568 43.8456 115.568 44.1818ZM114.425 56L124.425 41.4545H126.286L116.286 56H114.425ZM135.492 56H132.935V47.2727H135.645C136.478 47.2727 137.189 47.446 137.78 47.7926C138.374 48.1392 138.829 48.6364 139.144 49.2841C139.459 49.9318 139.617 50.7088 139.617 51.6151C139.617 52.5298 139.455 53.3153 139.131 53.9716C138.81 54.625 138.341 55.1264 137.725 55.4759C137.111 55.8253 136.367 56 135.492 56ZM133.732 55.2841H135.445C136.195 55.2841 136.823 55.1364 137.329 54.8409C137.834 54.5455 138.214 54.1236 138.466 53.5753C138.719 53.027 138.846 52.3736 138.846 51.6151C138.843 50.8622 138.718 50.2145 138.471 49.6719C138.226 49.1293 137.863 48.7131 137.38 48.4233C136.9 48.1335 136.306 47.9886 135.599 47.9886H133.732V55.2841ZM144.037 56.1364C143.426 56.1364 142.898 55.9943 142.452 55.7102C142.006 55.4233 141.661 55.027 141.416 54.5213C141.175 54.0128 141.054 53.4276 141.054 52.7656C141.054 52.1065 141.175 51.5213 141.416 51.0099C141.661 50.4957 141.997 50.0937 142.426 49.804C142.858 49.5114 143.357 49.3651 143.922 49.3651C144.277 49.3651 144.619 49.4304 144.949 49.5611C145.279 49.6889 145.574 49.8864 145.835 50.1534C146.1 50.4176 146.308 50.7514 146.462 51.1548C146.615 51.5554 146.692 52.0298 146.692 52.5781V52.9531H141.578V52.2841H145.916C145.916 51.8636 145.831 51.4858 145.661 51.1506C145.493 50.8125 145.259 50.5455 144.958 50.3494C144.659 50.1534 144.314 50.0554 143.922 50.0554C143.507 50.0554 143.142 50.1662 142.827 50.3878C142.512 50.6094 142.264 50.902 142.085 51.2656C141.909 51.6293 141.82 52.027 141.817 52.4588V52.8594C141.817 53.3793 141.906 53.8338 142.085 54.223C142.267 54.6094 142.524 54.9091 142.857 55.1222C143.189 55.3352 143.583 55.4418 144.037 55.4418C144.347 55.4418 144.618 55.3935 144.851 55.2969C145.087 55.2003 145.284 55.071 145.443 54.9091C145.605 54.7443 145.727 54.5639 145.81 54.3679L146.53 54.6023C146.431 54.8778 146.267 55.1321 146.04 55.3651C145.815 55.598 145.534 55.7855 145.196 55.9276C144.861 56.0668 144.475 56.1364 144.037 56.1364ZM153.231 49.4545L150.84 56H150.031L147.64 49.4545H148.462L150.406 54.9986H150.465L152.409 49.4545H153.231ZM157.127 56.1364C156.516 56.1364 155.988 55.9943 155.542 55.7102C155.096 55.4233 154.75 55.027 154.506 54.5213C154.265 54.0128 154.144 53.4276 154.144 52.7656C154.144 52.1065 154.265 51.5213 154.506 51.0099C154.75 50.4957 155.087 50.0937 155.516 49.804C155.948 49.5114 156.447 49.3651 157.012 49.3651C157.367 49.3651 157.709 49.4304 158.039 49.5611C158.368 49.6889 158.664 49.8864 158.925 50.1534C159.189 50.4176 159.398 50.7514 159.552 51.1548C159.705 51.5554 159.782 52.0298 159.782 52.5781V52.9531H154.668V52.2841H159.006C159.006 51.8636 158.921 51.4858 158.75 51.1506C158.583 50.8125 158.349 50.5455 158.047 50.3494C157.749 50.1534 157.404 50.0554 157.012 50.0554C156.597 50.0554 156.232 50.1662 155.917 50.3878C155.601 50.6094 155.354 50.902 155.175 51.2656C154.999 51.6293 154.91 52.027 154.907 52.4588V52.8594C154.907 53.3793 154.996 53.8338 155.175 54.223C155.357 54.6094 155.614 54.9091 155.947 55.1222C156.279 55.3352 156.672 55.4418 157.127 55.4418C157.437 55.4418 157.708 55.3935 157.941 55.2969C158.177 55.2003 158.374 55.071 158.533 54.9091C158.695 54.7443 158.817 54.5639 158.9 54.3679L159.62 54.6023C159.52 54.8778 159.357 55.1321 159.13 55.3651C158.905 55.598 158.624 55.7855 158.286 55.9276C157.951 56.0668 157.564 56.1364 157.127 56.1364ZM162.212 47.2727V56H161.453V47.2727H162.212ZM166.763 56.1364C166.198 56.1364 165.698 55.9929 165.263 55.706C164.831 55.419 164.493 55.0227 164.249 54.517C164.004 54.0085 163.882 53.4219 163.882 52.7571C163.882 52.0866 164.004 51.4972 164.249 50.9886C164.493 50.4773 164.831 50.0795 165.263 49.7955C165.698 49.5085 166.198 49.3651 166.763 49.3651C167.328 49.3651 167.827 49.5085 168.259 49.7955C168.69 50.0824 169.029 50.4801 169.273 50.9886C169.52 51.4972 169.644 52.0866 169.644 52.7571C169.644 53.4219 169.521 54.0085 169.277 54.517C169.033 55.0227 168.693 55.419 168.259 55.706C167.827 55.9929 167.328 56.1364 166.763 56.1364ZM166.763 55.4418C167.217 55.4418 167.602 55.3196 167.918 55.0753C168.233 54.831 168.472 54.5057 168.634 54.0994C168.798 53.6932 168.881 53.2457 168.881 52.7571C168.881 52.2685 168.798 51.8196 168.634 51.4105C168.472 51.0014 168.233 50.6733 167.918 50.4261C167.602 50.179 167.217 50.0554 166.763 50.0554C166.311 50.0554 165.926 50.179 165.608 50.4261C165.293 50.6733 165.053 51.0014 164.888 51.4105C164.726 51.8196 164.645 52.2685 164.645 52.7571C164.645 53.2457 164.726 53.6932 164.888 54.0994C165.053 54.5057 165.293 54.831 165.608 55.0753C165.923 55.3196 166.308 55.4418 166.763 55.4418ZM171.309 58.4545V49.4545H172.046V50.7031H172.135C172.226 50.5071 172.351 50.3068 172.51 50.1023C172.67 49.8949 172.88 49.7202 173.141 49.5781C173.405 49.4361 173.738 49.3651 174.138 49.3651C174.678 49.3651 175.15 49.5071 175.553 49.7912C175.959 50.0724 176.275 50.4673 176.499 50.9759C176.726 51.4815 176.84 52.071 176.84 52.7443C176.84 53.4205 176.726 54.0128 176.499 54.5213C176.275 55.0298 175.959 55.4261 175.553 55.7102C175.15 55.9943 174.681 56.1364 174.147 56.1364C173.752 56.1364 173.421 56.0653 173.154 55.9233C172.89 55.7812 172.675 55.6065 172.51 55.3991C172.349 55.1889 172.224 54.9844 172.135 54.7855H172.067V58.4545H171.309ZM172.059 52.7315C172.059 53.2599 172.137 53.7287 172.293 54.1378C172.452 54.544 172.679 54.8636 172.975 55.0966C173.273 55.3267 173.634 55.4418 174.057 55.4418C174.492 55.4418 174.858 55.3224 175.157 55.0838C175.458 54.8423 175.687 54.517 175.843 54.108C176.002 53.6989 176.081 53.2401 176.081 52.7315C176.081 52.2287 176.003 51.7756 175.847 51.3722C175.694 50.9687 175.466 50.6491 175.165 50.4134C174.864 50.1747 174.495 50.0554 174.057 50.0554C173.631 50.0554 173.269 50.1705 172.971 50.4006C172.672 50.6278 172.445 50.9432 172.289 51.3466C172.135 51.7472 172.059 52.2088 172.059 52.7315ZM181.15 56.1364C180.54 56.1364 180.011 55.9943 179.565 55.7102C179.119 55.4233 178.774 55.027 178.53 54.5213C178.288 54.0128 178.167 53.4276 178.167 52.7656C178.167 52.1065 178.288 51.5213 178.53 51.0099C178.774 50.4957 179.111 50.0937 179.54 49.804C179.971 49.5114 180.47 49.3651 181.035 49.3651C181.39 49.3651 181.733 49.4304 182.062 49.5611C182.392 49.6889 182.687 49.8864 182.949 50.1534C183.213 50.4176 183.422 50.7514 183.575 51.1548C183.728 51.5554 183.805 52.0298 183.805 52.5781V52.9531H178.692V52.2841H183.03C183.03 51.8636 182.944 51.4858 182.774 51.1506C182.606 50.8125 182.372 50.5455 182.071 50.3494C181.773 50.1534 181.427 50.0554 181.035 50.0554C180.621 50.0554 180.255 50.1662 179.94 50.3878C179.625 50.6094 179.378 50.902 179.199 51.2656C179.023 51.6293 178.933 52.027 178.93 52.4588V52.8594C178.93 53.3793 179.02 53.8338 179.199 54.223C179.38 54.6094 179.638 54.9091 179.97 55.1222C180.302 55.3352 180.696 55.4418 181.15 55.4418C181.46 55.4418 181.731 55.3935 181.964 55.2969C182.2 55.2003 182.398 55.071 182.557 54.9091C182.719 54.7443 182.841 54.5639 182.923 54.3679L183.643 54.6023C183.544 54.8778 183.38 55.1321 183.153 55.3651C182.929 55.598 182.648 55.7855 182.309 55.9276C181.974 56.0668 181.588 56.1364 181.15 56.1364ZM185.477 56V49.4545H186.214V50.4602H186.269C186.4 50.1307 186.627 49.8651 186.951 49.6634C187.278 49.4588 187.647 49.3565 188.059 49.3565C188.122 49.3565 188.191 49.358 188.268 49.3608C188.345 49.3636 188.409 49.3665 188.46 49.3693V50.1406C188.426 50.1349 188.366 50.1264 188.281 50.1151C188.195 50.1037 188.103 50.098 188.004 50.098C187.663 50.098 187.359 50.1705 187.092 50.3153C186.828 50.4574 186.619 50.6548 186.465 50.9077C186.312 51.1605 186.235 51.4489 186.235 51.7727V56H185.477Z" fill="#656565"/>
</g>
<g filter="url(#filter2_d_10_32)">
<path d="M44 249V283H89" stroke="#782EFF"/>
<path d="M35.2499 292.455V307H32.1746V295.374H32.0894L28.7584 297.462V294.734L32.3593 292.455H35.2499ZM44.41 307.32C43.1885 307.315 42.1373 307.014 41.2566 306.418C40.3807 305.821 39.706 304.957 39.2325 303.825C38.7637 302.694 38.5317 301.332 38.5365 299.741C38.5365 298.155 38.7708 296.804 39.2396 295.686C39.7131 294.569 40.3878 293.719 41.2637 293.136C42.1444 292.549 43.1932 292.256 44.41 292.256C45.6269 292.256 46.6733 292.549 47.5492 293.136C48.4299 293.723 49.107 294.576 49.5805 295.693C50.054 296.806 50.2884 298.155 50.2836 299.741C50.2836 301.337 50.0469 302.701 49.5734 303.832C49.1046 304.964 48.4323 305.828 47.5563 306.425C46.6804 307.021 45.6316 307.32 44.41 307.32ZM44.41 304.77C45.2434 304.77 45.9086 304.351 46.4058 303.513C46.9029 302.675 47.1492 301.418 47.1444 299.741C47.1444 298.638 47.0308 297.72 46.8035 296.986C46.581 296.252 46.2637 295.7 45.8518 295.331C45.4446 294.962 44.964 294.777 44.41 294.777C43.5814 294.777 42.9186 295.191 42.4214 296.02C41.9242 296.848 41.6733 298.089 41.6686 299.741C41.6686 300.859 41.7798 301.792 42.0024 302.54C42.2296 303.283 42.5492 303.842 42.9612 304.216C43.3731 304.585 43.8561 304.77 44.41 304.77ZM60.4381 304.273V303.506C60.4381 302.923 60.5612 302.388 60.8074 301.901C61.0584 301.408 61.4206 301.015 61.8941 300.722C62.3723 300.423 62.9547 300.274 63.6412 300.274C64.3372 300.274 64.922 300.421 65.3955 300.714C65.8737 301.008 66.2336 301.401 66.475 301.893C66.7212 302.381 66.8443 302.919 66.8443 303.506V304.273C66.8443 304.855 66.7212 305.393 66.475 305.885C66.2288 306.373 65.8666 306.763 65.3884 307.057C64.9102 307.355 64.3278 307.504 63.6412 307.504C62.9452 307.504 62.3604 307.355 61.887 307.057C61.4135 306.763 61.0536 306.373 60.8074 305.885C60.5612 305.393 60.4381 304.855 60.4381 304.273ZM62.5049 303.506V304.273C62.5049 304.609 62.5853 304.926 62.7463 305.224C62.9121 305.523 63.2103 305.672 63.6412 305.672C64.0721 305.672 64.3657 305.525 64.5219 305.232C64.6829 304.938 64.7634 304.618 64.7634 304.273V303.506C64.7634 303.16 64.6876 302.838 64.5361 302.54C64.3846 302.241 64.0863 302.092 63.6412 302.092C63.2151 302.092 62.9192 302.241 62.7534 302.54C62.5877 302.838 62.5049 303.16 62.5049 303.506ZM52.9736 295.949V295.182C52.9736 294.595 53.0991 294.057 53.35 293.57C53.601 293.077 53.9632 292.684 54.4367 292.391C54.9149 292.097 55.4925 291.95 56.1696 291.95C56.8704 291.95 57.4575 292.097 57.931 292.391C58.4045 292.684 58.7643 293.077 59.0105 293.57C59.2568 294.057 59.3799 294.595 59.3799 295.182V295.949C59.3799 296.536 59.2544 297.073 59.0034 297.561C58.7572 298.049 58.395 298.439 57.9168 298.733C57.4433 299.022 56.8609 299.166 56.1696 299.166C55.4783 299.166 54.8936 299.019 54.4154 298.726C53.9419 298.428 53.582 298.037 53.3358 297.554C53.0943 297.066 52.9736 296.531 52.9736 295.949ZM55.0546 295.182V295.949C55.0546 296.295 55.1351 296.614 55.296 296.908C55.4618 297.201 55.753 297.348 56.1696 297.348C56.6052 297.348 56.9012 297.201 57.0574 296.908C57.2184 296.614 57.2989 296.295 57.2989 295.949V295.182C57.2989 294.836 57.2231 294.514 57.0716 294.216C56.9201 293.918 56.6194 293.768 56.1696 293.768C55.7482 293.768 55.457 293.92 55.296 294.223C55.1351 294.526 55.0546 294.846 55.0546 295.182ZM53.9111 307L63.9111 292.455H65.7719L55.7719 307H53.9111ZM72.4214 307V298.273H75.2382C75.8575 298.273 76.3745 298.385 76.7893 298.609C77.2069 298.831 77.5208 299.139 77.7311 299.534C77.9441 299.926 78.0507 300.376 78.0507 300.885C78.0507 301.393 77.9441 301.842 77.7311 302.232C77.5208 302.621 77.2083 302.925 76.7936 303.143C76.3788 303.362 75.8646 303.472 75.251 303.472H72.8518V302.743H75.2296C75.6842 302.743 76.062 302.668 76.3632 302.517C76.6671 302.366 76.893 302.152 77.0407 301.874C77.1913 301.595 77.2666 301.266 77.2666 300.885C77.2666 300.504 77.1913 300.172 77.0407 299.888C76.8902 299.601 76.6629 299.379 76.3589 299.223C76.0578 299.067 75.6771 298.989 75.2169 298.989H73.2183V307H72.4214ZM76.2694 303.062L78.4171 307H77.4967L75.3703 303.062H76.2694ZM82.41 307.136C81.7992 307.136 81.2708 306.994 80.8248 306.71C80.3788 306.423 80.0336 306.027 79.7893 305.521C79.5478 305.013 79.4271 304.428 79.4271 303.766C79.4271 303.107 79.5478 302.521 79.7893 302.01C80.0336 301.496 80.3703 301.094 80.7992 300.804C81.2311 300.511 81.7296 300.365 82.295 300.365C82.6501 300.365 82.9924 300.43 83.322 300.561C83.6515 300.689 83.947 300.886 84.2083 301.153C84.4725 301.418 84.6813 301.751 84.8348 302.155C84.9882 302.555 85.0649 303.03 85.0649 303.578V303.953H79.9512V303.284H84.2893C84.2893 302.864 84.2041 302.486 84.0336 302.151C83.866 301.812 83.6316 301.545 83.3305 301.349C83.0322 301.153 82.687 301.055 82.295 301.055C81.8802 301.055 81.5152 301.166 81.1998 301.388C80.8845 301.609 80.6373 301.902 80.4583 302.266C80.2822 302.629 80.1927 303.027 80.1899 303.459V303.859C80.1899 304.379 80.2794 304.834 80.4583 305.223C80.6402 305.609 80.8973 305.909 81.2296 306.122C81.562 306.335 81.9555 306.442 82.41 306.442C82.7197 306.442 82.991 306.393 83.224 306.297C83.4598 306.2 83.6572 306.071 83.8163 305.909C83.9782 305.744 84.1004 305.564 84.1828 305.368L84.9029 305.602C84.8035 305.878 84.6402 306.132 84.4129 306.365C84.1885 306.598 83.9072 306.786 83.5691 306.928C83.2339 307.067 82.8475 307.136 82.41 307.136ZM91.1341 301.891L90.4395 302.087C90.3713 301.891 90.2747 301.713 90.1497 301.554C90.0247 301.395 89.8614 301.268 89.6597 301.175C89.4608 301.081 89.2137 301.034 88.9182 301.034C88.475 301.034 88.1114 301.139 87.8273 301.349C87.5432 301.56 87.4012 301.831 87.4012 302.163C87.4012 302.445 87.4978 302.673 87.6909 302.849C87.887 303.023 88.1881 303.161 88.5943 303.263L89.583 303.506C90.1313 303.639 90.5418 303.851 90.8145 304.141C91.0901 304.43 91.2279 304.794 91.2279 305.232C91.2279 305.601 91.1256 305.929 90.921 306.216C90.7165 306.503 90.431 306.729 90.0645 306.893C89.7009 307.055 89.279 307.136 88.7989 307.136C88.1597 307.136 87.6327 306.993 87.2179 306.706C86.8032 306.416 86.5375 305.999 86.421 305.453L87.1497 305.274C87.2435 305.663 87.4267 305.957 87.6995 306.156C87.975 306.355 88.3372 306.455 88.7861 306.455C89.2889 306.455 89.6909 306.342 89.9921 306.118C90.2932 305.891 90.4438 305.607 90.4438 305.266C90.4438 305.001 90.3557 304.78 90.1796 304.601C90.0034 304.419 89.7364 304.286 89.3784 304.2L88.3088 303.945C87.7407 303.808 87.3202 303.592 87.0475 303.297C86.7747 303.001 86.6384 302.635 86.6384 302.197C86.6384 301.837 86.7364 301.52 86.9324 301.247C87.1284 300.972 87.3983 300.756 87.7421 300.599C88.0858 300.443 88.4779 300.365 88.9182 300.365C89.5176 300.365 89.9963 300.501 90.3543 300.774C90.7151 301.044 90.975 301.416 91.1341 301.891ZM95.535 307.136C94.9242 307.136 94.3958 306.994 93.9498 306.71C93.5038 306.423 93.1586 306.027 92.9143 305.521C92.6728 305.013 92.5521 304.428 92.5521 303.766C92.5521 303.107 92.6728 302.521 92.9143 302.01C93.1586 301.496 93.4953 301.094 93.9242 300.804C94.3561 300.511 94.8546 300.365 95.42 300.365C95.7751 300.365 96.1174 300.43 96.447 300.561C96.7765 300.689 97.072 300.886 97.3333 301.153C97.5975 301.418 97.8063 301.751 97.9598 302.155C98.1132 302.555 98.1899 303.03 98.1899 303.578V303.953H93.0762V303.284H97.4143C97.4143 302.864 97.3291 302.486 97.1586 302.151C96.991 301.812 96.7566 301.545 96.4555 301.349C96.1572 301.153 95.812 301.055 95.42 301.055C95.0052 301.055 94.6402 301.166 94.3248 301.388C94.0095 301.609 93.7623 301.902 93.5833 302.266C93.4072 302.629 93.3177 303.027 93.3149 303.459V303.859C93.3149 304.379 93.4044 304.834 93.5833 305.223C93.7652 305.609 94.0223 305.909 94.3546 306.122C94.687 306.335 95.0805 306.442 95.535 306.442C95.8447 306.442 96.116 306.393 96.349 306.297C96.5848 306.2 96.7822 306.071 96.9413 305.909C97.1032 305.744 97.2254 305.564 97.3078 305.368L98.0279 305.602C97.9285 305.878 97.7652 306.132 97.5379 306.365C97.3135 306.598 97.0322 306.786 96.6941 306.928C96.3589 307.067 95.9725 307.136 95.535 307.136ZM99.8614 307V300.455H100.599V301.46H100.654C100.785 301.131 101.012 300.865 101.336 300.663C101.663 300.459 102.032 300.357 102.444 300.357C102.506 300.357 102.576 300.358 102.653 300.361C102.729 300.364 102.793 300.366 102.844 300.369V301.141C102.81 301.135 102.751 301.126 102.665 301.115C102.58 301.104 102.488 301.098 102.388 301.098C102.047 301.098 101.743 301.17 101.476 301.315C101.212 301.457 101.003 301.655 100.85 301.908C100.697 302.161 100.62 302.449 100.62 302.773V307H99.8614ZM109.405 300.455L107.014 307H106.204L103.814 300.455H104.636L106.579 305.999H106.639L108.582 300.455H109.405ZM113.301 307.136C112.69 307.136 112.161 306.994 111.715 306.71C111.269 306.423 110.924 306.027 110.68 305.521C110.438 305.013 110.318 304.428 110.318 303.766C110.318 303.107 110.438 302.521 110.68 302.01C110.924 301.496 111.261 301.094 111.69 300.804C112.122 300.511 112.62 300.365 113.186 300.365C113.541 300.365 113.883 300.43 114.213 300.561C114.542 300.689 114.838 300.886 115.099 301.153C115.363 301.418 115.572 301.751 115.725 302.155C115.879 302.555 115.955 303.03 115.955 303.578V303.953H110.842V303.284H115.18C115.18 302.864 115.095 302.486 114.924 302.151C114.757 301.812 114.522 301.545 114.221 301.349C113.923 301.153 113.578 301.055 113.186 301.055C112.771 301.055 112.406 301.166 112.09 301.388C111.775 301.609 111.528 301.902 111.349 302.266C111.173 302.629 111.083 303.027 111.08 303.459V303.859C111.08 304.379 111.17 304.834 111.349 305.223C111.531 305.609 111.788 305.909 112.12 306.122C112.453 306.335 112.846 306.442 113.301 306.442C113.61 306.442 113.882 306.393 114.115 306.297C114.35 306.2 114.548 306.071 114.707 305.909C114.869 305.744 114.991 305.564 115.073 305.368L115.794 305.602C115.694 305.878 115.531 306.132 115.304 306.365C115.079 306.598 114.798 306.786 114.46 306.928C114.125 307.067 113.738 307.136 113.301 307.136ZM40.8862 322V313.273H45.936V313.989H41.6831V317.274H45.5397V317.99H41.6831V322H40.8862ZM49.8234 322.136C49.2581 322.136 48.7581 321.993 48.3234 321.706C47.8916 321.419 47.5535 321.023 47.3092 320.517C47.0649 320.009 46.9427 319.422 46.9427 318.757C46.9427 318.087 47.0649 317.497 47.3092 316.989C47.5535 316.477 47.8916 316.08 48.3234 315.795C48.7581 315.509 49.2581 315.365 49.8234 315.365C50.3887 315.365 50.8873 315.509 51.3191 315.795C51.751 316.082 52.089 316.48 52.3333 316.989C52.5805 317.497 52.7041 318.087 52.7041 318.757C52.7041 319.422 52.5819 320.009 52.3376 320.517C52.0933 321.023 51.7538 321.419 51.3191 321.706C50.8873 321.993 50.3887 322.136 49.8234 322.136ZM49.8234 321.442C50.2779 321.442 50.6629 321.32 50.9782 321.075C51.2936 320.831 51.5322 320.506 51.6941 320.099C51.8589 319.693 51.9413 319.246 51.9413 318.757C51.9413 318.268 51.8589 317.82 51.6941 317.411C51.5322 317.001 51.2936 316.673 50.9782 316.426C50.6629 316.179 50.2779 316.055 49.8234 316.055C49.3717 316.055 48.9867 316.179 48.6686 316.426C48.3532 316.673 48.1132 317.001 47.9484 317.411C47.7865 317.82 47.7055 318.268 47.7055 318.757C47.7055 319.246 47.7865 319.693 47.9484 320.099C48.1132 320.506 48.3532 320.831 48.6686 321.075C48.9839 321.32 49.3688 321.442 49.8234 321.442ZM54.3692 322V315.455H55.1064V316.46H55.1618C55.2925 316.131 55.5198 315.865 55.8436 315.663C56.1703 315.459 56.5397 315.357 56.9516 315.357C57.0141 315.357 57.0837 315.358 57.1604 315.361C57.2371 315.364 57.301 315.366 57.3522 315.369V316.141C57.3181 316.135 57.2584 316.126 57.1732 316.115C57.088 316.104 56.9956 316.098 56.8962 316.098C56.5553 316.098 56.2513 316.17 55.9843 316.315C55.7201 316.457 55.5112 316.655 55.3578 316.908C55.2044 317.161 55.1277 317.449 55.1277 317.773V322H54.3692ZM62.1792 313.273H63.0997L66.2659 320.875H66.3426L69.5088 313.273H70.4292V322H69.6792V314.956H69.611L66.6664 322H65.942L62.9974 314.956H62.9292V322H62.1792V313.273ZM75.2382 322.136C74.6274 322.136 74.099 321.994 73.6529 321.71C73.2069 321.423 72.8617 321.027 72.6174 320.521C72.376 320.013 72.2552 319.428 72.2552 318.766C72.2552 318.107 72.376 317.521 72.6174 317.01C72.8617 316.496 73.1984 316.094 73.6274 315.804C74.0592 315.511 74.5578 315.365 75.1231 315.365C75.4782 315.365 75.8206 315.43 76.1501 315.561C76.4796 315.689 76.7751 315.886 77.0365 316.153C77.3007 316.418 77.5095 316.751 77.6629 317.155C77.8163 317.555 77.893 318.03 77.893 318.578V318.953H72.7794V318.284H77.1174C77.1174 317.864 77.0322 317.486 76.8617 317.151C76.6941 316.812 76.4598 316.545 76.1586 316.349C75.8603 316.153 75.5152 316.055 75.1231 316.055C74.7083 316.055 74.3433 316.166 74.0279 316.388C73.7126 316.609 73.4654 316.902 73.2865 317.266C73.1103 317.629 73.0208 318.027 73.018 318.459V318.859C73.018 319.379 73.1075 319.834 73.2865 320.223C73.4683 320.609 73.7254 320.909 74.0578 321.122C74.3902 321.335 74.7836 321.442 75.2382 321.442C75.5478 321.442 75.8191 321.393 76.0521 321.297C76.2879 321.2 76.4853 321.071 76.6444 320.909C76.8063 320.744 76.9285 320.564 77.0109 320.368L77.7311 320.602C77.6316 320.878 77.4683 321.132 77.241 321.365C77.0166 321.598 76.7353 321.786 76.3973 321.928C76.062 322.067 75.6757 322.136 75.2382 322.136ZM82.1426 315.455V316.115H79.0191V315.455H82.1426ZM79.9949 313.886H80.7577V320.291C80.7577 320.564 80.8046 320.778 80.8983 320.935C80.9921 321.088 81.1142 321.197 81.2648 321.263C81.4154 321.325 81.5759 321.357 81.7463 321.357C81.8458 321.357 81.931 321.351 82.002 321.339C82.073 321.325 82.1355 321.311 82.1895 321.297L82.3514 321.983C82.2776 322.011 82.1867 322.037 82.0787 322.06C81.9708 322.085 81.8372 322.098 81.6782 322.098C81.3997 322.098 81.1313 322.037 80.8728 321.915C80.6171 321.793 80.4068 321.611 80.2421 321.369C80.0773 321.128 79.9949 320.828 79.9949 320.47V313.886ZM85.6934 322.149C85.2985 322.149 84.9377 322.072 84.611 321.919C84.2843 321.763 84.0244 321.538 83.8312 321.246C83.638 320.95 83.5414 320.592 83.5414 320.172C83.5414 319.848 83.6025 319.575 83.7247 319.354C83.8468 319.132 84.0201 318.95 84.2446 318.808C84.469 318.666 84.7346 318.554 85.0414 318.472C85.3483 318.389 85.6863 318.325 86.0556 318.28C86.4221 318.234 86.7318 318.195 86.9846 318.161C87.2403 318.126 87.4349 318.072 87.5684 317.999C87.7019 317.925 87.7687 317.805 87.7687 317.641V317.487C87.7687 317.041 87.6352 316.69 87.3681 316.435C87.1039 316.176 86.7233 316.047 86.2261 316.047C85.7545 316.047 85.3696 316.151 85.0713 316.358C84.7758 316.565 84.5684 316.81 84.4491 317.091L83.7289 316.831C83.8767 316.473 84.0812 316.187 84.3426 315.974C84.6039 315.759 84.8965 315.604 85.2204 315.51C85.5443 315.413 85.8724 315.365 86.2048 315.365C86.4548 315.365 86.7147 315.398 86.9846 315.463C87.2573 315.528 87.5102 315.642 87.7431 315.804C87.9761 315.963 88.165 316.186 88.3099 316.473C88.4548 316.757 88.5272 317.118 88.5272 317.555V322H87.7687V320.964H87.7218C87.6309 321.158 87.496 321.345 87.317 321.527C87.138 321.709 86.9136 321.858 86.6437 321.974C86.3738 322.091 86.0571 322.149 85.6934 322.149ZM85.7957 321.455C86.1991 321.455 86.5485 321.365 86.844 321.186C87.1394 321.007 87.3667 320.77 87.5258 320.474C87.6877 320.176 87.7687 319.848 87.7687 319.49V318.544C87.7119 318.598 87.6167 318.646 87.4832 318.689C87.3525 318.732 87.2005 318.77 87.0272 318.804C86.8568 318.835 86.6863 318.862 86.5159 318.885C86.3454 318.908 86.192 318.928 86.0556 318.945C85.6863 318.99 85.371 319.061 85.1096 319.158C84.8483 319.254 84.648 319.388 84.5088 319.558C84.3696 319.726 84.3 319.942 84.3 320.206C84.3 320.604 84.442 320.912 84.7261 321.131C85.0102 321.347 85.3667 321.455 85.7957 321.455ZM95.3774 315.455L92.9867 322H92.1771L89.7865 315.455H90.6089L92.5521 320.999H92.6117L94.5549 315.455H95.3774ZM99.2733 322.136C98.6625 322.136 98.1341 321.994 97.6881 321.71C97.2421 321.423 96.8969 321.027 96.6526 320.521C96.4111 320.013 96.2904 319.428 96.2904 318.766C96.2904 318.107 96.4111 317.521 96.6526 317.01C96.8969 316.496 97.2335 316.094 97.6625 315.804C98.0943 315.511 98.5929 315.365 99.1583 315.365C99.5134 315.365 99.8557 315.43 100.185 315.561C100.515 315.689 100.81 315.886 101.072 316.153C101.336 316.418 101.545 316.751 101.698 317.155C101.851 317.555 101.928 318.03 101.928 318.578V318.953H96.8145V318.284H101.153C101.153 317.864 101.067 317.486 100.897 317.151C100.729 316.812 100.495 316.545 100.194 316.349C99.8955 316.153 99.5503 316.055 99.1583 316.055C98.7435 316.055 98.3784 316.166 98.0631 316.388C97.7478 316.609 97.5006 316.902 97.3216 317.266C97.1455 317.629 97.056 318.027 97.0532 318.459V318.859C97.0532 319.379 97.1426 319.834 97.3216 320.223C97.5034 320.609 97.7605 320.909 98.0929 321.122C98.4253 321.335 98.8188 321.442 99.2733 321.442C99.583 321.442 99.8543 321.393 100.087 321.297C100.323 321.2 100.52 321.071 100.68 320.909C100.842 320.744 100.964 320.564 101.046 320.368L101.766 320.602C101.667 320.878 101.503 321.132 101.276 321.365C101.052 321.598 100.77 321.786 100.432 321.928C100.097 322.067 99.7108 322.136 99.2733 322.136ZM103.6 322V315.455H104.337V316.46H104.392C104.523 316.131 104.75 315.865 105.074 315.663C105.401 315.459 105.77 315.357 106.182 315.357C106.245 315.357 106.314 315.358 106.391 315.361C106.468 315.364 106.531 315.366 106.583 315.369V316.141C106.549 316.135 106.489 316.126 106.404 316.115C106.318 316.104 106.226 316.098 106.127 316.098C105.786 316.098 105.482 316.17 105.215 316.315C104.951 316.457 104.742 316.655 104.588 316.908C104.435 317.161 104.358 317.449 104.358 317.773V322H103.6ZM112.275 316.891L111.58 317.087C111.512 316.891 111.415 316.713 111.29 316.554C111.165 316.395 111.002 316.268 110.8 316.175C110.601 316.081 110.354 316.034 110.059 316.034C109.616 316.034 109.252 316.139 108.968 316.349C108.684 316.56 108.542 316.831 108.542 317.163C108.542 317.445 108.638 317.673 108.832 317.849C109.028 318.023 109.329 318.161 109.735 318.263L110.724 318.506C111.272 318.639 111.682 318.851 111.955 319.141C112.231 319.43 112.368 319.794 112.368 320.232C112.368 320.601 112.266 320.929 112.062 321.216C111.857 321.503 111.572 321.729 111.205 321.893C110.842 322.055 110.42 322.136 109.94 322.136C109.3 322.136 108.773 321.993 108.359 321.706C107.944 321.416 107.678 320.999 107.562 320.453L108.29 320.274C108.384 320.663 108.567 320.957 108.84 321.156C109.116 321.355 109.478 321.455 109.927 321.455C110.43 321.455 110.832 321.342 111.133 321.118C111.434 320.891 111.584 320.607 111.584 320.266C111.584 320.001 111.496 319.78 111.32 319.601C111.144 319.419 110.877 319.286 110.519 319.2L109.449 318.945C108.881 318.808 108.461 318.592 108.188 318.297C107.915 318.001 107.779 317.635 107.779 317.197C107.779 316.837 107.877 316.52 108.073 316.247C108.269 315.972 108.539 315.756 108.883 315.599C109.226 315.443 109.618 315.365 110.059 315.365C110.658 315.365 111.137 315.501 111.495 315.774C111.856 316.044 112.116 316.416 112.275 316.891ZM116.676 322.136C116.065 322.136 115.536 321.994 115.09 321.71C114.644 321.423 114.299 321.027 114.055 320.521C113.813 320.013 113.693 319.428 113.693 318.766C113.693 318.107 113.813 317.521 114.055 317.01C114.299 316.496 114.636 316.094 115.065 315.804C115.497 315.511 115.995 315.365 116.561 315.365C116.916 315.365 117.258 315.43 117.588 315.561C117.917 315.689 118.213 315.886 118.474 316.153C118.738 316.418 118.947 316.751 119.1 317.155C119.254 317.555 119.33 318.03 119.33 318.578V318.953H114.217V318.284H118.555C118.555 317.864 118.47 317.486 118.299 317.151C118.132 316.812 117.897 316.545 117.596 316.349C117.298 316.153 116.953 316.055 116.561 316.055C116.146 316.055 115.781 316.166 115.465 316.388C115.15 316.609 114.903 316.902 114.724 317.266C114.548 317.629 114.458 318.027 114.455 318.459V318.859C114.455 319.379 114.545 319.834 114.724 320.223C114.906 320.609 115.163 320.909 115.495 321.122C115.828 321.335 116.221 321.442 116.676 321.442C116.985 321.442 117.257 321.393 117.49 321.297C117.725 321.2 117.923 321.071 118.082 320.909C118.244 320.744 118.366 320.564 118.448 320.368L119.169 320.602C119.069 320.878 118.906 321.132 118.679 321.365C118.454 321.598 118.173 321.786 117.835 321.928C117.5 322.067 117.113 322.136 116.676 322.136Z" fill="#656565"/>
</g>
<g filter="url(#filter3_d_10_32)">
<path d="M44 101V27H126" stroke="#CF009B"/>
<path d="M37.8794 16.4432V14.0213L43.9518 4.45455H46.0399V7.80682H44.8041L40.976 13.8651V13.9787H49.6053V16.4432H37.8794ZM44.8609 19V15.7045L44.9178 14.6321V4.45455H47.8013V19H44.8609ZM57.3574 19.3196C56.1358 19.3149 55.0847 19.0142 54.204 18.4176C53.328 17.821 52.6533 16.9569 52.1798 15.8253C51.7111 14.6937 51.4791 13.3324 51.4838 11.7415C51.4838 10.1553 51.7182 8.8035 52.1869 7.68608C52.6604 6.56865 53.3351 5.71875 54.2111 5.13636C55.0918 4.54924 56.1405 4.25568 57.3574 4.25568C58.5742 4.25568 59.6206 4.54924 60.4966 5.13636C61.3773 5.72348 62.0544 6.57576 62.5278 7.69318C63.0013 8.80587 63.2357 10.1553 63.231 11.7415C63.231 13.3371 62.9942 14.7008 62.5207 15.8324C62.052 16.964 61.3796 17.8281 60.5037 18.4247C59.6277 19.0213 58.579 19.3196 57.3574 19.3196ZM57.3574 16.7699C58.1907 16.7699 58.856 16.3509 59.3531 15.5128C59.8503 14.6747 60.0965 13.4176 60.0918 11.7415C60.0918 10.6383 59.9781 9.7197 59.7508 8.9858C59.5283 8.25189 59.2111 7.70028 58.7991 7.33097C58.3919 6.96165 57.9114 6.77699 57.3574 6.77699C56.5288 6.77699 55.8659 7.19129 55.3687 8.01989C54.8716 8.84848 54.6206 10.089 54.6159 11.7415C54.6159 12.8589 54.7272 13.7917 54.9497 14.5398C55.177 15.2831 55.4966 15.8419 55.9085 16.2159C56.3205 16.5852 56.8034 16.7699 57.3574 16.7699ZM73.3854 16.2727V15.5057C73.3854 14.9233 73.5085 14.3883 73.7548 13.9006C74.0057 13.4081 74.3679 13.0152 74.8414 12.7216C75.3196 12.4233 75.902 12.2741 76.5886 12.2741C77.2846 12.2741 77.8693 12.4209 78.3428 12.7145C78.821 13.008 79.1809 13.401 79.4224 13.8935C79.6686 14.3812 79.7917 14.9186 79.7917 15.5057V16.2727C79.7917 16.8551 79.6686 17.3925 79.4224 17.8849C79.1762 18.3726 78.8139 18.7633 78.3357 19.0568C77.8575 19.3551 77.2751 19.5043 76.5886 19.5043C75.8925 19.5043 75.3078 19.3551 74.8343 19.0568C74.3608 18.7633 74.001 18.3726 73.7548 17.8849C73.5085 17.3925 73.3854 16.8551 73.3854 16.2727ZM75.4522 15.5057V16.2727C75.4522 16.6089 75.5327 16.9261 75.6937 17.2244C75.8594 17.5227 76.1577 17.6719 76.5886 17.6719C77.0194 17.6719 77.313 17.5251 77.4692 17.2315C77.6302 16.938 77.7107 16.6184 77.7107 16.2727V15.5057C77.7107 15.16 77.635 14.8381 77.4834 14.5398C77.3319 14.2415 77.0336 14.0923 76.5886 14.0923C76.1624 14.0923 75.8665 14.2415 75.7008 14.5398C75.5351 14.8381 75.4522 15.16 75.4522 15.5057ZM65.9209 7.94886V7.18182C65.9209 6.5947 66.0464 6.05729 66.2974 5.5696C66.5483 5.07718 66.9105 4.68419 67.384 4.39062C67.8622 4.09706 68.4399 3.95028 69.117 3.95028C69.8177 3.95028 70.4049 4.09706 70.8783 4.39062C71.3518 4.68419 71.7117 5.07718 71.9579 5.5696C72.2041 6.05729 72.3272 6.5947 72.3272 7.18182V7.94886C72.3272 8.53598 72.2017 9.07339 71.9508 9.56108C71.7046 10.0488 71.3424 10.4394 70.8641 10.733C70.3906 11.0218 69.8083 11.1662 69.117 11.1662C68.4257 11.1662 67.8409 11.0194 67.3627 10.7259C66.8892 10.4276 66.5294 10.0369 66.2832 9.55398C66.0417 9.06629 65.9209 8.53125 65.9209 7.94886ZM68.0019 7.18182V7.94886C68.0019 8.29451 68.0824 8.61411 68.2434 8.90767C68.4091 9.20123 68.7003 9.34801 69.117 9.34801C69.5526 9.34801 69.8485 9.20123 70.0048 8.90767C70.1657 8.61411 70.2462 8.29451 70.2462 7.94886V7.18182C70.2462 6.83617 70.1705 6.5142 70.019 6.21591C69.8674 5.91761 69.5668 5.76847 69.117 5.76847C68.6956 5.76847 68.4044 5.91998 68.2434 6.22301C68.0824 6.52604 68.0019 6.84564 68.0019 7.18182ZM66.8584 19L76.8584 4.45455H78.7192L68.7192 19H66.8584ZM85.3687 19V10.2727H88.1855C88.8048 10.2727 89.3219 10.392 89.7366 10.6307C90.1543 10.8665 90.4682 11.1875 90.6784 11.5938C90.8915 12 90.998 12.4574 90.998 12.9659C90.998 13.4744 90.8929 13.9332 90.6827 14.3423C90.4724 14.7486 90.1599 15.071 89.7452 15.3097C89.3304 15.5455 88.8148 15.6634 88.1983 15.6634H85.9824V14.9474H88.177C88.6344 14.9474 89.0136 14.8622 89.3148 14.6918C89.6159 14.5185 89.8403 14.2827 89.9881 13.9844C90.1386 13.6861 90.2139 13.3466 90.2139 12.9659C90.2139 12.5852 90.1386 12.2457 89.9881 11.9474C89.8403 11.6491 89.6145 11.4148 89.3105 11.2443C89.0094 11.0739 88.6273 10.9886 88.1642 10.9886H86.1656V19H85.3687ZM96.8702 16.4986V12.4545H97.6287V19H96.8702V17.9134H96.8105C96.6571 18.2486 96.4142 18.5284 96.0818 18.7528C95.7494 18.9744 95.3432 19.0852 94.8631 19.0852C94.4455 19.0852 94.0747 18.9943 93.7508 18.8125C93.427 18.6278 93.1727 18.358 92.9881 18.0028C92.8034 17.6477 92.7111 17.2116 92.7111 16.6946V12.4545H93.4696V16.6477C93.4696 17.1591 93.6202 17.571 93.9213 17.8835C94.2224 18.1932 94.6088 18.348 95.0804 18.348C95.3758 18.348 95.6599 18.277 95.9327 18.1349C96.2054 17.9929 96.4298 17.7855 96.606 17.5128C96.7821 17.2372 96.8702 16.8991 96.8702 16.4986ZM99.7945 19V10.2727H100.557V13.7031H100.625C100.711 13.5071 100.833 13.3054 100.992 13.098C101.154 12.8906 101.366 12.7173 101.627 12.5781C101.891 12.4361 102.224 12.3651 102.624 12.3651C103.161 12.3651 103.633 12.5071 104.039 12.7912C104.445 13.0724 104.762 13.4673 104.989 13.9759C105.216 14.4815 105.33 15.071 105.33 15.7443C105.33 16.4205 105.216 17.0128 104.989 17.5213C104.765 18.0298 104.449 18.4261 104.043 18.7102C103.64 18.9943 103.171 19.1364 102.637 19.1364C102.239 19.1364 101.907 19.0653 101.64 18.9233C101.375 18.7812 101.162 18.6065 101 18.3991C100.839 18.1889 100.714 17.9844 100.625 17.7855H100.532V19H99.7945ZM100.545 15.7315C100.545 16.2599 100.623 16.7287 100.779 17.1378C100.938 17.544 101.165 17.8636 101.461 18.0966C101.759 18.3267 102.12 18.4418 102.543 18.4418C102.978 18.4418 103.346 18.3224 103.647 18.0838C103.948 17.8423 104.177 17.517 104.333 17.108C104.489 16.6989 104.567 16.2401 104.567 15.7315C104.567 15.2287 104.489 14.7756 104.333 14.3722C104.179 13.9687 103.952 13.6491 103.651 13.4134C103.35 13.1747 102.981 13.0554 102.543 13.0554C102.117 13.0554 101.755 13.1705 101.456 13.4006C101.161 13.6278 100.935 13.9432 100.779 14.3466C100.623 14.7472 100.545 15.2088 100.545 15.7315ZM107.755 10.2727V19H106.996V10.2727H107.755ZM109.77 19V12.4545H110.533V19H109.77ZM110.158 11.3295C110.002 11.3295 109.868 11.277 109.758 11.1719C109.647 11.0639 109.591 10.9347 109.591 10.7841C109.591 10.6335 109.647 10.5057 109.758 10.4006C109.868 10.2926 110.002 10.2386 110.158 10.2386C110.314 10.2386 110.448 10.2926 110.559 10.4006C110.67 10.5057 110.725 10.6335 110.725 10.7841C110.725 10.9347 110.67 11.0639 110.559 11.1719C110.448 11.277 110.314 11.3295 110.158 11.3295ZM115.096 19.1364C114.511 19.1364 114.001 18.9901 113.566 18.6974C113.134 18.4048 112.799 18.0043 112.561 17.4957C112.322 16.9872 112.203 16.4077 112.203 15.7571C112.203 15.1009 112.323 14.517 112.565 14.0057C112.809 13.4943 113.147 13.0937 113.579 12.804C114.011 12.5114 114.512 12.3651 115.083 12.3651C115.521 12.3651 115.917 12.4503 116.272 12.6207C116.627 12.7884 116.92 13.0256 117.15 13.3324C117.383 13.6364 117.529 13.9915 117.589 14.3977H116.822C116.742 14.0284 116.551 13.7131 116.247 13.4517C115.945 13.1875 115.562 13.0554 115.096 13.0554C114.678 13.0554 114.309 13.169 113.988 13.3963C113.667 13.6207 113.416 13.9347 113.234 14.3381C113.055 14.7386 112.965 15.2031 112.965 15.7315C112.965 16.2628 113.053 16.733 113.23 17.142C113.406 17.5483 113.653 17.8665 113.971 18.0966C114.292 18.3267 114.667 18.4418 115.096 18.4418C115.386 18.4418 115.65 18.3878 115.889 18.2798C116.13 18.169 116.332 18.0128 116.494 17.8111C116.659 17.6094 116.769 17.3693 116.826 17.0909H117.593C117.536 17.4858 117.396 17.8381 117.171 18.1477C116.95 18.4545 116.661 18.696 116.306 18.8722C115.954 19.0483 115.551 19.1364 115.096 19.1364Z" fill="#656565"/>
</g>
<g filter="url(#filter4_d_10_32)">
<path d="M232 101V27.27H162" stroke="#6DBC9E"/>
<path d="M151.006 4.45455V19H147.931V7.37358H147.845L144.514 9.46165V6.73438L148.115 4.45455H151.006ZM160.166 19.3196C158.944 19.3149 157.893 19.0142 157.013 18.4176C156.137 17.821 155.462 16.9569 154.988 15.8253C154.52 14.6937 154.288 13.3324 154.292 11.7415C154.292 10.1553 154.527 8.8035 154.996 7.68608C155.469 6.56865 156.144 5.71875 157.02 5.13636C157.9 4.54924 158.949 4.25568 160.166 4.25568C161.383 4.25568 162.429 4.54924 163.305 5.13636C164.186 5.72348 164.863 6.57576 165.336 7.69318C165.81 8.80587 166.044 10.1553 166.04 11.7415C166.04 13.3371 165.803 14.7008 165.329 15.8324C164.861 16.964 164.188 17.8281 163.312 18.4247C162.436 19.0213 161.388 19.3196 160.166 19.3196ZM160.166 16.7699C160.999 16.7699 161.665 16.3509 162.162 15.5128C162.659 14.6747 162.905 13.4176 162.9 11.7415C162.9 10.6383 162.787 9.7197 162.559 8.9858C162.337 8.25189 162.02 7.70028 161.608 7.33097C161.201 6.96165 160.72 6.77699 160.166 6.77699C159.337 6.77699 158.674 7.19129 158.177 8.01989C157.68 8.84848 157.429 10.089 157.424 11.7415C157.424 12.8589 157.536 13.7917 157.758 14.5398C157.986 15.2831 158.305 15.8419 158.717 16.2159C159.129 16.5852 159.612 16.7699 160.166 16.7699ZM176.194 16.2727V15.5057C176.194 14.9233 176.317 14.3883 176.563 13.9006C176.814 13.4081 177.177 13.0152 177.65 12.7216C178.128 12.4233 178.711 12.2741 179.397 12.2741C180.093 12.2741 180.678 12.4209 181.151 12.7145C181.63 13.008 181.989 13.401 182.231 13.8935C182.477 14.3812 182.6 14.9186 182.6 15.5057V16.2727C182.6 16.8551 182.477 17.3925 182.231 17.8849C181.985 18.3726 181.623 18.7633 181.144 19.0568C180.666 19.3551 180.084 19.5043 179.397 19.5043C178.701 19.5043 178.116 19.3551 177.643 19.0568C177.169 18.7633 176.81 18.3726 176.563 17.8849C176.317 17.3925 176.194 16.8551 176.194 16.2727ZM178.261 15.5057V16.2727C178.261 16.6089 178.341 16.9261 178.502 17.2244C178.668 17.5227 178.966 17.6719 179.397 17.6719C179.828 17.6719 180.122 17.5251 180.278 17.2315C180.439 16.938 180.519 16.6184 180.519 16.2727V15.5057C180.519 15.16 180.444 14.8381 180.292 14.5398C180.141 14.2415 179.842 14.0923 179.397 14.0923C178.971 14.0923 178.675 14.2415 178.509 14.5398C178.344 14.8381 178.261 15.16 178.261 15.5057ZM168.73 7.94886V7.18182C168.73 6.5947 168.855 6.05729 169.106 5.5696C169.357 5.07718 169.719 4.68419 170.193 4.39062C170.671 4.09706 171.248 3.95028 171.926 3.95028C172.626 3.95028 173.213 4.09706 173.687 4.39062C174.16 4.68419 174.52 5.07718 174.766 5.5696C175.013 6.05729 175.136 6.5947 175.136 7.18182V7.94886C175.136 8.53598 175.01 9.07339 174.759 9.56108C174.513 10.0488 174.151 10.4394 173.673 10.733C173.199 11.0218 172.617 11.1662 171.926 11.1662C171.234 11.1662 170.65 11.0194 170.171 10.7259C169.698 10.4276 169.338 10.0369 169.092 9.55398C168.85 9.06629 168.73 8.53125 168.73 7.94886ZM170.811 7.18182V7.94886C170.811 8.29451 170.891 8.61411 171.052 8.90767C171.218 9.20123 171.509 9.34801 171.926 9.34801C172.361 9.34801 172.657 9.20123 172.813 8.90767C172.974 8.61411 173.055 8.29451 173.055 7.94886V7.18182C173.055 6.83617 172.979 6.5142 172.828 6.21591C172.676 5.91761 172.375 5.76847 171.926 5.76847C171.504 5.76847 171.213 5.91998 171.052 6.22301C170.891 6.52604 170.811 6.84564 170.811 7.18182ZM169.667 19L179.667 4.45455H181.528L171.528 19H169.667ZM191.552 19V10.2727H196.615V10.9886H192.349V14.2741H196.346V14.9901H192.349V18.2841H196.7V19H191.552ZM198.988 12.4545L200.676 15.2457L202.363 12.4545H203.246L201.14 15.7273L203.246 19H202.363L200.676 16.2983L198.988 19H198.111L200.19 15.7273L198.111 12.4545H198.988ZM204.836 21.4545V12.4545H205.573V13.7031H205.663C205.754 13.5071 205.879 13.3068 206.038 13.1023C206.197 12.8949 206.407 12.7202 206.668 12.5781C206.933 12.4361 207.265 12.3651 207.666 12.3651C208.205 12.3651 208.677 12.5071 209.08 12.7912C209.487 13.0724 209.802 13.4673 210.026 13.9759C210.254 14.4815 210.367 15.071 210.367 15.7443C210.367 16.4205 210.254 17.0128 210.026 17.5213C209.802 18.0298 209.487 18.4261 209.08 18.7102C208.677 18.9943 208.208 19.1364 207.674 19.1364C207.279 19.1364 206.948 19.0653 206.681 18.9233C206.417 18.7812 206.203 18.6065 206.038 18.3991C205.876 18.1889 205.751 17.9844 205.663 17.7855H205.595V21.4545H204.836ZM205.586 15.7315C205.586 16.2599 205.664 16.7287 205.82 17.1378C205.98 17.544 206.207 17.8636 206.502 18.0966C206.801 18.3267 207.161 18.4418 207.585 18.4418C208.019 18.4418 208.386 18.3224 208.684 18.0838C208.985 17.8423 209.214 17.517 209.37 17.108C209.529 16.6989 209.609 16.2401 209.609 15.7315C209.609 15.2287 209.531 14.7756 209.374 14.3722C209.221 13.9687 208.994 13.6491 208.693 13.4134C208.391 13.1747 208.022 13.0554 207.585 13.0554C207.159 13.0554 206.796 13.1705 206.498 13.4006C206.2 13.6278 205.972 13.9432 205.816 14.3466C205.663 14.7472 205.586 15.2088 205.586 15.7315ZM214.678 19.1364C214.067 19.1364 213.538 18.9943 213.092 18.7102C212.646 18.4233 212.301 18.027 212.057 17.5213C211.815 17.0128 211.695 16.4276 211.695 15.7656C211.695 15.1065 211.815 14.5213 212.057 14.0099C212.301 13.4957 212.638 13.0937 213.067 12.804C213.499 12.5114 213.997 12.3651 214.563 12.3651C214.918 12.3651 215.26 12.4304 215.59 12.5611C215.919 12.6889 216.215 12.8864 216.476 13.1534C216.74 13.4176 216.949 13.7514 217.102 14.1548C217.256 14.5554 217.333 15.0298 217.333 15.5781V15.9531H212.219V15.2841H216.557C216.557 14.8636 216.472 14.4858 216.301 14.1506C216.134 13.8125 215.899 13.5455 215.598 13.3494C215.3 13.1534 214.955 13.0554 214.563 13.0554C214.148 13.0554 213.783 13.1662 213.467 13.3878C213.152 13.6094 212.905 13.902 212.726 14.2656C212.55 14.6293 212.46 15.027 212.458 15.4588V15.8594C212.458 16.3793 212.547 16.8338 212.726 17.223C212.908 17.6094 213.165 17.9091 213.497 18.1222C213.83 18.3352 214.223 18.4418 214.678 18.4418C214.987 18.4418 215.259 18.3935 215.492 18.2969C215.727 18.2003 215.925 18.071 216.084 17.9091C216.246 17.7443 216.368 17.5639 216.45 17.3679L217.171 17.6023C217.071 17.8778 216.908 18.1321 216.681 18.3651C216.456 18.598 216.175 18.7855 215.837 18.9276C215.502 19.0668 215.115 19.1364 214.678 19.1364ZM219.763 14.9091V19H219.004V12.4545H219.741V13.4815H219.809C219.963 13.1463 220.201 12.8778 220.525 12.6761C220.852 12.4716 221.255 12.3693 221.736 12.3693C222.176 12.3693 222.562 12.4616 222.895 12.6463C223.23 12.8281 223.49 13.0966 223.674 13.4517C223.862 13.8068 223.956 14.2429 223.956 14.7599V19H223.197V14.8068C223.197 14.2699 223.047 13.8452 222.746 13.5327C222.447 13.2202 222.047 13.0639 221.544 13.0639C221.2 13.0639 220.895 13.1378 220.628 13.2855C220.361 13.4332 220.149 13.6463 219.993 13.9247C219.839 14.2003 219.763 14.5284 219.763 14.9091ZM230.351 13.8906L229.656 14.0866C229.588 13.8906 229.492 13.7131 229.367 13.554C229.242 13.3949 229.078 13.2685 228.877 13.1747C228.678 13.081 228.431 13.0341 228.135 13.0341C227.692 13.0341 227.328 13.1392 227.044 13.3494C226.76 13.5597 226.618 13.831 226.618 14.1634C226.618 14.4446 226.715 14.6733 226.908 14.8494C227.104 15.0227 227.405 15.1605 227.811 15.2628L228.8 15.5057C229.348 15.6392 229.759 15.8509 230.031 16.1406C230.307 16.4304 230.445 16.794 230.445 17.2315C230.445 17.6009 230.342 17.929 230.138 18.2159C229.933 18.5028 229.648 18.7287 229.281 18.8935C228.918 19.0554 228.496 19.1364 228.016 19.1364C227.377 19.1364 226.85 18.9929 226.435 18.706C226.02 18.4162 225.754 17.9986 225.638 17.4531L226.367 17.2741C226.46 17.6634 226.644 17.9574 226.916 18.1562C227.192 18.3551 227.554 18.4545 228.003 18.4545C228.506 18.4545 228.908 18.3423 229.209 18.1179C229.51 17.8906 229.661 17.6065 229.661 17.2656C229.661 17.0014 229.573 16.7798 229.396 16.6009C229.22 16.419 228.953 16.2855 228.595 16.2003L227.526 15.9446C226.958 15.8082 226.537 15.5923 226.264 15.2969C225.992 15.0014 225.855 14.6349 225.855 14.1974C225.855 13.8366 225.953 13.5199 226.149 13.2472C226.345 12.9716 226.615 12.7557 226.959 12.5994C227.303 12.4432 227.695 12.3651 228.135 12.3651C228.735 12.3651 229.213 12.5014 229.571 12.7741C229.932 13.044 230.192 13.4162 230.351 13.8906ZM232.114 19V12.4545H232.877V19H232.114ZM232.502 11.3295C232.346 11.3295 232.212 11.277 232.101 11.1719C231.991 11.0639 231.935 10.9347 231.935 10.7841C231.935 10.6335 231.991 10.5057 232.101 10.4006C232.212 10.2926 232.346 10.2386 232.502 10.2386C232.658 10.2386 232.792 10.2926 232.902 10.4006C233.013 10.5057 233.069 10.6335 233.069 10.7841C233.069 10.9347 233.013 11.0639 232.902 11.1719C232.792 11.277 232.658 11.3295 232.502 11.3295ZM237.427 19.1364C236.862 19.1364 236.362 18.9929 235.927 18.706C235.495 18.419 235.157 18.0227 234.913 17.517C234.668 17.0085 234.546 16.4219 234.546 15.7571C234.546 15.0866 234.668 14.4972 234.913 13.9886C235.157 13.4773 235.495 13.0795 235.927 12.7955C236.362 12.5085 236.862 12.3651 237.427 12.3651C237.992 12.3651 238.491 12.5085 238.923 12.7955C239.355 13.0824 239.693 13.4801 239.937 13.9886C240.184 14.4972 240.308 15.0866 240.308 15.7571C240.308 16.4219 240.186 17.0085 239.941 17.517C239.697 18.0227 239.357 18.419 238.923 18.706C238.491 18.9929 237.992 19.1364 237.427 19.1364ZM237.427 18.4418C237.882 18.4418 238.266 18.3196 238.582 18.0753C238.897 17.831 239.136 17.5057 239.298 17.0994C239.462 16.6932 239.545 16.2457 239.545 15.7571C239.545 15.2685 239.462 14.8196 239.298 14.4105C239.136 14.0014 238.897 13.6733 238.582 13.4261C238.266 13.179 237.882 13.0554 237.427 13.0554C236.975 13.0554 236.59 13.179 236.272 13.4261C235.957 13.6733 235.717 14.0014 235.552 14.4105C235.39 14.8196 235.309 15.2685 235.309 15.7571C235.309 16.2457 235.39 16.6932 235.552 17.0994C235.717 17.5057 235.957 17.831 236.272 18.0753C236.587 18.3196 236.972 18.4418 237.427 18.4418ZM242.731 14.9091V19H241.973V12.4545H242.71V13.4815H242.778C242.932 13.1463 243.17 12.8778 243.494 12.6761C243.821 12.4716 244.224 12.3693 244.704 12.3693C245.145 12.3693 245.531 12.4616 245.863 12.6463C246.199 12.8281 246.459 13.0966 246.643 13.4517C246.831 13.8068 246.924 14.2429 246.924 14.7599V19H246.166V14.8068C246.166 14.2699 246.015 13.8452 245.714 13.5327C245.416 13.2202 245.015 13.0639 244.513 13.0639C244.169 13.0639 243.863 13.1378 243.596 13.2855C243.329 13.4332 243.118 13.6463 242.961 13.9247C242.808 14.2003 242.731 14.5284 242.731 14.9091Z" fill="#656565"/>
</g>
<g filter="url(#filter5_d_10_32)">
<path d="M232 249V284H181" stroke="#FACC13"/>
<path d="M151.428 294.455V309H148.352V297.374H148.267L144.936 299.462V296.734L148.537 294.455H151.428ZM160.197 309.199C159.193 309.199 158.299 309.014 157.513 308.645C156.731 308.276 156.111 307.767 155.652 307.118C155.192 306.469 154.953 305.726 154.934 304.888H157.917C157.951 305.451 158.187 305.908 158.628 306.259C159.068 306.609 159.591 306.784 160.197 306.784C160.68 306.784 161.106 306.678 161.476 306.464C161.85 306.247 162.141 305.946 162.349 305.562C162.562 305.174 162.669 304.729 162.669 304.227C162.669 303.716 162.56 303.266 162.342 302.878C162.129 302.49 161.833 302.187 161.454 301.969C161.076 301.751 160.642 301.64 160.155 301.635C159.728 301.635 159.314 301.723 158.912 301.898C158.514 302.073 158.204 302.312 157.981 302.615L155.247 302.125L155.936 294.455H164.828V296.969H158.471L158.095 300.612H158.18C158.436 300.252 158.822 299.954 159.338 299.717C159.854 299.481 160.432 299.362 161.071 299.362C161.947 299.362 162.728 299.568 163.415 299.98C164.101 300.392 164.643 300.958 165.041 301.678C165.439 302.393 165.635 303.216 165.63 304.149C165.635 305.129 165.408 306 164.949 306.763C164.494 307.52 163.857 308.117 163.038 308.553C162.224 308.983 161.277 309.199 160.197 309.199ZM175.737 306.273V305.506C175.737 304.923 175.86 304.388 176.106 303.901C176.357 303.408 176.719 303.015 177.193 302.722C177.671 302.423 178.254 302.274 178.94 302.274C179.636 302.274 180.221 302.421 180.694 302.714C181.173 303.008 181.532 303.401 181.774 303.893C182.02 304.381 182.143 304.919 182.143 305.506V306.273C182.143 306.855 182.02 307.393 181.774 307.885C181.528 308.373 181.166 308.763 180.687 309.057C180.209 309.355 179.627 309.504 178.94 309.504C178.244 309.504 177.659 309.355 177.186 309.057C176.712 308.763 176.353 308.373 176.106 307.885C175.86 307.393 175.737 306.855 175.737 306.273ZM177.804 305.506V306.273C177.804 306.609 177.884 306.926 178.045 307.224C178.211 307.523 178.509 307.672 178.94 307.672C179.371 307.672 179.665 307.525 179.821 307.232C179.982 306.938 180.062 306.618 180.062 306.273V305.506C180.062 305.16 179.987 304.838 179.835 304.54C179.683 304.241 179.385 304.092 178.94 304.092C178.514 304.092 178.218 304.241 178.052 304.54C177.887 304.838 177.804 305.16 177.804 305.506ZM168.273 297.949V297.182C168.273 296.595 168.398 296.057 168.649 295.57C168.9 295.077 169.262 294.684 169.736 294.391C170.214 294.097 170.791 293.95 171.469 293.95C172.169 293.95 172.756 294.097 173.23 294.391C173.703 294.684 174.063 295.077 174.309 295.57C174.556 296.057 174.679 296.595 174.679 297.182V297.949C174.679 298.536 174.553 299.073 174.302 299.561C174.056 300.049 173.694 300.439 173.216 300.733C172.742 301.022 172.16 301.166 171.469 301.166C170.777 301.166 170.192 301.019 169.714 300.726C169.241 300.428 168.881 300.037 168.635 299.554C168.393 299.066 168.273 298.531 168.273 297.949ZM170.353 297.182V297.949C170.353 298.295 170.434 298.614 170.595 298.908C170.761 299.201 171.052 299.348 171.469 299.348C171.904 299.348 172.2 299.201 172.356 298.908C172.517 298.614 172.598 298.295 172.598 297.949V297.182C172.598 296.836 172.522 296.514 172.371 296.216C172.219 295.918 171.918 295.768 171.469 295.768C171.047 295.768 170.756 295.92 170.595 296.223C170.434 296.526 170.353 296.846 170.353 297.182ZM169.21 309L179.21 294.455H181.071L171.071 309H169.21ZM189.572 309V300.273H192.389C193.008 300.273 193.525 300.385 193.94 300.609C194.357 300.831 194.671 301.139 194.882 301.534C195.095 301.926 195.201 302.376 195.201 302.885C195.201 303.393 195.095 303.842 194.882 304.232C194.671 304.621 194.359 304.925 193.944 305.143C193.529 305.362 193.015 305.472 192.401 305.472H190.002V304.743H192.38C192.835 304.743 193.212 304.668 193.514 304.517C193.818 304.366 194.043 304.152 194.191 303.874C194.342 303.595 194.417 303.266 194.417 302.885C194.417 302.504 194.342 302.172 194.191 301.888C194.041 301.601 193.813 301.379 193.509 301.223C193.208 301.067 192.828 300.989 192.367 300.989H190.369V309H189.572ZM193.42 305.062L195.568 309H194.647L192.521 305.062H193.42ZM199.561 309.136C198.95 309.136 198.421 308.994 197.975 308.71C197.529 308.423 197.184 308.027 196.94 307.521C196.698 307.013 196.578 306.428 196.578 305.766C196.578 305.107 196.698 304.521 196.94 304.01C197.184 303.496 197.521 303.094 197.95 302.804C198.382 302.511 198.88 302.365 199.445 302.365C199.801 302.365 200.143 302.43 200.472 302.561C200.802 302.689 201.097 302.886 201.359 303.153C201.623 303.418 201.832 303.751 201.985 304.155C202.139 304.555 202.215 305.03 202.215 305.578V305.953H197.102V305.284H201.44C201.44 304.864 201.355 304.486 201.184 304.151C201.016 303.812 200.782 303.545 200.481 303.349C200.183 303.153 199.837 303.055 199.445 303.055C199.031 303.055 198.666 303.166 198.35 303.388C198.035 303.609 197.788 303.902 197.609 304.266C197.433 304.629 197.343 305.027 197.34 305.459V305.859C197.34 306.379 197.43 306.834 197.609 307.223C197.791 307.609 198.048 307.909 198.38 308.122C198.712 308.335 199.106 308.442 199.561 308.442C199.87 308.442 200.141 308.393 200.374 308.297C200.61 308.2 200.808 308.071 200.967 307.909C201.129 307.744 201.251 307.564 201.333 307.368L202.053 307.602C201.954 307.878 201.791 308.132 201.563 308.365C201.339 308.598 201.058 308.786 200.72 308.928C200.384 309.067 199.998 309.136 199.561 309.136ZM205.34 309L203.363 302.455H204.164L205.715 307.854H205.77L207.317 302.455H208.123L209.657 307.841H209.716L211.268 302.455H212.069L210.091 309H209.307L207.756 303.635H207.675L206.124 309H205.34ZM215.371 309.149C214.976 309.149 214.616 309.072 214.289 308.919C213.962 308.763 213.702 308.538 213.509 308.246C213.316 307.95 213.219 307.592 213.219 307.172C213.219 306.848 213.28 306.575 213.402 306.354C213.525 306.132 213.698 305.95 213.922 305.808C214.147 305.666 214.412 305.554 214.719 305.472C215.026 305.389 215.364 305.325 215.733 305.28C216.1 305.234 216.41 305.195 216.662 305.161C216.918 305.126 217.113 305.072 217.246 304.999C217.38 304.925 217.447 304.805 217.447 304.641V304.487C217.447 304.041 217.313 303.69 217.046 303.435C216.782 303.176 216.401 303.047 215.904 303.047C215.432 303.047 215.047 303.151 214.749 303.358C214.454 303.565 214.246 303.81 214.127 304.091L213.407 303.831C213.554 303.473 213.759 303.187 214.02 302.974C214.282 302.759 214.574 302.604 214.898 302.51C215.222 302.413 215.55 302.365 215.883 302.365C216.133 302.365 216.393 302.398 216.662 302.463C216.935 302.528 217.188 302.642 217.421 302.804C217.654 302.963 217.843 303.186 217.988 303.473C218.133 303.757 218.205 304.118 218.205 304.555V309H217.447V307.964H217.4C217.309 308.158 217.174 308.345 216.995 308.527C216.816 308.709 216.591 308.858 216.322 308.974C216.052 309.091 215.735 309.149 215.371 309.149ZM215.474 308.455C215.877 308.455 216.226 308.365 216.522 308.186C216.817 308.007 217.045 307.77 217.204 307.474C217.366 307.176 217.447 306.848 217.447 306.49V305.544C217.39 305.598 217.295 305.646 217.161 305.689C217.03 305.732 216.878 305.77 216.705 305.804C216.535 305.835 216.364 305.862 216.194 305.885C216.023 305.908 215.87 305.928 215.733 305.945C215.364 305.99 215.049 306.061 214.787 306.158C214.526 306.254 214.326 306.388 214.187 306.558C214.047 306.726 213.978 306.942 213.978 307.206C213.978 307.604 214.12 307.912 214.404 308.131C214.688 308.347 215.045 308.455 215.474 308.455ZM220.223 309V302.455H220.96V303.46H221.015C221.146 303.131 221.373 302.865 221.697 302.663C222.024 302.459 222.393 302.357 222.805 302.357C222.868 302.357 222.937 302.358 223.014 302.361C223.091 302.364 223.155 302.366 223.206 302.369V303.141C223.172 303.135 223.112 303.126 223.027 303.115C222.942 303.104 222.849 303.098 222.75 303.098C222.409 303.098 222.105 303.17 221.838 303.315C221.574 303.457 221.365 303.655 221.211 303.908C221.058 304.161 220.981 304.449 220.981 304.773V309H220.223ZM226.657 309.136C226.121 309.136 225.65 308.994 225.247 308.71C224.844 308.426 224.528 308.03 224.301 307.521C224.076 307.013 223.964 306.42 223.964 305.744C223.964 305.071 224.076 304.482 224.301 303.976C224.528 303.467 224.845 303.072 225.251 302.791C225.657 302.507 226.13 302.365 226.67 302.365C227.068 302.365 227.399 302.436 227.663 302.578C227.927 302.717 228.139 302.891 228.298 303.098C228.457 303.305 228.581 303.507 228.669 303.703H228.737V300.273H229.5V309H228.758V307.786H228.669C228.581 307.984 228.456 308.189 228.294 308.399C228.132 308.607 227.917 308.781 227.65 308.923C227.386 309.065 227.055 309.136 226.657 309.136ZM226.747 308.442C227.17 308.442 227.531 308.327 227.829 308.097C228.128 307.864 228.355 307.544 228.511 307.138C228.67 306.729 228.75 306.26 228.75 305.732C228.75 305.209 228.672 304.747 228.515 304.347C228.359 303.943 228.132 303.628 227.834 303.401C227.535 303.17 227.173 303.055 226.747 303.055C226.309 303.055 225.94 303.175 225.639 303.413C225.341 303.649 225.113 303.969 224.957 304.372C224.804 304.776 224.727 305.229 224.727 305.732C224.727 306.24 224.805 306.699 224.961 307.108C225.118 307.517 225.345 307.842 225.643 308.084C225.944 308.322 226.312 308.442 226.747 308.442ZM236.058 303.891L235.363 304.087C235.295 303.891 235.199 303.713 235.074 303.554C234.949 303.395 234.785 303.268 234.584 303.175C234.385 303.081 234.138 303.034 233.842 303.034C233.399 303.034 233.035 303.139 232.751 303.349C232.467 303.56 232.325 303.831 232.325 304.163C232.325 304.445 232.422 304.673 232.615 304.849C232.811 305.023 233.112 305.161 233.518 305.263L234.507 305.506C235.055 305.639 235.466 305.851 235.738 306.141C236.014 306.43 236.152 306.794 236.152 307.232C236.152 307.601 236.049 307.929 235.845 308.216C235.64 308.503 235.355 308.729 234.988 308.893C234.625 309.055 234.203 309.136 233.723 309.136C233.084 309.136 232.557 308.993 232.142 308.706C231.727 308.416 231.461 307.999 231.345 307.453L232.074 307.274C232.167 307.663 232.351 307.957 232.623 308.156C232.899 308.355 233.261 308.455 233.71 308.455C234.213 308.455 234.615 308.342 234.916 308.118C235.217 307.891 235.368 307.607 235.368 307.266C235.368 307.001 235.28 306.78 235.103 306.601C234.927 306.419 234.66 306.286 234.302 306.2L233.233 305.945C232.665 305.808 232.244 305.592 231.971 305.297C231.699 305.001 231.562 304.635 231.562 304.197C231.562 303.837 231.66 303.52 231.856 303.247C232.052 302.972 232.322 302.756 232.666 302.599C233.01 302.443 233.402 302.365 233.842 302.365C234.442 302.365 234.92 302.501 235.278 302.774C235.639 303.044 235.899 303.416 236.058 303.891Z" fill="#656565"/>
</g>
<g filter="url(#filter6_d_10_32)">
<path d="M160.101 141.114L192.34 90.5089C198.456 94.4479 204.126 99.0393 209.25 104.202L166.454 146.259C164.516 144.334 162.387 142.61 160.101 141.114Z" fill="#BA48FF" stroke="#656565"/>
<path d="M169.487 149.626L215.785 111.46C227.1 125.326 234.507 141.962 237.241 159.648L177.899 168.519C176.777 161.6 173.878 155.09 169.487 149.626Z" fill="#6DBC9E" stroke="#656565"/>
<path d="M178.373 173.026L238.262 169.361C239.06 183.547 236.84 197.744 231.747 211.012C226.654 224.281 218.806 236.317 208.722 246.327L166.663 203.533C170.626 199.541 173.715 194.767 175.731 189.512C177.748 184.258 178.647 178.643 178.373 173.026Z" fill="#FACC13" stroke="#656565"/>
<path d="M163.296 206.565L201.464 252.862C186.315 265.225 167.886 272.903 148.433 274.949C128.98 276.995 109.356 273.319 91.9668 264.378L119.668 211.154C126.609 214.658 134.417 216.092 142.157 215.278C149.897 214.464 157.235 211.437 163.296 206.565Z" fill="#ABABAB" stroke="#656565"/>
<path d="M115.743 208.888L83.5084 259.496C68.4618 249.806 56.2754 236.275 48.2087 220.299L101.904 193.521C105.109 199.755 109.878 205.05 115.743 208.888Z" fill="#782EFF" stroke="#656565"/>
<path d="M125.222 75.3056C145.367 72.7396 165.813 76.3371 183.867 85.6177L156.17 138.845C148.96 135.205 140.823 133.803 132.803 134.825C124.619 135.867 116.948 139.385 110.817 144.906C104.686 150.428 100.388 157.691 98.4977 165.722C96.6458 173.591 97.192 181.831 100.06 189.381L44.2354 211.378C36.8876 192.454 35.4411 171.745 40.0932 151.977C44.7835 132.047 55.4491 114.026 70.6626 100.323C85.8761 86.6212 104.912 77.8926 125.222 75.3056Z" fill="#CF009B" stroke="#656565"/>
</g>
<defs>
<filter id="filter0_d_10_32" x="84.9206" y="284" width="87.2578" height="96.5043" filterUnits="userSpaceOnUse" color-interpolation-filters="sRGB">
<feFlood flood-opacity="0" result="BackgroundImageFix"/>
<feColorMatrix in="SourceAlpha" type="matrix" values="0 0 0 0 0 0 0 0 0 0 0 0 0 0 0 0 0 0 127 0" result="hardAlpha"/>
<feOffset dy="4"/>
<feGaussianBlur stdDeviation="2"/>
<feComposite in2="hardAlpha" operator="out"/>
<feColorMatrix type="matrix" values="0 0 0 0 0 0 0 0 0 0 0 0 0 0 0 0 0 0 0.25 0"/>
<feBlend mode="normal" in2="BackgroundImageFix" result="effect1_dropShadow_10_32"/>
<feBlend mode="normal" in="SourceGraphic" in2="effect1_dropShadow_10_32" result="shape"/>
</filter>
<filter id="filter1_d_10_32" x="96.1493" y="40.9503" width="110.271" height="59.0497" filterUnits="userSpaceOnUse" color-interpolation-filters="sRGB">
<feFlood flood-opacity="0" result="BackgroundImageFix"/>
<feColorMatrix in="SourceAlpha" type="matrix" values="0 0 0 0 0 0 0 0 0 0 0 0 0 0 0 0 0 0 127 0" result="hardAlpha"/>
<feOffset dy="4"/>
<feGaussianBlur stdDeviation="2"/>
<feComposite in2="hardAlpha" operator="out"/>
<feColorMatrix type="matrix" values="0 0 0 0 0 0 0 0 0 0 0 0 0 0 0 0 0 0 0.25 0"/>
<feBlend mode="normal" in2="BackgroundImageFix" result="effect1_dropShadow_10_32"/>
<feBlend mode="normal" in="SourceGraphic" in2="effect1_dropShadow_10_32" result="shape"/>
</filter>
<filter id="filter2_d_10_32" x="24.7584" y="249" width="98.5721" height="81.1492" filterUnits="userSpaceOnUse" color-interpolation-filters="sRGB">
<feFlood flood-opacity="0" result="BackgroundImageFix"/>
<feColorMatrix in="SourceAlpha" type="matrix" values="0 0 0 0 0 0 0 0 0 0 0 0 0 0 0 0 0 0 127 0" result="hardAlpha"/>
<feOffset dy="4"/>
<feGaussianBlur stdDeviation="2"/>
<feComposite in2="hardAlpha" operator="out"/>
<feColorMatrix type="matrix" values="0 0 0 0 0 0 0 0 0 0 0 0 0 0 0 0 0 0 0.25 0"/>
<feBlend mode="normal" in2="BackgroundImageFix" result="effect1_dropShadow_10_32"/>
<feBlend mode="normal" in="SourceGraphic" in2="effect1_dropShadow_10_32" result="shape"/>
</filter>
<filter id="filter3_d_10_32" x="33.8794" y="3.95029" width="96.1206" height="105.05" filterUnits="userSpaceOnUse" color-interpolation-filters="sRGB">
<feFlood flood-opacity="0" result="BackgroundImageFix"/>
<feColorMatrix in="SourceAlpha" type="matrix" values="0 0 0 0 0 0 0 0 0 0 0 0 0 0 0 0 0 0 127 0" result="hardAlpha"/>
<feOffset dy="4"/>
<feGaussianBlur stdDeviation="2"/>
<feComposite in2="hardAlpha" operator="out"/>
<feColorMatrix type="matrix" values="0 0 0 0 0 0 0 0 0 0 0 0 0 0 0 0 0 0 0.25 0"/>
<feBlend mode="normal" in2="BackgroundImageFix" result="effect1_dropShadow_10_32"/>
<feBlend mode="normal" in="SourceGraphic" in2="effect1_dropShadow_10_32" result="shape"/>
</filter>
<filter id="filter4_d_10_32" x="140.514" y="3.95029" width="110.41" height="105.05" filterUnits="userSpaceOnUse" color-interpolation-filters="sRGB">
<feFlood flood-opacity="0" result="BackgroundImageFix"/>
<feColorMatrix in="SourceAlpha" type="matrix" values="0 0 0 0 0 0 0 0 0 0 0 0 0 0 0 0 0 0 127 0" result="hardAlpha"/>
<feOffset dy="4"/>
<feGaussianBlur stdDeviation="2"/>
<feComposite in2="hardAlpha" operator="out"/>
<feColorMatrix type="matrix" values="0 0 0 0 0 0 0 0 0 0 0 0 0 0 0 0 0 0 0.25 0"/>
<feBlend mode="normal" in2="BackgroundImageFix" result="effect1_dropShadow_10_32"/>
<feBlend mode="normal" in="SourceGraphic" in2="effect1_dropShadow_10_32" result="shape"/>
</filter>
<filter id="filter5_d_10_32" x="140.936" y="249" width="99.2155" height="68.5043" filterUnits="userSpaceOnUse" color-interpolation-filters="sRGB">
<feFlood flood-opacity="0" result="BackgroundImageFix"/>
<feColorMatrix in="SourceAlpha" type="matrix" values="0 0 0 0 0 0 0 0 0 0 0 0 0 0 0 0 0 0 127 0" result="hardAlpha"/>
<feOffset dy="4"/>
<feGaussianBlur stdDeviation="2"/>
<feComposite in2="hardAlpha" operator="out"/>
<feColorMatrix type="matrix" values="0 0 0 0 0 0 0 0 0 0 0 0 0 0 0 0 0 0 0.25 0"/>
<feBlend mode="normal" in2="BackgroundImageFix" result="effect1_dropShadow_10_32"/>
<feBlend mode="normal" in="SourceGraphic" in2="effect1_dropShadow_10_32" result="shape"/>
</filter>
<filter id="filter6_d_10_32" x="32.9207" y="74" width="210" height="210" filterUnits="userSpaceOnUse" color-interpolation-filters="sRGB">
<feFlood flood-opacity="0" result="BackgroundImageFix"/>
<feColorMatrix in="SourceAlpha" type="matrix" values="0 0 0 0 0 0 0 0 0 0 0 0 0 0 0 0 0 0 127 0" result="hardAlpha"/>
<feOffset dy="4"/>
<feGaussianBlur stdDeviation="2"/>
<feComposite in2="hardAlpha" operator="out"/>
<feColorMatrix type="matrix" values="0 0 0 0 0 0 0 0 0 0 0 0 0 0 0 0 0 0 0.25 0"/>
<feBlend mode="normal" in2="BackgroundImageFix" result="effect1_dropShadow_10_32"/>
<feBlend mode="normal" in="SourceGraphic" in2="effect1_dropShadow_10_32" result="shape"/>
</filter>
</defs>
</svg>
