<svg width="368" height="233" viewBox="0 0 368 233" fill="none" xmlns="http://www.w3.org/2000/svg">
<path d="M97 43V25H27" stroke="white"/>
<path d="M34.5554 19.1989C33.4948 19.1989 32.5502 19.0166 31.7216 18.652C30.8977 18.2827 30.2467 17.776 29.7685 17.1321C29.295 16.4834 29.0511 15.7353 29.0369 14.8878H32.1335C32.1525 15.2429 32.2685 15.5554 32.4815 15.8253C32.6993 16.0904 32.9882 16.2964 33.348 16.4432C33.7079 16.59 34.1127 16.6634 34.5625 16.6634C35.0312 16.6634 35.4455 16.5805 35.8054 16.4148C36.1652 16.2491 36.447 16.0194 36.6506 15.7259C36.8542 15.4323 36.956 15.0937 36.956 14.7102C36.956 14.322 36.8471 13.9787 36.6293 13.6804C36.4162 13.3774 36.1084 13.1406 35.706 12.9702C35.3082 12.7997 34.8348 12.7145 34.2855 12.7145H32.929V10.456H34.2855C34.7495 10.456 35.1591 10.3755 35.5142 10.2145C35.8741 10.0535 36.1534 9.83097 36.3523 9.54688C36.5511 9.25805 36.6506 8.92188 36.6506 8.53835C36.6506 8.17377 36.563 7.85417 36.3878 7.57955C36.2173 7.30019 35.9759 7.08239 35.6634 6.92614C35.3556 6.76989 34.9957 6.69176 34.5838 6.69176C34.1671 6.69176 33.786 6.76752 33.4403 6.91903C33.0947 7.06581 32.8177 7.27651 32.6094 7.55114C32.401 7.82576 32.2898 8.14773 32.2756 8.51705H29.3281C29.3423 7.67898 29.5814 6.94034 30.0455 6.30114C30.5095 5.66193 31.1345 5.1624 31.9205 4.80256C32.7112 4.43797 33.6037 4.25568 34.598 4.25568C35.6018 4.25568 36.4801 4.43797 37.233 4.80256C37.9858 5.16714 38.5705 5.65956 38.9872 6.27983C39.4086 6.89536 39.617 7.58665 39.6122 8.35369C39.617 9.16809 39.3636 9.84754 38.8523 10.392C38.3456 10.9366 37.6851 11.2822 36.8707 11.429V11.5426C37.9408 11.6799 38.7552 12.0516 39.3139 12.6577C39.8774 13.259 40.1567 14.0118 40.152 14.9162C40.1567 15.7448 39.9176 16.4811 39.4347 17.125C38.9564 17.7689 38.2959 18.2756 37.4531 18.6449C36.6103 19.0142 35.6444 19.1989 34.5554 19.1989ZM48.0657 19.3196C46.8441 19.3149 45.793 19.0142 44.9123 18.4176C44.0363 17.821 43.3616 16.9569 42.8881 15.8253C42.4194 14.6937 42.1874 13.3324 42.1921 11.7415C42.1921 10.1553 42.4265 8.8035 42.8952 7.68608C43.3687 6.56865 44.0434 5.71875 44.9194 5.13636C45.8001 4.54924 46.8488 4.25568 48.0657 4.25568C49.2826 4.25568 50.329 4.54924 51.2049 5.13636C52.0856 5.72348 52.7627 6.57576 53.2362 7.69318C53.7096 8.80587 53.944 10.1553 53.9393 11.7415C53.9393 13.3371 53.7025 14.7008 53.229 15.8324C52.7603 16.964 52.088 17.8281 51.212 18.4247C50.3361 19.0213 49.2873 19.3196 48.0657 19.3196ZM48.0657 16.7699C48.899 16.7699 49.5643 16.3509 50.0614 15.5128C50.5586 14.6747 50.8048 13.4176 50.8001 11.7415C50.8001 10.6383 50.6864 9.7197 50.4592 8.9858C50.2366 8.25189 49.9194 7.70028 49.5075 7.33097C49.1003 6.96165 48.6197 6.77699 48.0657 6.77699C47.2371 6.77699 46.5742 7.19129 46.0771 8.01989C45.5799 8.84848 45.329 10.089 45.3242 11.7415C45.3242 12.8589 45.4355 13.7917 45.658 14.5398C45.8853 15.2831 46.2049 15.8419 46.6168 16.2159C47.0288 16.5852 47.5117 16.7699 48.0657 16.7699ZM64.0938 16.2727V15.5057C64.0938 14.9233 64.2169 14.3883 64.4631 13.9006C64.714 13.4081 65.0762 13.0152 65.5497 12.7216C66.0279 12.4233 66.6103 12.2741 67.2969 12.2741C67.9929 12.2741 68.5777 12.4209 69.0511 12.7145C69.5294 13.008 69.8892 13.401 70.1307 13.8935C70.3769 14.3812 70.5 14.9186 70.5 15.5057V16.2727C70.5 16.8551 70.3769 17.3925 70.1307 17.8849C69.8845 18.3726 69.5223 18.7633 69.044 19.0568C68.5658 19.3551 67.9834 19.5043 67.2969 19.5043C66.6009 19.5043 66.0161 19.3551 65.5426 19.0568C65.0691 18.7633 64.7093 18.3726 64.4631 17.8849C64.2169 17.3925 64.0938 16.8551 64.0938 16.2727ZM66.1605 15.5057V16.2727C66.1605 16.6089 66.241 16.9261 66.402 17.2244C66.5677 17.5227 66.866 17.6719 67.2969 17.6719C67.7277 17.6719 68.0213 17.5251 68.1776 17.2315C68.3385 16.938 68.419 16.6184 68.419 16.2727V15.5057C68.419 15.16 68.3433 14.8381 68.1918 14.5398C68.0402 14.2415 67.742 14.0923 67.2969 14.0923C66.8707 14.0923 66.5748 14.2415 66.4091 14.5398C66.2434 14.8381 66.1605 15.16 66.1605 15.5057ZM56.6293 7.94886V7.18182C56.6293 6.5947 56.7547 6.05729 57.0057 5.5696C57.2566 5.07718 57.6188 4.68419 58.0923 4.39062C58.5705 4.09706 59.1482 3.95028 59.8253 3.95028C60.526 3.95028 61.1132 4.09706 61.5866 4.39062C62.0601 4.68419 62.42 5.07718 62.6662 5.5696C62.9124 6.05729 63.0355 6.5947 63.0355 7.18182V7.94886C63.0355 8.53598 62.91 9.07339 62.6591 9.56108C62.4129 10.0488 62.0507 10.4394 61.5724 10.733C61.099 11.0218 60.5166 11.1662 59.8253 11.1662C59.134 11.1662 58.5492 11.0194 58.071 10.7259C57.5975 10.4276 57.2377 10.0369 56.9915 9.55398C56.75 9.06629 56.6293 8.53125 56.6293 7.94886ZM58.7102 7.18182V7.94886C58.7102 8.29451 58.7907 8.61411 58.9517 8.90767C59.1174 9.20123 59.4086 9.34801 59.8253 9.34801C60.2609 9.34801 60.5568 9.20123 60.7131 8.90767C60.8741 8.61411 60.9545 8.29451 60.9545 7.94886V7.18182C60.9545 6.83617 60.8788 6.5142 60.7273 6.21591C60.5758 5.91761 60.2751 5.76847 59.8253 5.76847C59.4039 5.76847 59.1127 5.91998 58.9517 6.22301C58.7907 6.52604 58.7102 6.84564 58.7102 7.18182ZM57.5668 19L67.5668 4.45455H69.4276L59.4276 19H57.5668ZM76.0771 19V10.2727H79.0217C79.5898 10.2727 80.0629 10.3722 80.4407 10.571C80.8214 10.7699 81.1069 11.0412 81.2972 11.3849C81.4876 11.7287 81.5827 12.1193 81.5827 12.5568C81.5827 12.9205 81.5217 13.2315 81.3995 13.4901C81.2773 13.7486 81.1112 13.9574 80.9009 14.1165C80.6907 14.2756 80.4563 14.3906 80.1978 14.4616V14.5298C80.479 14.5497 80.7518 14.6491 81.016 14.8281C81.2802 15.0043 81.4975 15.2514 81.668 15.5696C81.8384 15.8878 81.9237 16.2685 81.9237 16.7116C81.9237 17.152 81.8256 17.5455 81.6296 17.892C81.4336 18.2358 81.1325 18.5071 80.7262 18.706C80.3228 18.902 79.8086 19 79.1836 19H76.0771ZM76.8739 18.2841H79.1836C79.8569 18.2841 80.354 18.1349 80.6751 17.8366C80.9989 17.5384 81.1609 17.1634 81.1609 16.7116C81.1609 16.3793 81.0799 16.0781 80.918 15.8082C80.7589 15.5355 80.533 15.3196 80.2404 15.1605C79.9506 15.0014 79.6097 14.9219 79.2177 14.9219H76.8739V18.2841ZM76.8739 14.2145H79.0941C79.4379 14.2145 79.739 14.1435 79.9975 14.0014C80.256 13.8594 80.4577 13.6634 80.6026 13.4134C80.7475 13.1634 80.82 12.8778 80.82 12.5568C80.82 12.0937 80.6694 11.7173 80.3683 11.4276C80.0671 11.1349 79.6183 10.9886 79.0217 10.9886H76.8739V14.2145ZM87.848 16.4986V12.4545H88.6065V19H87.848V17.9134H87.7884C87.6349 18.2486 87.392 18.5284 87.0597 18.7528C86.7273 18.9744 86.321 19.0852 85.8409 19.0852C85.4233 19.0852 85.0526 18.9943 84.7287 18.8125C84.4048 18.6278 84.1506 18.358 83.9659 18.0028C83.7813 17.6477 83.6889 17.2116 83.6889 16.6946V12.4545H84.4474V16.6477C84.4474 17.1591 84.598 17.571 84.8991 17.8835C85.2003 18.1932 85.5866 18.348 86.0582 18.348C86.3537 18.348 86.6378 18.277 86.9105 18.1349C87.1832 17.9929 87.4077 17.7855 87.5838 17.5128C87.7599 17.2372 87.848 16.8991 87.848 16.4986ZM90.6147 19V12.4545H91.3519V13.4602H91.4073C91.538 13.1307 91.7653 12.8651 92.0891 12.6634C92.4158 12.4588 92.7852 12.3565 93.1971 12.3565C93.2596 12.3565 93.3292 12.358 93.4059 12.3608C93.4826 12.3636 93.5465 12.3665 93.5977 12.3693V13.1406C93.5636 13.1349 93.5039 13.1264 93.4187 13.1151C93.3335 13.1037 93.2411 13.098 93.1417 13.098C92.8008 13.098 92.4968 13.1705 92.2298 13.3153C91.9656 13.4574 91.7567 13.6548 91.6033 13.9077C91.4499 14.1605 91.3732 14.4489 91.3732 14.7727V19H90.6147ZM95.6506 14.9091V19H94.892V12.4545H95.6293V13.4815H95.6974C95.8509 13.1463 96.0895 12.8778 96.4134 12.6761C96.7401 12.4716 97.1435 12.3693 97.6236 12.3693C98.0639 12.3693 98.4503 12.4616 98.7827 12.6463C99.1179 12.8281 99.3778 13.0966 99.5625 13.4517C99.75 13.8068 99.8438 14.2429 99.8438 14.7599V19H99.0852V14.8068C99.0852 14.2699 98.9347 13.8452 98.6335 13.5327C98.3352 13.2202 97.9347 13.0639 97.4318 13.0639C97.0881 13.0639 96.7827 13.1378 96.5156 13.2855C96.2486 13.4332 96.0369 13.6463 95.8807 13.9247C95.7273 14.2003 95.6506 14.5284 95.6506 14.9091Z" fill="white"/>
<path d="M290 132V131H368" stroke="white"/>
<path d="M293.895 125.119C293.293 125.119 292.756 125.009 292.284 124.787C291.815 124.565 291.443 124.26 291.168 123.871C290.892 123.482 290.749 123.036 290.737 122.533H292.527C292.547 122.871 292.689 123.145 292.953 123.355C293.217 123.565 293.531 123.67 293.895 123.67C294.185 123.67 294.44 123.607 294.662 123.479C294.886 123.348 295.061 123.168 295.186 122.938C295.314 122.705 295.378 122.437 295.378 122.136C295.378 121.83 295.313 121.56 295.182 121.327C295.054 121.094 294.876 120.912 294.649 120.781C294.422 120.651 294.162 120.584 293.869 120.581C293.614 120.581 293.365 120.634 293.124 120.739C292.885 120.844 292.699 120.987 292.565 121.169L290.925 120.875L291.338 116.273H296.673V117.781H292.859L292.634 119.967H292.685C292.838 119.751 293.07 119.572 293.379 119.43C293.689 119.288 294.036 119.217 294.419 119.217C294.945 119.217 295.413 119.341 295.825 119.588C296.237 119.835 296.562 120.175 296.801 120.607C297.04 121.036 297.158 121.53 297.155 122.089C297.158 122.678 297.021 123.2 296.746 123.658C296.473 124.112 296.091 124.47 295.599 124.732C295.111 124.99 294.543 125.119 293.895 125.119ZM303.219 123.364V122.903C303.219 122.554 303.293 122.233 303.44 121.94C303.591 121.645 303.808 121.409 304.092 121.233C304.379 121.054 304.729 120.964 305.141 120.964C305.558 120.964 305.909 121.053 306.193 121.229C306.48 121.405 306.696 121.641 306.841 121.936C306.989 122.229 307.062 122.551 307.062 122.903V123.364C307.062 123.713 306.989 124.036 306.841 124.331C306.693 124.624 306.476 124.858 306.189 125.034C305.902 125.213 305.553 125.303 305.141 125.303C304.723 125.303 304.372 125.213 304.088 125.034C303.804 124.858 303.588 124.624 303.44 124.331C303.293 124.036 303.219 123.713 303.219 123.364ZM304.459 122.903V123.364C304.459 123.565 304.507 123.756 304.604 123.935C304.703 124.114 304.882 124.203 305.141 124.203C305.399 124.203 305.575 124.115 305.669 123.939C305.766 123.763 305.814 123.571 305.814 123.364V122.903C305.814 122.696 305.768 122.503 305.678 122.324C305.587 122.145 305.408 122.055 305.141 122.055C304.885 122.055 304.707 122.145 304.608 122.324C304.509 122.503 304.459 122.696 304.459 122.903ZM298.74 118.369V117.909C298.74 117.557 298.815 117.234 298.966 116.942C299.116 116.646 299.334 116.411 299.618 116.234C299.905 116.058 300.251 115.97 300.658 115.97C301.078 115.97 301.43 116.058 301.714 116.234C301.999 116.411 302.214 116.646 302.362 116.942C302.51 117.234 302.584 117.557 302.584 117.909V118.369C302.584 118.722 302.509 119.044 302.358 119.337C302.21 119.629 301.993 119.864 301.706 120.04C301.422 120.213 301.072 120.3 300.658 120.3C300.243 120.3 299.892 120.212 299.605 120.036C299.321 119.857 299.105 119.622 298.957 119.332C298.813 119.04 298.74 118.719 298.74 118.369ZM299.989 117.909V118.369C299.989 118.577 300.037 118.768 300.134 118.945C300.233 119.121 300.408 119.209 300.658 119.209C300.919 119.209 301.097 119.121 301.19 118.945C301.287 118.768 301.335 118.577 301.335 118.369V117.909C301.335 117.702 301.29 117.509 301.199 117.33C301.108 117.151 300.928 117.061 300.658 117.061C300.405 117.061 300.23 117.152 300.134 117.334C300.037 117.516 299.989 117.707 299.989 117.909ZM299.303 125L305.303 116.273H306.419L300.419 125H299.303ZM314.54 125H311.983V116.273H314.694C315.526 116.273 316.238 116.446 316.828 116.793C317.422 117.139 317.877 117.636 318.192 118.284C318.507 118.932 318.665 119.709 318.665 120.615C318.665 121.53 318.503 122.315 318.179 122.972C317.858 123.625 317.39 124.126 316.773 124.476C316.159 124.825 315.415 125 314.54 125ZM312.78 124.284H314.493C315.243 124.284 315.871 124.136 316.377 123.841C316.882 123.545 317.262 123.124 317.515 122.575C317.767 122.027 317.894 121.374 317.894 120.615C317.891 119.862 317.766 119.214 317.519 118.672C317.275 118.129 316.911 117.713 316.428 117.423C315.948 117.134 315.354 116.989 314.647 116.989H312.78V124.284ZM323.085 125.136C322.474 125.136 321.946 124.994 321.5 124.71C321.054 124.423 320.709 124.027 320.464 123.521C320.223 123.013 320.102 122.428 320.102 121.766C320.102 121.107 320.223 120.521 320.464 120.01C320.709 119.496 321.045 119.094 321.474 118.804C321.906 118.511 322.405 118.365 322.97 118.365C323.325 118.365 323.668 118.43 323.997 118.561C324.327 118.689 324.622 118.886 324.884 119.153C325.148 119.418 325.357 119.751 325.51 120.155C325.663 120.555 325.74 121.03 325.74 121.578V121.953H320.626V121.284H324.964C324.964 120.864 324.879 120.486 324.709 120.151C324.541 119.812 324.307 119.545 324.006 119.349C323.707 119.153 323.362 119.055 322.97 119.055C322.555 119.055 322.19 119.166 321.875 119.388C321.56 119.609 321.313 119.902 321.134 120.266C320.957 120.629 320.868 121.027 320.865 121.459V121.859C320.865 122.379 320.955 122.834 321.134 123.223C321.315 123.609 321.572 123.909 321.905 124.122C322.237 124.335 322.631 124.442 323.085 124.442C323.395 124.442 323.666 124.393 323.899 124.297C324.135 124.2 324.332 124.071 324.491 123.909C324.653 123.744 324.776 123.564 324.858 123.368L325.578 123.602C325.479 123.878 325.315 124.132 325.088 124.365C324.864 124.598 324.582 124.786 324.244 124.928C323.909 125.067 323.523 125.136 323.085 125.136ZM332.279 118.455L329.888 125H329.079L326.688 118.455H327.511L329.454 123.999H329.513L331.457 118.455H332.279ZM336.175 125.136C335.564 125.136 335.036 124.994 334.59 124.71C334.144 124.423 333.799 124.027 333.554 123.521C333.313 123.013 333.192 122.428 333.192 121.766C333.192 121.107 333.313 120.521 333.554 120.01C333.799 119.496 334.135 119.094 334.564 118.804C334.996 118.511 335.495 118.365 336.06 118.365C336.415 118.365 336.757 118.43 337.087 118.561C337.417 118.689 337.712 118.886 337.973 119.153C338.238 119.418 338.446 119.751 338.6 120.155C338.753 120.555 338.83 121.03 338.83 121.578V121.953H333.716V121.284H338.054C338.054 120.864 337.969 120.486 337.799 120.151C337.631 119.812 337.397 119.545 337.096 119.349C336.797 119.153 336.452 119.055 336.06 119.055C335.645 119.055 335.28 119.166 334.965 119.388C334.65 119.609 334.402 119.902 334.223 120.266C334.047 120.629 333.958 121.027 333.955 121.459V121.859C333.955 122.379 334.044 122.834 334.223 123.223C334.405 123.609 334.662 123.909 334.995 124.122C335.327 124.335 335.721 124.442 336.175 124.442C336.485 124.442 336.756 124.393 336.989 124.297C337.225 124.2 337.422 124.071 337.581 123.909C337.743 123.744 337.865 123.564 337.948 123.368L338.668 123.602C338.569 123.878 338.405 124.132 338.178 124.365C337.953 124.598 337.672 124.786 337.334 124.928C336.999 125.067 336.613 125.136 336.175 125.136ZM341.26 116.273V125H340.501V116.273H341.26ZM345.811 125.136C345.246 125.136 344.746 124.993 344.311 124.706C343.879 124.419 343.541 124.023 343.297 123.517C343.053 123.009 342.93 122.422 342.93 121.757C342.93 121.087 343.053 120.497 343.297 119.989C343.541 119.477 343.879 119.08 344.311 118.795C344.746 118.509 345.246 118.365 345.811 118.365C346.376 118.365 346.875 118.509 347.307 118.795C347.739 119.082 348.077 119.48 348.321 119.989C348.568 120.497 348.692 121.087 348.692 121.757C348.692 122.422 348.57 123.009 348.325 123.517C348.081 124.023 347.741 124.419 347.307 124.706C346.875 124.993 346.376 125.136 345.811 125.136ZM345.811 124.442C346.266 124.442 346.651 124.32 346.966 124.075C347.281 123.831 347.52 123.506 347.682 123.099C347.847 122.693 347.929 122.246 347.929 121.757C347.929 121.268 347.847 120.82 347.682 120.411C347.52 120.001 347.281 119.673 346.966 119.426C346.651 119.179 346.266 119.055 345.811 119.055C345.359 119.055 344.974 119.179 344.656 119.426C344.341 119.673 344.101 120.001 343.936 120.411C343.774 120.82 343.693 121.268 343.693 121.757C343.693 122.246 343.774 122.693 343.936 123.099C344.101 123.506 344.341 123.831 344.656 124.075C344.972 124.32 345.357 124.442 345.811 124.442ZM350.357 127.455V118.455H351.094V119.703H351.184C351.275 119.507 351.4 119.307 351.559 119.102C351.718 118.895 351.928 118.72 352.189 118.578C352.453 118.436 352.786 118.365 353.186 118.365C353.726 118.365 354.198 118.507 354.601 118.791C355.007 119.072 355.323 119.467 355.547 119.976C355.775 120.482 355.888 121.071 355.888 121.744C355.888 122.42 355.775 123.013 355.547 123.521C355.323 124.03 355.007 124.426 354.601 124.71C354.198 124.994 353.729 125.136 353.195 125.136C352.8 125.136 352.469 125.065 352.202 124.923C351.938 124.781 351.723 124.607 351.559 124.399C351.397 124.189 351.272 123.984 351.184 123.786H351.115V127.455H350.357ZM351.107 121.732C351.107 122.26 351.185 122.729 351.341 123.138C351.5 123.544 351.728 123.864 352.023 124.097C352.321 124.327 352.682 124.442 353.105 124.442C353.54 124.442 353.907 124.322 354.205 124.084C354.506 123.842 354.735 123.517 354.891 123.108C355.05 122.699 355.13 122.24 355.13 121.732C355.13 121.229 355.051 120.776 354.895 120.372C354.742 119.969 354.515 119.649 354.213 119.413C353.912 119.175 353.543 119.055 353.105 119.055C352.679 119.055 352.317 119.17 352.019 119.401C351.721 119.628 351.493 119.943 351.337 120.347C351.184 120.747 351.107 121.209 351.107 121.732ZM360.199 125.136C359.588 125.136 359.059 124.994 358.613 124.71C358.167 124.423 357.822 124.027 357.578 123.521C357.336 123.013 357.216 122.428 357.216 121.766C357.216 121.107 357.336 120.521 357.578 120.01C357.822 119.496 358.159 119.094 358.588 118.804C359.02 118.511 359.518 118.365 360.083 118.365C360.439 118.365 360.781 118.43 361.11 118.561C361.44 118.689 361.735 118.886 361.997 119.153C362.261 119.418 362.47 119.751 362.623 120.155C362.777 120.555 362.853 121.03 362.853 121.578V121.953H357.74V121.284H362.078C362.078 120.864 361.993 120.486 361.822 120.151C361.654 119.812 361.42 119.545 361.119 119.349C360.821 119.153 360.475 119.055 360.083 119.055C359.669 119.055 359.304 119.166 358.988 119.388C358.673 119.609 358.426 119.902 358.247 120.266C358.071 120.629 357.981 121.027 357.978 121.459V121.859C357.978 122.379 358.068 122.834 358.247 123.223C358.429 123.609 358.686 123.909 359.018 124.122C359.35 124.335 359.744 124.442 360.199 124.442C360.508 124.442 360.779 124.393 361.012 124.297C361.248 124.2 361.446 124.071 361.605 123.909C361.767 123.744 361.889 123.564 361.971 123.368L362.691 123.602C362.592 123.878 362.429 124.132 362.201 124.365C361.977 124.598 361.696 124.786 361.358 124.928C361.022 125.067 360.636 125.136 360.199 125.136ZM364.525 125V118.455H365.262V119.46H365.317C365.448 119.131 365.675 118.865 365.999 118.663C366.326 118.459 366.695 118.357 367.107 118.357C367.17 118.357 367.239 118.358 367.316 118.361C367.393 118.364 367.457 118.366 367.508 118.369V119.141C367.474 119.135 367.414 119.126 367.329 119.115C367.244 119.104 367.151 119.098 367.052 119.098C366.711 119.098 366.407 119.17 366.14 119.315C365.876 119.457 365.667 119.655 365.513 119.908C365.36 120.161 365.283 120.449 365.283 120.773V125H364.525Z" fill="white"/>
<path d="M100 167V177H1.90735e-06" stroke="white"/>
<path d="M6.97915 156.199C5.91854 156.199 4.97394 156.017 4.14534 155.652C3.32148 155.283 2.67044 154.776 2.19222 154.132C1.71873 153.483 1.47489 152.735 1.46068 151.888H4.55727C4.57621 152.243 4.69222 152.555 4.90529 152.825C5.12309 153.09 5.41191 153.296 5.77176 153.443C6.13161 153.59 6.53644 153.663 6.98625 153.663C7.455 153.663 7.8693 153.58 8.22915 153.415C8.589 153.249 8.87072 153.019 9.07432 152.726C9.27792 152.432 9.37972 152.094 9.37972 151.71C9.37972 151.322 9.27082 150.979 9.05301 150.68C8.83995 150.377 8.53218 150.141 8.12972 149.97C7.73199 149.8 7.25851 149.714 6.70926 149.714H5.35273V147.456H6.70926C7.17328 147.456 7.58284 147.375 7.93796 147.214C8.29781 147.054 8.57716 146.831 8.77602 146.547C8.97489 146.258 9.07432 145.922 9.07432 145.538C9.07432 145.174 8.98673 144.854 8.81154 144.58C8.64108 144.3 8.3996 144.082 8.0871 143.926C7.77934 143.77 7.41949 143.692 7.00756 143.692C6.59089 143.692 6.20974 143.768 5.86409 143.919C5.51845 144.066 5.24146 144.277 5.03313 144.551C4.82479 144.826 4.71352 145.148 4.69932 145.517H1.75188C1.76608 144.679 2.00519 143.94 2.46921 143.301C2.93322 142.662 3.55822 142.162 4.34421 141.803C5.13493 141.438 6.02745 141.256 7.02176 141.256C8.02555 141.256 8.90387 141.438 9.65671 141.803C10.4095 142.167 10.9943 142.66 11.411 143.28C11.8324 143.895 12.0407 144.587 12.036 145.354C12.0407 146.168 11.7874 146.848 11.276 147.392C10.7694 147.937 10.1089 148.282 9.29449 148.429V148.543C10.3646 148.68 11.179 149.052 11.7377 149.658C12.3011 150.259 12.5805 151.012 12.5757 151.916C12.5805 152.745 12.3414 153.481 11.8584 154.125C11.3802 154.769 10.7197 155.276 9.87688 155.645C9.03407 156.014 8.06816 156.199 6.97915 156.199ZM20.4894 156.32C19.2679 156.315 18.2167 156.014 17.336 155.418C16.4601 154.821 15.7854 153.957 15.3119 152.825C14.8431 151.694 14.6111 150.332 14.6159 148.741C14.6159 147.155 14.8502 145.804 15.319 144.686C15.7925 143.569 16.4672 142.719 17.3431 142.136C18.2238 141.549 19.2726 141.256 20.4894 141.256C21.7063 141.256 22.7527 141.549 23.6287 142.136C24.5093 142.723 25.1864 143.576 25.6599 144.693C26.1334 145.806 26.3678 147.155 26.363 148.741C26.363 150.337 26.1263 151.701 25.6528 152.832C25.1841 153.964 24.5117 154.828 23.6358 155.425C22.7598 156.021 21.711 156.32 20.4894 156.32ZM20.4894 153.77C21.3228 153.77 21.988 153.351 22.4852 152.513C22.9823 151.675 23.2286 150.418 23.2238 148.741C23.2238 147.638 23.1102 146.72 22.8829 145.986C22.6604 145.252 22.3431 144.7 21.9312 144.331C21.524 143.962 21.0434 143.777 20.4894 143.777C19.6608 143.777 18.998 144.191 18.5008 145.02C18.0037 145.848 17.7527 147.089 17.748 148.741C17.748 149.859 17.8592 150.792 18.0818 151.54C18.3091 152.283 18.6287 152.842 19.0406 153.216C19.4525 153.585 19.9355 153.77 20.4894 153.77ZM36.5175 153.273V152.506C36.5175 151.923 36.6406 151.388 36.8868 150.901C37.1378 150.408 37.5 150.015 37.9735 149.722C38.4517 149.423 39.0341 149.274 39.7206 149.274C40.4167 149.274 41.0014 149.421 41.4749 149.714C41.9531 150.008 42.313 150.401 42.5544 150.893C42.8006 151.381 42.9238 151.919 42.9238 152.506V153.273C42.9238 153.855 42.8006 154.393 42.5544 154.885C42.3082 155.373 41.946 155.763 41.4678 156.057C40.9896 156.355 40.4072 156.504 39.7206 156.504C39.0246 156.504 38.4399 156.355 37.9664 156.057C37.4929 155.763 37.133 155.373 36.8868 154.885C36.6406 154.393 36.5175 153.855 36.5175 153.273ZM38.5843 152.506V153.273C38.5843 153.609 38.6648 153.926 38.8257 154.224C38.9915 154.523 39.2898 154.672 39.7206 154.672C40.1515 154.672 40.4451 154.525 40.6013 154.232C40.7623 153.938 40.8428 153.618 40.8428 153.273V152.506C40.8428 152.16 40.767 151.838 40.6155 151.54C40.464 151.241 40.1657 151.092 39.7206 151.092C39.2945 151.092 38.9986 151.241 38.8328 151.54C38.6671 151.838 38.5843 152.16 38.5843 152.506ZM29.053 144.949V144.182C29.053 143.595 29.1785 143.057 29.4294 142.57C29.6804 142.077 30.0426 141.684 30.5161 141.391C30.9943 141.097 31.572 140.95 32.249 140.95C32.9498 140.95 33.5369 141.097 34.0104 141.391C34.4839 141.684 34.8437 142.077 35.0899 142.57C35.3362 143.057 35.4593 143.595 35.4593 144.182V144.949C35.4593 145.536 35.3338 146.073 35.0828 146.561C34.8366 147.049 34.4744 147.439 33.9962 147.733C33.5227 148.022 32.9403 148.166 32.249 148.166C31.5577 148.166 30.973 148.019 30.4948 147.726C30.0213 147.428 29.6614 147.037 29.4152 146.554C29.1738 146.066 29.053 145.531 29.053 144.949ZM31.134 144.182V144.949C31.134 145.295 31.2145 145.614 31.3755 145.908C31.5412 146.201 31.8324 146.348 32.249 146.348C32.6846 146.348 32.9806 146.201 33.1368 145.908C33.2978 145.614 33.3783 145.295 33.3783 144.949V144.182C33.3783 143.836 33.3025 143.514 33.151 143.216C32.9995 142.918 32.6988 142.768 32.249 142.768C31.8276 142.768 31.5364 142.92 31.3755 143.223C31.2145 143.526 31.134 143.846 31.134 144.182ZM29.9905 156L39.9905 141.455H41.8513L31.8513 156H29.9905ZM48.5008 156V147.273H51.3176C51.9369 147.273 52.4539 147.385 52.8687 147.609C53.2863 147.831 53.6002 148.139 53.8105 148.534C54.0235 148.926 54.1301 149.376 54.1301 149.885C54.1301 150.393 54.0235 150.842 53.8105 151.232C53.6002 151.621 53.2877 151.925 52.873 152.143C52.4582 152.362 51.944 152.472 51.3304 152.472H48.9312V151.743H51.3091C51.7636 151.743 52.1414 151.668 52.4426 151.517C52.7466 151.366 52.9724 151.152 53.1201 150.874C53.2707 150.595 53.346 150.266 53.346 149.885C53.346 149.504 53.2707 149.172 53.1201 148.888C52.9696 148.601 52.7423 148.379 52.4383 148.223C52.1372 148.067 51.7565 147.989 51.2963 147.989H49.2977V156H48.5008ZM52.3488 152.062L54.4966 156H53.5761L51.4497 152.062H52.3488ZM58.4894 156.136C57.8787 156.136 57.3502 155.994 56.9042 155.71C56.4582 155.423 56.113 155.027 55.8687 154.521C55.6272 154.013 55.5065 153.428 55.5065 152.766C55.5065 152.107 55.6272 151.521 55.8687 151.01C56.113 150.496 56.4497 150.094 56.8787 149.804C57.3105 149.511 57.8091 149.365 58.3744 149.365C58.7295 149.365 59.0718 149.43 59.4014 149.561C59.7309 149.689 60.0264 149.886 60.2877 150.153C60.5519 150.418 60.7608 150.751 60.9142 151.155C61.0676 151.555 61.1443 152.03 61.1443 152.578V152.953H56.0306V152.284H60.3687C60.3687 151.864 60.2835 151.486 60.113 151.151C59.9454 150.812 59.711 150.545 59.4099 150.349C59.1116 150.153 58.7664 150.055 58.3744 150.055C57.9596 150.055 57.5946 150.166 57.2792 150.388C56.9639 150.609 56.7167 150.902 56.5377 151.266C56.3616 151.629 56.2721 152.027 56.2693 152.459V152.859C56.2693 153.379 56.3588 153.834 56.5377 154.223C56.7196 154.609 56.9767 154.909 57.3091 155.122C57.6414 155.335 58.0349 155.442 58.4894 155.442C58.7991 155.442 59.0704 155.393 59.3034 155.297C59.5392 155.2 59.7366 155.071 59.8957 154.909C60.0576 154.744 60.1798 154.564 60.2622 154.368L60.9823 154.602C60.8829 154.878 60.7196 155.132 60.4923 155.365C60.2679 155.598 59.9866 155.786 59.6485 155.928C59.3133 156.067 58.9269 156.136 58.4894 156.136ZM67.2135 150.891L66.5189 151.087C66.4507 150.891 66.3541 150.713 66.2291 150.554C66.1041 150.395 65.9408 150.268 65.7391 150.175C65.5402 150.081 65.2931 150.034 64.9976 150.034C64.5544 150.034 64.1908 150.139 63.9067 150.349C63.6226 150.56 63.4806 150.831 63.4806 151.163C63.4806 151.445 63.5772 151.673 63.7703 151.849C63.9664 152.023 64.2675 152.161 64.6738 152.263L65.6624 152.506C66.2107 152.639 66.6212 152.851 66.8939 153.141C67.1695 153.43 67.3073 153.794 67.3073 154.232C67.3073 154.601 67.205 154.929 67.0005 155.216C66.7959 155.503 66.5104 155.729 66.1439 155.893C65.7803 156.055 65.3584 156.136 64.8783 156.136C64.2391 156.136 63.7121 155.993 63.2973 155.706C62.8826 155.416 62.6169 154.999 62.5005 154.453L63.2291 154.274C63.3229 154.663 63.5061 154.957 63.7789 155.156C64.0544 155.355 64.4166 155.455 64.8655 155.455C65.3684 155.455 65.7703 155.342 66.0715 155.118C66.3726 154.891 66.5232 154.607 66.5232 154.266C66.5232 154.001 66.4351 153.78 66.259 153.601C66.0828 153.419 65.8158 153.286 65.4578 153.2L64.3882 152.945C63.8201 152.808 63.3996 152.592 63.1269 152.297C62.8541 152.001 62.7178 151.635 62.7178 151.197C62.7178 150.837 62.8158 150.52 63.0118 150.247C63.2078 149.972 63.4777 149.756 63.8215 149.599C64.1652 149.443 64.5573 149.365 64.9976 149.365C65.597 149.365 66.0757 149.501 66.4337 149.774C66.7945 150.044 67.0544 150.416 67.2135 150.891ZM71.6144 156.136C71.0037 156.136 70.4752 155.994 70.0292 155.71C69.5832 155.423 69.238 155.027 68.9937 154.521C68.7522 154.013 68.6315 153.428 68.6315 152.766C68.6315 152.107 68.7522 151.521 68.9937 151.01C69.238 150.496 69.5747 150.094 70.0037 149.804C70.4355 149.511 70.9341 149.365 71.4994 149.365C71.8545 149.365 72.1968 149.43 72.5264 149.561C72.8559 149.689 73.1514 149.886 73.4127 150.153C73.6769 150.418 73.8858 150.751 74.0392 151.155C74.1926 151.555 74.2693 152.03 74.2693 152.578V152.953H69.1556V152.284H73.4937C73.4937 151.864 73.4085 151.486 73.238 151.151C73.0704 150.812 72.836 150.545 72.5349 150.349C72.2366 150.153 71.8914 150.055 71.4994 150.055C71.0846 150.055 70.7196 150.166 70.4042 150.388C70.0889 150.609 69.8417 150.902 69.6627 151.266C69.4866 151.629 69.3971 152.027 69.3943 152.459V152.859C69.3943 153.379 69.4838 153.834 69.6627 154.223C69.8446 154.609 70.1017 154.909 70.4341 155.122C70.7664 155.335 71.1599 155.442 71.6144 155.442C71.9241 155.442 72.1954 155.393 72.4284 155.297C72.6642 155.2 72.8616 155.071 73.0207 154.909C73.1826 154.744 73.3048 154.564 73.3872 154.368L74.1073 154.602C74.0079 154.878 73.8446 155.132 73.6173 155.365C73.3929 155.598 73.1116 155.786 72.7735 155.928C72.4383 156.067 72.0519 156.136 71.6144 156.136ZM75.9408 156V149.455H76.678V150.46H76.7334C76.8641 150.131 77.0914 149.865 77.4152 149.663C77.7419 149.459 78.1113 149.357 78.5232 149.357C78.5857 149.357 78.6553 149.358 78.732 149.361C78.8087 149.364 78.8726 149.366 78.9238 149.369V150.141C78.8897 150.135 78.83 150.126 78.7448 150.115C78.6595 150.104 78.5672 150.098 78.4678 150.098C78.1269 150.098 77.8229 150.17 77.5559 150.315C77.2916 150.457 77.0828 150.655 76.9294 150.908C76.776 151.161 76.6993 151.449 76.6993 151.773V156H75.9408ZM85.4841 149.455L83.0935 156H82.2838L79.8932 149.455H80.7157L82.6588 154.999H82.7185L84.6617 149.455H85.4841ZM89.3801 156.136C88.7693 156.136 88.2409 155.994 87.7948 155.71C87.3488 155.423 87.0037 155.027 86.7593 154.521C86.5179 154.013 86.3971 153.428 86.3971 152.766C86.3971 152.107 86.5179 151.521 86.7593 151.01C87.0037 150.496 87.3403 150.094 87.7693 149.804C88.2011 149.511 88.6997 149.365 89.265 149.365C89.6201 149.365 89.9625 149.43 90.292 149.561C90.6216 149.689 90.917 149.886 91.1784 150.153C91.4426 150.418 91.6514 150.751 91.8048 151.155C91.9582 151.555 92.0349 152.03 92.0349 152.578V152.953H86.9213V152.284H91.2593C91.2593 151.864 91.1741 151.486 91.0037 151.151C90.836 150.812 90.6017 150.545 90.3005 150.349C90.0022 150.153 89.6571 150.055 89.265 150.055C88.8502 150.055 88.4852 150.166 88.1698 150.388C87.8545 150.609 87.6073 150.902 87.4284 151.266C87.2522 151.629 87.1627 152.027 87.1599 152.459V152.859C87.1599 153.379 87.2494 153.834 87.4284 154.223C87.6102 154.609 87.8673 154.909 88.1997 155.122C88.5321 155.335 88.9255 155.442 89.3801 155.442C89.6897 155.442 89.961 155.393 90.194 155.297C90.4298 155.2 90.6272 155.071 90.7863 154.909C90.9483 154.744 91.0704 154.564 91.1528 154.368L91.873 154.602C91.7735 154.878 91.6102 155.132 91.3829 155.365C91.1585 155.598 90.8772 155.786 90.5392 155.928C90.2039 156.067 89.8176 156.136 89.3801 156.136ZM16.9657 171V162.273H22.0154V162.989H17.7625V166.274H21.6191V166.99H17.7625V171H16.9657ZM25.9028 171.136C25.3375 171.136 24.8375 170.993 24.4028 170.706C23.971 170.419 23.6329 170.023 23.3886 169.517C23.1443 169.009 23.0221 168.422 23.0221 167.757C23.0221 167.087 23.1443 166.497 23.3886 165.989C23.6329 165.477 23.971 165.08 24.4028 164.795C24.8375 164.509 25.3375 164.365 25.9028 164.365C26.4681 164.365 26.9667 164.509 27.3985 164.795C27.8304 165.082 28.1684 165.48 28.4127 165.989C28.6599 166.497 28.7835 167.087 28.7835 167.757C28.7835 168.422 28.6613 169.009 28.417 169.517C28.1727 170.023 27.8332 170.419 27.3985 170.706C26.9667 170.993 26.4681 171.136 25.9028 171.136ZM25.9028 170.442C26.3573 170.442 26.7423 170.32 27.0576 170.075C27.373 169.831 27.6116 169.506 27.7735 169.099C27.9383 168.693 28.0207 168.246 28.0207 167.757C28.0207 167.268 27.9383 166.82 27.7735 166.411C27.6116 166.001 27.373 165.673 27.0576 165.426C26.7423 165.179 26.3573 165.055 25.9028 165.055C25.4511 165.055 25.0662 165.179 24.748 165.426C24.4326 165.673 24.1926 166.001 24.0278 166.411C23.8659 166.82 23.7849 167.268 23.7849 167.757C23.7849 168.246 23.8659 168.693 24.0278 169.099C24.1926 169.506 24.4326 169.831 24.748 170.075C25.0633 170.32 25.4483 170.442 25.9028 170.442ZM30.4486 171V164.455H31.1858V165.46H31.2412C31.3719 165.131 31.5992 164.865 31.923 164.663C32.2497 164.459 32.6191 164.357 33.031 164.357C33.0935 164.357 33.1631 164.358 33.2398 164.361C33.3165 164.364 33.3804 164.366 33.4316 164.369V165.141C33.3975 165.135 33.3378 165.126 33.2526 165.115C33.1674 165.104 33.075 165.098 32.9756 165.098C32.6347 165.098 32.3307 165.17 32.0637 165.315C31.7995 165.457 31.5907 165.655 31.4372 165.908C31.2838 166.161 31.2071 166.449 31.2071 166.773V171H30.4486ZM38.2586 162.273H39.1791L42.3453 169.875H42.422L45.5882 162.273H46.5086V171H45.7586V163.956H45.6904L42.7458 171H42.0214L39.0768 163.956H39.0086V171H38.2586V162.273ZM51.3176 171.136C50.7068 171.136 50.1784 170.994 49.7323 170.71C49.2863 170.423 48.9412 170.027 48.6968 169.521C48.4554 169.013 48.3346 168.428 48.3346 167.766C48.3346 167.107 48.4554 166.521 48.6968 166.01C48.9412 165.496 49.2778 165.094 49.7068 164.804C50.1386 164.511 50.6372 164.365 51.2025 164.365C51.5576 164.365 51.9 164.43 52.2295 164.561C52.5591 164.689 52.8545 164.886 53.1159 165.153C53.3801 165.418 53.5889 165.751 53.7423 166.155C53.8957 166.555 53.9724 167.03 53.9724 167.578V167.953H48.8588V167.284H53.1968C53.1968 166.864 53.1116 166.486 52.9412 166.151C52.7735 165.812 52.5392 165.545 52.238 165.349C51.9397 165.153 51.5946 165.055 51.2025 165.055C50.7877 165.055 50.4227 165.166 50.1073 165.388C49.792 165.609 49.5448 165.902 49.3659 166.266C49.1897 166.629 49.1002 167.027 49.0974 167.459V167.859C49.0974 168.379 49.1869 168.834 49.3659 169.223C49.5477 169.609 49.8048 169.909 50.1372 170.122C50.4696 170.335 50.863 170.442 51.3176 170.442C51.6272 170.442 51.8985 170.393 52.1315 170.297C52.3673 170.2 52.5647 170.071 52.7238 169.909C52.8858 169.744 53.0079 169.564 53.0903 169.368L53.8105 169.602C53.711 169.878 53.5477 170.132 53.3204 170.365C53.096 170.598 52.8147 170.786 52.4767 170.928C52.1414 171.067 51.7551 171.136 51.3176 171.136ZM58.222 164.455V165.115H55.0985V164.455H58.222ZM56.0743 162.886H56.8371V169.291C56.8371 169.564 56.884 169.778 56.9777 169.935C57.0715 170.088 57.1936 170.197 57.3442 170.263C57.4948 170.325 57.6553 170.357 57.8257 170.357C57.9252 170.357 58.0104 170.351 58.0814 170.339C58.1524 170.325 58.2149 170.311 58.2689 170.297L58.4309 170.983C58.357 171.011 58.2661 171.037 58.1581 171.06C58.0502 171.085 57.9166 171.098 57.7576 171.098C57.4791 171.098 57.2107 171.037 56.9522 170.915C56.6965 170.793 56.4863 170.611 56.3215 170.369C56.1567 170.128 56.0743 169.828 56.0743 169.47V162.886ZM61.7728 171.149C61.3779 171.149 61.0171 171.072 60.6904 170.919C60.3637 170.763 60.1038 170.538 59.9106 170.246C59.7174 169.95 59.6208 169.592 59.6208 169.172C59.6208 168.848 59.6819 168.575 59.8041 168.354C59.9262 168.132 60.0995 167.95 60.324 167.808C60.5484 167.666 60.814 167.554 61.1208 167.472C61.4277 167.389 61.7657 167.325 62.135 167.28C62.5015 167.234 62.8112 167.195 63.064 167.161C63.3197 167.126 63.5143 167.072 63.6478 166.999C63.7814 166.925 63.8481 166.805 63.8481 166.641V166.487C63.8481 166.041 63.7146 165.69 63.4475 165.435C63.1833 165.176 62.8027 165.047 62.3055 165.047C61.8339 165.047 61.449 165.151 61.1507 165.358C60.8552 165.565 60.6478 165.81 60.5285 166.091L59.8083 165.831C59.9561 165.473 60.1606 165.187 60.422 164.974C60.6833 164.759 60.976 164.604 61.2998 164.51C61.6237 164.413 61.9518 164.365 62.2842 164.365C62.5342 164.365 62.7941 164.398 63.064 164.463C63.3367 164.528 63.5896 164.642 63.8225 164.804C64.0555 164.963 64.2444 165.186 64.3893 165.473C64.5342 165.757 64.6066 166.118 64.6066 166.555V171H63.8481V169.964H63.8012C63.7103 170.158 63.5754 170.345 63.3964 170.527C63.2174 170.709 62.993 170.858 62.7231 170.974C62.4532 171.091 62.1365 171.149 61.7728 171.149ZM61.8751 170.455C62.2785 170.455 62.6279 170.365 62.9234 170.186C63.2189 170.007 63.4461 169.77 63.6052 169.474C63.7671 169.176 63.8481 168.848 63.8481 168.49V167.544C63.7913 167.598 63.6961 167.646 63.5626 167.689C63.4319 167.732 63.2799 167.77 63.1066 167.804C62.9362 167.835 62.7657 167.862 62.5953 167.885C62.4248 167.908 62.2714 167.928 62.135 167.945C61.7657 167.99 61.4504 168.061 61.189 168.158C60.9277 168.254 60.7274 168.388 60.5882 168.558C60.449 168.726 60.3794 168.942 60.3794 169.206C60.3794 169.604 60.5214 169.912 60.8055 170.131C61.0896 170.347 61.4461 170.455 61.8751 170.455ZM71.4568 164.455L69.0662 171H68.2565L65.8659 164.455H66.6883L68.6315 169.999H68.6912L70.6343 164.455H71.4568ZM75.3527 171.136C74.7419 171.136 74.2135 170.994 73.7675 170.71C73.3215 170.423 72.9763 170.027 72.732 169.521C72.4905 169.013 72.3698 168.428 72.3698 167.766C72.3698 167.107 72.4905 166.521 72.732 166.01C72.9763 165.496 73.313 165.094 73.7419 164.804C74.1738 164.511 74.6723 164.365 75.2377 164.365C75.5928 164.365 75.9351 164.43 76.2647 164.561C76.5942 164.689 76.8897 164.886 77.151 165.153C77.4152 165.418 77.624 165.751 77.7774 166.155C77.9309 166.555 78.0076 167.03 78.0076 167.578V167.953H72.8939V167.284H77.232C77.232 166.864 77.1468 166.486 76.9763 166.151C76.8087 165.812 76.5743 165.545 76.2732 165.349C75.9749 165.153 75.6297 165.055 75.2377 165.055C74.8229 165.055 74.4578 165.166 74.1425 165.388C73.8272 165.609 73.58 165.902 73.401 166.266C73.2249 166.629 73.1354 167.027 73.1326 167.459V167.859C73.1326 168.379 73.222 168.834 73.401 169.223C73.5828 169.609 73.8399 169.909 74.1723 170.122C74.5047 170.335 74.8982 170.442 75.3527 170.442C75.6624 170.442 75.9337 170.393 76.1666 170.297C76.4024 170.2 76.5999 170.071 76.759 169.909C76.9209 169.744 77.0431 169.564 77.1255 169.368L77.8456 169.602C77.7462 169.878 77.5828 170.132 77.3556 170.365C77.1311 170.598 76.8499 170.786 76.5118 170.928C76.1766 171.067 75.7902 171.136 75.3527 171.136ZM79.6791 171V164.455H80.4163V165.46H80.4717C80.6024 165.131 80.8296 164.865 81.1535 164.663C81.4802 164.459 81.8495 164.357 82.2615 164.357C82.324 164.357 82.3936 164.358 82.4703 164.361C82.547 164.364 82.6109 164.366 82.662 164.369V165.141C82.6279 165.135 82.5683 165.126 82.4831 165.115C82.3978 165.104 82.3055 165.098 82.2061 165.098C81.8652 165.098 81.5612 165.17 81.2941 165.315C81.0299 165.457 80.8211 165.655 80.6677 165.908C80.5143 166.161 80.4376 166.449 80.4376 166.773V171H79.6791ZM88.3541 165.891L87.6595 166.087C87.5914 165.891 87.4948 165.713 87.3698 165.554C87.2448 165.395 87.0814 165.268 86.8797 165.175C86.6809 165.081 86.4337 165.034 86.1382 165.034C85.6951 165.034 85.3314 165.139 85.0473 165.349C84.7632 165.56 84.6212 165.831 84.6212 166.163C84.6212 166.445 84.7178 166.673 84.911 166.849C85.107 167.023 85.4081 167.161 85.8144 167.263L86.803 167.506C87.3513 167.639 87.7618 167.851 88.0345 168.141C88.3101 168.43 88.4479 168.794 88.4479 169.232C88.4479 169.601 88.3456 169.929 88.1411 170.216C87.9365 170.503 87.651 170.729 87.2845 170.893C86.9209 171.055 86.499 171.136 86.0189 171.136C85.3797 171.136 84.8527 170.993 84.438 170.706C84.0232 170.416 83.7576 169.999 83.6411 169.453L84.3698 169.274C84.4635 169.663 84.6468 169.957 84.9195 170.156C85.1951 170.355 85.5573 170.455 86.0061 170.455C86.509 170.455 86.911 170.342 87.2121 170.118C87.5132 169.891 87.6638 169.607 87.6638 169.266C87.6638 169.001 87.5757 168.78 87.3996 168.601C87.2235 168.419 86.9564 168.286 86.5985 168.2L85.5289 167.945C84.9607 167.808 84.5402 167.592 84.2675 167.297C83.9948 167.001 83.8584 166.635 83.8584 166.197C83.8584 165.837 83.9564 165.52 84.1524 165.247C84.3485 164.972 84.6184 164.756 84.9621 164.599C85.3059 164.443 85.6979 164.365 86.1382 164.365C86.7377 164.365 87.2164 164.501 87.5743 164.774C87.9351 165.044 88.1951 165.416 88.3541 165.891ZM92.7551 171.136C92.1443 171.136 91.6159 170.994 91.1698 170.71C90.7238 170.423 90.3787 170.027 90.1343 169.521C89.8929 169.013 89.7721 168.428 89.7721 167.766C89.7721 167.107 89.8929 166.521 90.1343 166.01C90.3787 165.496 90.7153 165.094 91.1443 164.804C91.5761 164.511 92.0747 164.365 92.64 164.365C92.9951 164.365 93.3375 164.43 93.667 164.561C93.9966 164.689 94.292 164.886 94.5534 165.153C94.8176 165.418 95.0264 165.751 95.1798 166.155C95.3332 166.555 95.4099 167.03 95.4099 167.578V167.953H90.2963V167.284H94.6343C94.6343 166.864 94.5491 166.486 94.3787 166.151C94.211 165.812 93.9767 165.545 93.6755 165.349C93.3772 165.153 93.0321 165.055 92.64 165.055C92.2252 165.055 91.8602 165.166 91.5448 165.388C91.2295 165.609 90.9823 165.902 90.8034 166.266C90.6272 166.629 90.5377 167.027 90.5349 167.459V167.859C90.5349 168.379 90.6244 168.834 90.8034 169.223C90.9852 169.609 91.2423 169.909 91.5747 170.122C91.9071 170.335 92.3005 170.442 92.7551 170.442C93.0647 170.442 93.336 170.393 93.569 170.297C93.8048 170.2 94.0022 170.071 94.1613 169.909C94.3233 169.744 94.4454 169.564 94.5278 169.368L95.248 169.602C95.1485 169.878 94.9852 170.132 94.7579 170.365C94.5335 170.598 94.2522 170.786 93.9142 170.928C93.5789 171.067 93.1926 171.136 92.7551 171.136Z" fill="white"/>
<path d="M276.171 47V29H363" stroke="white"/>
<path d="M274.959 18.4432V16.0213L281.031 6.45455H283.119V9.80682H281.884L278.055 15.8651V15.9787H286.685V18.4432H274.959ZM281.94 21V17.7045L281.997 16.6321V6.45455H284.881V21H281.94ZM294.437 21.3196C293.215 21.3149 292.164 21.0142 291.283 20.4176C290.407 19.821 289.733 18.9569 289.259 17.8253C288.79 16.6937 288.558 15.3324 288.563 13.7415C288.563 12.1553 288.798 10.8035 289.266 9.68608C289.74 8.56865 290.415 7.71875 291.29 7.13636C292.171 6.54924 293.22 6.25568 294.437 6.25568C295.654 6.25568 296.7 6.54924 297.576 7.13636C298.457 7.72348 299.134 8.57576 299.607 9.69318C300.081 10.8059 300.315 12.1553 300.31 13.7415C300.31 15.3371 300.074 16.7008 299.6 17.8324C299.131 18.964 298.459 19.8281 297.583 20.4247C296.707 21.0213 295.658 21.3196 294.437 21.3196ZM294.437 18.7699C295.27 18.7699 295.935 18.3509 296.433 17.5128C296.93 16.6747 297.176 15.4176 297.171 13.7415C297.171 12.6383 297.058 11.7197 296.83 10.9858C296.608 10.2519 296.29 9.70028 295.879 9.33097C295.471 8.96165 294.991 8.77699 294.437 8.77699C293.608 8.77699 292.945 9.19129 292.448 10.0199C291.951 10.8485 291.7 12.089 291.695 13.7415C291.695 14.8589 291.807 15.7917 292.029 16.5398C292.256 17.2831 292.576 17.8419 292.988 18.2159C293.4 18.5852 293.883 18.7699 294.437 18.7699ZM310.465 18.2727V17.5057C310.465 16.9233 310.588 16.3883 310.834 15.9006C311.085 15.4081 311.447 15.0152 311.921 14.7216C312.399 14.4233 312.981 14.2741 313.668 14.2741C314.364 14.2741 314.949 14.4209 315.422 14.7145C315.9 15.008 316.26 15.401 316.502 15.8935C316.748 16.3812 316.871 16.9186 316.871 17.5057V18.2727C316.871 18.8551 316.748 19.3925 316.502 19.8849C316.256 20.3726 315.893 20.7633 315.415 21.0568C314.937 21.3551 314.355 21.5043 313.668 21.5043C312.972 21.5043 312.387 21.3551 311.914 21.0568C311.44 20.7633 311.08 20.3726 310.834 19.8849C310.588 19.3925 310.465 18.8551 310.465 18.2727ZM312.532 17.5057V18.2727C312.532 18.6089 312.612 18.9261 312.773 19.2244C312.939 19.5227 313.237 19.6719 313.668 19.6719C314.099 19.6719 314.392 19.5251 314.549 19.2315C314.71 18.938 314.79 18.6184 314.79 18.2727V17.5057C314.79 17.16 314.714 16.8381 314.563 16.5398C314.411 16.2415 314.113 16.0923 313.668 16.0923C313.242 16.0923 312.946 16.2415 312.78 16.5398C312.614 16.8381 312.532 17.16 312.532 17.5057ZM303 9.94886V9.18182C303 8.5947 303.126 8.05729 303.377 7.5696C303.628 7.07718 303.99 6.68419 304.463 6.39062C304.942 6.09706 305.519 5.95028 306.196 5.95028C306.897 5.95028 307.484 6.09706 307.958 6.39062C308.431 6.68419 308.791 7.07718 309.037 7.5696C309.283 8.05729 309.407 8.5947 309.407 9.18182V9.94886C309.407 10.536 309.281 11.0734 309.03 11.5611C308.784 12.0488 308.422 12.4394 307.944 12.733C307.47 13.0218 306.888 13.1662 306.196 13.1662C305.505 13.1662 304.92 13.0194 304.442 12.7259C303.969 12.4276 303.609 12.0369 303.363 11.554C303.121 11.0663 303 10.5312 303 9.94886ZM305.081 9.18182V9.94886C305.081 10.2945 305.162 10.6141 305.323 10.9077C305.489 11.2012 305.78 11.348 306.196 11.348C306.632 11.348 306.928 11.2012 307.084 10.9077C307.245 10.6141 307.326 10.2945 307.326 9.94886V9.18182C307.326 8.83617 307.25 8.5142 307.098 8.21591C306.947 7.91761 306.646 7.76847 306.196 7.76847C305.775 7.76847 305.484 7.91998 305.323 8.22301C305.162 8.52604 305.081 8.84564 305.081 9.18182ZM303.938 21L313.938 6.45455H315.799L305.799 21H303.938ZM322.448 21V12.2727H325.265C325.884 12.2727 326.401 12.392 326.816 12.6307C327.234 12.8665 327.548 13.1875 327.758 13.5938C327.971 14 328.077 14.4574 328.077 14.9659C328.077 15.4744 327.972 15.9332 327.762 16.3423C327.552 16.7486 327.239 17.071 326.825 17.3097C326.41 17.5455 325.894 17.6634 325.278 17.6634H323.062V16.9474H325.256C325.714 16.9474 326.093 16.8622 326.394 16.6918C326.695 16.5185 326.92 16.2827 327.067 15.9844C327.218 15.6861 327.293 15.3466 327.293 14.9659C327.293 14.5852 327.218 14.2457 327.067 13.9474C326.92 13.6491 326.694 13.4148 326.39 13.2443C326.089 13.0739 325.707 12.9886 325.244 12.9886H323.245V21H322.448ZM333.95 18.4986V14.4545H334.708V21H333.95V19.9134H333.89C333.737 20.2486 333.494 20.5284 333.161 20.7528C332.829 20.9744 332.423 21.0852 331.942 21.0852C331.525 21.0852 331.154 20.9943 330.83 20.8125C330.506 20.6278 330.252 20.358 330.067 20.0028C329.883 19.6477 329.79 19.2116 329.79 18.6946V14.4545H330.549V18.6477C330.549 19.1591 330.7 19.571 331.001 19.8835C331.302 20.1932 331.688 20.348 332.16 20.348C332.455 20.348 332.739 20.277 333.012 20.1349C333.285 19.9929 333.509 19.7855 333.685 19.5128C333.862 19.2372 333.95 18.8991 333.95 18.4986ZM336.874 21V12.2727H337.637V15.7031H337.705C337.79 15.5071 337.912 15.3054 338.071 15.098C338.233 14.8906 338.445 14.7173 338.706 14.5781C338.971 14.4361 339.303 14.3651 339.703 14.3651C340.24 14.3651 340.712 14.5071 341.118 14.7912C341.525 15.0724 341.841 15.4673 342.069 15.9759C342.296 16.4815 342.409 17.071 342.409 17.7443C342.409 18.4205 342.296 19.0128 342.069 19.5213C341.844 20.0298 341.529 20.4261 341.123 20.7102C340.719 20.9943 340.25 21.1364 339.716 21.1364C339.319 21.1364 338.986 21.0653 338.719 20.9233C338.455 20.7812 338.242 20.6065 338.08 20.3991C337.918 20.1889 337.793 19.9844 337.705 19.7855H337.611V21H336.874ZM337.624 17.7315C337.624 18.2599 337.702 18.7287 337.858 19.1378C338.017 19.544 338.245 19.8636 338.54 20.0966C338.838 20.3267 339.199 20.4418 339.623 20.4418C340.057 20.4418 340.425 20.3224 340.726 20.0838C341.027 19.8423 341.256 19.517 341.412 19.108C341.569 18.6989 341.647 18.2401 341.647 17.7315C341.647 17.2287 341.569 16.7756 341.412 16.3722C341.259 15.9687 341.032 15.6491 340.73 15.4134C340.429 15.1747 340.06 15.0554 339.623 15.0554C339.196 15.0554 338.834 15.1705 338.536 15.4006C338.24 15.6278 338.015 15.9432 337.858 16.3466C337.702 16.7472 337.624 17.2088 337.624 17.7315ZM344.834 12.2727V21H344.076V12.2727H344.834ZM346.85 21V14.4545H347.613V21H346.85ZM347.238 13.3295C347.081 13.3295 346.948 13.277 346.837 13.1719C346.726 13.0639 346.671 12.9347 346.671 12.7841C346.671 12.6335 346.726 12.5057 346.837 12.4006C346.948 12.2926 347.081 12.2386 347.238 12.2386C347.394 12.2386 347.527 12.2926 347.638 12.4006C347.749 12.5057 347.804 12.6335 347.804 12.7841C347.804 12.9347 347.749 13.0639 347.638 13.1719C347.527 13.277 347.394 13.3295 347.238 13.3295ZM352.175 21.1364C351.59 21.1364 351.08 20.9901 350.646 20.6974C350.214 20.4048 349.879 20.0043 349.64 19.4957C349.401 18.9872 349.282 18.4077 349.282 17.7571C349.282 17.1009 349.403 16.517 349.644 16.0057C349.888 15.4943 350.227 15.0937 350.658 14.804C351.09 14.5114 351.592 14.3651 352.163 14.3651C352.6 14.3651 352.996 14.4503 353.352 14.6207C353.707 14.7884 353.999 15.0256 354.229 15.3324C354.462 15.6364 354.609 15.9915 354.668 16.3977H353.901C353.822 16.0284 353.63 15.7131 353.326 15.4517C353.025 15.1875 352.641 15.0554 352.175 15.0554C351.758 15.0554 351.388 15.169 351.067 15.3963C350.746 15.6207 350.495 15.9347 350.313 16.3381C350.134 16.7386 350.045 17.2031 350.045 17.7315C350.045 18.2628 350.133 18.733 350.309 19.142C350.485 19.5483 350.732 19.8665 351.05 20.0966C351.371 20.3267 351.746 20.4418 352.175 20.4418C352.465 20.4418 352.729 20.3878 352.968 20.2798C353.21 20.169 353.411 20.0128 353.573 19.8111C353.738 19.6094 353.849 19.3693 353.906 19.0909H354.673C354.616 19.4858 354.475 19.8381 354.251 20.1477C354.029 20.4545 353.741 20.696 353.386 20.8722C353.033 21.0483 352.63 21.1364 352.175 21.1364Z" fill="white"/>
<path d="M268 170V195H368" stroke="white"/>
<path d="M248.504 198.273V207H246.659V200.024H246.608L244.609 201.277V199.641L246.77 198.273H248.504ZM254 207.192C253.267 207.189 252.637 207.009 252.108 206.651C251.583 206.293 251.178 205.774 250.894 205.095C250.613 204.416 250.473 203.599 250.476 202.645C250.476 201.693 250.617 200.882 250.898 200.212C251.182 199.541 251.587 199.031 252.113 198.682C252.641 198.33 253.27 198.153 254 198.153C254.73 198.153 255.358 198.33 255.884 198.682C256.412 199.034 256.819 199.545 257.103 200.216C257.387 200.884 257.527 201.693 257.525 202.645C257.525 203.602 257.382 204.42 257.098 205.099C256.817 205.778 256.414 206.297 255.888 206.655C255.363 207.013 254.733 207.192 254 207.192ZM254 205.662C254.5 205.662 254.9 205.411 255.198 204.908C255.496 204.405 255.644 203.651 255.641 202.645C255.641 201.983 255.573 201.432 255.436 200.991C255.303 200.551 255.113 200.22 254.865 199.999C254.621 199.777 254.333 199.666 254 199.666C253.503 199.666 253.105 199.915 252.807 200.412C252.509 200.909 252.358 201.653 252.355 202.645C252.355 203.315 252.422 203.875 252.556 204.324C252.692 204.77 252.884 205.105 253.131 205.33C253.378 205.551 253.668 205.662 254 205.662ZM263.617 205.364V204.903C263.617 204.554 263.691 204.233 263.839 203.94C263.989 203.645 264.207 203.409 264.491 203.233C264.778 203.054 265.127 202.964 265.539 202.964C265.957 202.964 266.308 203.053 266.592 203.229C266.879 203.405 267.094 203.641 267.239 203.936C267.387 204.229 267.461 204.551 267.461 204.903V205.364C267.461 205.713 267.387 206.036 267.239 206.331C267.092 206.624 266.874 206.858 266.587 207.034C266.3 207.213 265.951 207.303 265.539 207.303C265.121 207.303 264.771 207.213 264.487 207.034C264.202 206.858 263.987 206.624 263.839 206.331C263.691 206.036 263.617 205.713 263.617 205.364ZM264.857 204.903V205.364C264.857 205.565 264.906 205.756 265.002 205.935C265.102 206.114 265.281 206.203 265.539 206.203C265.798 206.203 265.974 206.115 266.067 205.939C266.164 205.763 266.212 205.571 266.212 205.364V204.903C266.212 204.696 266.167 204.503 266.076 204.324C265.985 204.145 265.806 204.055 265.539 204.055C265.283 204.055 265.106 204.145 265.006 204.324C264.907 204.503 264.857 204.696 264.857 204.903ZM259.138 200.369V199.909C259.138 199.557 259.214 199.234 259.364 198.942C259.515 198.646 259.732 198.411 260.016 198.234C260.303 198.058 260.65 197.97 261.056 197.97C261.477 197.97 261.829 198.058 262.113 198.234C262.397 198.411 262.613 198.646 262.761 198.942C262.908 199.234 262.982 199.557 262.982 199.909V200.369C262.982 200.722 262.907 201.044 262.756 201.337C262.609 201.629 262.391 201.864 262.104 202.04C261.82 202.213 261.471 202.3 261.056 202.3C260.641 202.3 260.29 202.212 260.004 202.036C259.719 201.857 259.504 201.622 259.356 201.332C259.211 201.04 259.138 200.719 259.138 200.369ZM260.387 199.909V200.369C260.387 200.577 260.435 200.768 260.532 200.945C260.631 201.121 260.806 201.209 261.056 201.209C261.317 201.209 261.495 201.121 261.589 200.945C261.685 200.768 261.734 200.577 261.734 200.369V199.909C261.734 199.702 261.688 199.509 261.597 199.33C261.506 199.151 261.326 199.061 261.056 199.061C260.803 199.061 260.629 199.152 260.532 199.334C260.435 199.516 260.387 199.707 260.387 199.909ZM259.701 207L265.701 198.273H266.817L260.817 207H259.701ZM272.382 207V198.273H277.431V198.989H273.179V202.274H277.035V202.99H273.179V207H272.382ZM283.004 204.499V200.455H283.763V207H283.004V205.913H282.945C282.791 206.249 282.548 206.528 282.216 206.753C281.884 206.974 281.477 207.085 280.997 207.085C280.58 207.085 280.209 206.994 279.885 206.812C279.561 206.628 279.307 206.358 279.122 206.003C278.938 205.648 278.845 205.212 278.845 204.695V200.455H279.604V204.648C279.604 205.159 279.754 205.571 280.055 205.884C280.357 206.193 280.743 206.348 281.214 206.348C281.51 206.348 281.794 206.277 282.067 206.135C282.339 205.993 282.564 205.786 282.74 205.513C282.916 205.237 283.004 204.899 283.004 204.499ZM288.349 200.455V201.115H285.225V200.455H288.349ZM286.201 198.886H286.964V205.291C286.964 205.564 287.011 205.778 287.105 205.935C287.199 206.088 287.321 206.197 287.471 206.263C287.622 206.325 287.782 206.357 287.953 206.357C288.052 206.357 288.137 206.351 288.208 206.339C288.279 206.325 288.342 206.311 288.396 206.297L288.558 206.983C288.484 207.011 288.393 207.037 288.285 207.06C288.177 207.085 288.044 207.098 287.885 207.098C287.606 207.098 287.338 207.037 287.079 206.915C286.824 206.793 286.613 206.611 286.449 206.369C286.284 206.128 286.201 205.828 286.201 205.47V198.886ZM294.231 204.499V200.455H294.989V207H294.231V205.913H294.171C294.018 206.249 293.775 206.528 293.442 206.753C293.11 206.974 292.704 207.085 292.224 207.085C291.806 207.085 291.435 206.994 291.112 206.812C290.788 206.628 290.533 206.358 290.349 206.003C290.164 205.648 290.072 205.212 290.072 204.695V200.455H290.83V204.648C290.83 205.159 290.981 205.571 291.282 205.884C291.583 206.193 291.969 206.348 292.441 206.348C292.737 206.348 293.021 206.277 293.293 206.135C293.566 205.993 293.79 205.786 293.967 205.513C294.143 205.237 294.231 204.899 294.231 204.499ZM296.998 207V200.455H297.735V201.46H297.79C297.921 201.131 298.148 200.865 298.472 200.663C298.799 200.459 299.168 200.357 299.58 200.357C299.642 200.357 299.712 200.358 299.789 200.361C299.865 200.364 299.929 200.366 299.98 200.369V201.141C299.946 201.135 299.887 201.126 299.801 201.115C299.716 201.104 299.624 201.098 299.525 201.098C299.184 201.098 298.88 201.17 298.613 201.315C298.348 201.457 298.14 201.655 297.986 201.908C297.833 202.161 297.756 202.449 297.756 202.773V207H296.998ZM303.722 207.136C303.111 207.136 302.583 206.994 302.137 206.71C301.691 206.423 301.346 206.027 301.101 205.521C300.86 205.013 300.739 204.428 300.739 203.766C300.739 203.107 300.86 202.521 301.101 202.01C301.346 201.496 301.682 201.094 302.111 200.804C302.543 200.511 303.042 200.365 303.607 200.365C303.962 200.365 304.304 200.43 304.634 200.561C304.963 200.689 305.259 200.886 305.52 201.153C305.784 201.418 305.993 201.751 306.147 202.155C306.3 202.555 306.377 203.03 306.377 203.578V203.953H301.263V203.284H305.601C305.601 202.864 305.516 202.486 305.346 202.151C305.178 201.812 304.944 201.545 304.642 201.349C304.344 201.153 303.999 201.055 303.607 201.055C303.192 201.055 302.827 201.166 302.512 201.388C302.196 201.609 301.949 201.902 301.77 202.266C301.594 202.629 301.505 203.027 301.502 203.459V203.859C301.502 204.379 301.591 204.834 301.77 205.223C301.952 205.609 302.209 205.909 302.542 206.122C302.874 206.335 303.267 206.442 303.722 206.442C304.032 206.442 304.303 206.393 304.536 206.297C304.772 206.2 304.969 206.071 305.128 205.909C305.29 205.744 305.412 205.564 305.495 205.368L306.215 205.602C306.115 205.878 305.952 206.132 305.725 206.365C305.5 206.598 305.219 206.786 304.881 206.928C304.546 207.067 304.159 207.136 303.722 207.136ZM311.581 207V198.273H316.643V198.989H312.378V202.274H316.375V202.99H312.378V206.284H316.729V207H311.581ZM319.017 200.455L320.705 203.246L322.392 200.455H323.274L321.169 203.727L323.274 207H322.392L320.705 204.298L319.017 207H318.139L320.219 203.727L318.139 200.455H319.017ZM324.865 209.455V200.455H325.602V201.703H325.691C325.782 201.507 325.907 201.307 326.066 201.102C326.225 200.895 326.436 200.72 326.697 200.578C326.961 200.436 327.294 200.365 327.694 200.365C328.234 200.365 328.706 200.507 329.109 200.791C329.515 201.072 329.831 201.467 330.055 201.976C330.282 202.482 330.396 203.071 330.396 203.744C330.396 204.42 330.282 205.013 330.055 205.521C329.831 206.03 329.515 206.426 329.109 206.71C328.706 206.994 328.237 207.136 327.703 207.136C327.308 207.136 326.977 207.065 326.71 206.923C326.446 206.781 326.231 206.607 326.066 206.399C325.904 206.189 325.779 205.984 325.691 205.786H325.623V209.455H324.865ZM325.615 203.732C325.615 204.26 325.693 204.729 325.849 205.138C326.008 205.544 326.235 205.864 326.531 206.097C326.829 206.327 327.19 206.442 327.613 206.442C328.048 206.442 328.414 206.322 328.713 206.084C329.014 205.842 329.243 205.517 329.399 205.108C329.558 204.699 329.637 204.24 329.637 203.732C329.637 203.229 329.559 202.776 329.403 202.372C329.25 201.969 329.022 201.649 328.721 201.413C328.42 201.175 328.051 201.055 327.613 201.055C327.187 201.055 326.825 201.17 326.527 201.401C326.228 201.628 326.001 201.943 325.845 202.347C325.691 202.747 325.615 203.209 325.615 203.732ZM334.706 207.136C334.096 207.136 333.567 206.994 333.121 206.71C332.675 206.423 332.33 206.027 332.086 205.521C331.844 205.013 331.723 204.428 331.723 203.766C331.723 203.107 331.844 202.521 332.086 202.01C332.33 201.496 332.667 201.094 333.096 200.804C333.527 200.511 334.026 200.365 334.591 200.365C334.946 200.365 335.289 200.43 335.618 200.561C335.948 200.689 336.243 200.886 336.505 201.153C336.769 201.418 336.978 201.751 337.131 202.155C337.284 202.555 337.361 203.03 337.361 203.578V203.953H332.248V203.284H336.586C336.586 202.864 336.5 202.486 336.33 202.151C336.162 201.812 335.928 201.545 335.627 201.349C335.328 201.153 334.983 201.055 334.591 201.055C334.176 201.055 333.811 201.166 333.496 201.388C333.181 201.609 332.934 201.902 332.755 202.266C332.578 202.629 332.489 203.027 332.486 203.459V203.859C332.486 204.379 332.576 204.834 332.755 205.223C332.936 205.609 333.194 205.909 333.526 206.122C333.858 206.335 334.252 206.442 334.706 206.442C335.016 206.442 335.287 206.393 335.52 206.297C335.756 206.2 335.953 206.071 336.113 205.909C336.275 205.744 336.397 205.564 336.479 205.368L337.199 205.602C337.1 205.878 336.936 206.132 336.709 206.365C336.485 206.598 336.203 206.786 335.865 206.928C335.53 207.067 335.144 207.136 334.706 207.136ZM339.791 202.909V207H339.033V200.455H339.77V201.482H339.838C339.991 201.146 340.23 200.878 340.554 200.676C340.881 200.472 341.284 200.369 341.764 200.369C342.205 200.369 342.591 200.462 342.923 200.646C343.259 200.828 343.518 201.097 343.703 201.452C343.891 201.807 343.984 202.243 343.984 202.76V207H343.226V202.807C343.226 202.27 343.075 201.845 342.774 201.533C342.476 201.22 342.075 201.064 341.572 201.064C341.229 201.064 340.923 201.138 340.656 201.286C340.389 201.433 340.178 201.646 340.021 201.925C339.868 202.2 339.791 202.528 339.791 202.909ZM350.38 201.891L349.685 202.087C349.617 201.891 349.52 201.713 349.395 201.554C349.27 201.395 349.107 201.268 348.905 201.175C348.706 201.081 348.459 201.034 348.164 201.034C347.721 201.034 347.357 201.139 347.073 201.349C346.789 201.56 346.647 201.831 346.647 202.163C346.647 202.445 346.743 202.673 346.936 202.849C347.132 203.023 347.434 203.161 347.84 203.263L348.828 203.506C349.377 203.639 349.787 203.851 350.06 204.141C350.336 204.43 350.473 204.794 350.473 205.232C350.473 205.601 350.371 205.929 350.167 206.216C349.962 206.503 349.676 206.729 349.31 206.893C348.946 207.055 348.525 207.136 348.044 207.136C347.405 207.136 346.878 206.993 346.463 206.706C346.049 206.416 345.783 205.999 345.667 205.453L346.395 205.274C346.489 205.663 346.672 205.957 346.945 206.156C347.221 206.355 347.583 206.455 348.032 206.455C348.534 206.455 348.936 206.342 349.238 206.118C349.539 205.891 349.689 205.607 349.689 205.266C349.689 205.001 349.601 204.78 349.425 204.601C349.249 204.419 348.982 204.286 348.624 204.2L347.554 203.945C346.986 203.808 346.566 203.592 346.293 203.297C346.02 203.001 345.884 202.635 345.884 202.197C345.884 201.837 345.982 201.52 346.178 201.247C346.374 200.972 346.644 200.756 346.988 200.599C347.331 200.443 347.723 200.365 348.164 200.365C348.763 200.365 349.242 200.501 349.6 200.774C349.961 201.044 350.221 201.416 350.38 201.891ZM352.143 207V200.455H352.906V207H352.143ZM352.531 199.33C352.374 199.33 352.241 199.277 352.13 199.172C352.019 199.064 351.964 198.935 351.964 198.784C351.964 198.634 352.019 198.506 352.13 198.401C352.241 198.293 352.374 198.239 352.531 198.239C352.687 198.239 352.82 198.293 352.931 198.401C353.042 198.506 353.097 198.634 353.097 198.784C353.097 198.935 353.042 199.064 352.931 199.172C352.82 199.277 352.687 199.33 352.531 199.33ZM357.456 207.136C356.89 207.136 356.39 206.993 355.956 206.706C355.524 206.419 355.186 206.023 354.941 205.517C354.697 205.009 354.575 204.422 354.575 203.757C354.575 203.087 354.697 202.497 354.941 201.989C355.186 201.477 355.524 201.08 355.956 200.795C356.39 200.509 356.89 200.365 357.456 200.365C358.021 200.365 358.52 200.509 358.951 200.795C359.383 201.082 359.721 201.48 359.966 201.989C360.213 202.497 360.336 203.087 360.336 203.757C360.336 204.422 360.214 205.009 359.97 205.517C359.725 206.023 359.386 206.419 358.951 206.706C358.52 206.993 358.021 207.136 357.456 207.136ZM357.456 206.442C357.91 206.442 358.295 206.32 358.61 206.075C358.926 205.831 359.164 205.506 359.326 205.099C359.491 204.693 359.574 204.246 359.574 203.757C359.574 203.268 359.491 202.82 359.326 202.411C359.164 202.001 358.926 201.673 358.61 201.426C358.295 201.179 357.91 201.055 357.456 201.055C357.004 201.055 356.619 201.179 356.301 201.426C355.985 201.673 355.745 202.001 355.581 202.411C355.419 202.82 355.338 203.268 355.338 203.757C355.338 204.246 355.419 204.693 355.581 205.099C355.745 205.506 355.985 205.831 356.301 206.075C356.616 206.32 357.001 206.442 357.456 206.442ZM362.76 202.909V207H362.001V200.455H362.739V201.482H362.807C362.96 201.146 363.199 200.878 363.523 200.676C363.849 200.472 364.253 200.369 364.733 200.369C365.173 200.369 365.56 200.462 365.892 200.646C366.227 200.828 366.487 201.097 366.672 201.452C366.859 201.807 366.953 202.243 366.953 202.76V207H366.195V202.807C366.195 202.27 366.044 201.845 365.743 201.533C365.445 201.22 365.044 201.064 364.541 201.064C364.197 201.064 363.892 201.138 363.625 201.286C363.358 201.433 363.146 201.646 362.99 201.925C362.837 202.2 362.76 202.528 362.76 202.909Z" fill="white"/>
<path d="M209 206V215H136" stroke="white"/>
<path d="M140.504 221.273V230H138.659V223.024H138.608L136.609 224.277V222.641L138.77 221.273H140.504ZM145.766 230.119C145.164 230.119 144.627 230.009 144.155 229.787C143.686 229.565 143.314 229.26 143.039 228.871C142.763 228.482 142.62 228.036 142.608 227.533H144.398C144.418 227.871 144.56 228.145 144.824 228.355C145.088 228.565 145.402 228.67 145.766 228.67C146.056 228.67 146.311 228.607 146.533 228.479C146.757 228.348 146.932 228.168 147.057 227.938C147.185 227.705 147.249 227.437 147.249 227.136C147.249 226.83 147.184 226.56 147.053 226.327C146.925 226.094 146.748 225.912 146.52 225.781C146.293 225.651 146.033 225.584 145.74 225.581C145.485 225.581 145.236 225.634 144.995 225.739C144.756 225.844 144.57 225.987 144.436 226.169L142.796 225.875L143.209 221.273H148.544V222.781H144.73L144.505 224.967H144.556C144.709 224.751 144.941 224.572 145.25 224.43C145.56 224.288 145.907 224.217 146.29 224.217C146.816 224.217 147.284 224.341 147.696 224.588C148.108 224.835 148.434 225.175 148.672 225.607C148.911 226.036 149.029 226.53 149.026 227.089C149.029 227.678 148.892 228.2 148.617 228.658C148.344 229.112 147.962 229.47 147.471 229.732C146.982 229.99 146.414 230.119 145.766 230.119ZM155.09 228.364V227.903C155.09 227.554 155.164 227.233 155.311 226.94C155.462 226.645 155.679 226.409 155.963 226.233C156.25 226.054 156.6 225.964 157.012 225.964C157.429 225.964 157.78 226.053 158.064 226.229C158.351 226.405 158.567 226.641 158.712 226.936C158.86 227.229 158.934 227.551 158.934 227.903V228.364C158.934 228.713 158.86 229.036 158.712 229.331C158.564 229.624 158.347 229.858 158.06 230.034C157.773 230.213 157.424 230.303 157.012 230.303C156.594 230.303 156.243 230.213 155.959 230.034C155.675 229.858 155.459 229.624 155.311 229.331C155.164 229.036 155.09 228.713 155.09 228.364ZM156.33 227.903V228.364C156.33 228.565 156.378 228.756 156.475 228.935C156.574 229.114 156.753 229.203 157.012 229.203C157.27 229.203 157.446 229.115 157.54 228.939C157.637 228.763 157.685 228.571 157.685 228.364V227.903C157.685 227.696 157.64 227.503 157.549 227.324C157.458 227.145 157.279 227.055 157.012 227.055C156.756 227.055 156.578 227.145 156.479 227.324C156.38 227.503 156.33 227.696 156.33 227.903ZM150.611 223.369V222.909C150.611 222.557 150.686 222.234 150.837 221.942C150.988 221.646 151.205 221.411 151.489 221.234C151.776 221.058 152.123 220.97 152.529 220.97C152.949 220.97 153.301 221.058 153.586 221.234C153.87 221.411 154.086 221.646 154.233 221.942C154.381 222.234 154.455 222.557 154.455 222.909V223.369C154.455 223.722 154.38 224.044 154.229 224.337C154.081 224.629 153.864 224.864 153.577 225.04C153.293 225.213 152.944 225.3 152.529 225.3C152.114 225.3 151.763 225.212 151.476 225.036C151.192 224.857 150.976 224.622 150.828 224.332C150.684 224.04 150.611 223.719 150.611 223.369ZM151.86 222.909V223.369C151.86 223.577 151.908 223.768 152.005 223.945C152.104 224.121 152.279 224.209 152.529 224.209C152.79 224.209 152.968 224.121 153.061 223.945C153.158 223.768 153.206 223.577 153.206 223.369V222.909C153.206 222.702 153.161 222.509 153.07 222.33C152.979 222.151 152.799 222.061 152.529 222.061C152.276 222.061 152.101 222.152 152.005 222.334C151.908 222.516 151.86 222.707 151.86 222.909ZM151.174 230L157.174 221.273H158.29L152.29 230H151.174ZM163.854 230V221.273H166.671C167.29 221.273 167.808 221.385 168.222 221.609C168.64 221.831 168.954 222.139 169.164 222.534C169.377 222.926 169.484 223.376 169.484 223.885C169.484 224.393 169.377 224.842 169.164 225.232C168.954 225.621 168.641 225.925 168.227 226.143C167.812 226.362 167.298 226.472 166.684 226.472H164.285V225.743H166.663C167.117 225.743 167.495 225.668 167.796 225.517C168.1 225.366 168.326 225.152 168.474 224.874C168.624 224.595 168.7 224.266 168.7 223.885C168.7 223.504 168.624 223.172 168.474 222.888C168.323 222.601 168.096 222.379 167.792 222.223C167.491 222.067 167.11 221.989 166.65 221.989H164.651V230H163.854ZM167.702 226.062L169.85 230H168.93L166.803 226.062H167.702ZM173.843 230.136C173.232 230.136 172.704 229.994 172.258 229.71C171.812 229.423 171.467 229.027 171.222 228.521C170.981 228.013 170.86 227.428 170.86 226.766C170.86 226.107 170.981 225.521 171.222 225.01C171.467 224.496 171.803 224.094 172.232 223.804C172.664 223.511 173.163 223.365 173.728 223.365C174.083 223.365 174.425 223.43 174.755 223.561C175.085 223.689 175.38 223.886 175.641 224.153C175.906 224.418 176.114 224.751 176.268 225.155C176.421 225.555 176.498 226.03 176.498 226.578V226.953H171.384V226.284H175.722C175.722 225.864 175.637 225.486 175.467 225.151C175.299 224.812 175.065 224.545 174.763 224.349C174.465 224.153 174.12 224.055 173.728 224.055C173.313 224.055 172.948 224.166 172.633 224.388C172.317 224.609 172.07 224.902 171.891 225.266C171.715 225.629 171.626 226.027 171.623 226.459V226.859C171.623 227.379 171.712 227.834 171.891 228.223C172.073 228.609 172.33 228.909 172.663 229.122C172.995 229.335 173.388 229.442 173.843 229.442C174.153 229.442 174.424 229.393 174.657 229.297C174.893 229.2 175.09 229.071 175.249 228.909C175.411 228.744 175.533 228.564 175.616 228.368L176.336 228.602C176.237 228.878 176.073 229.132 175.846 229.365C175.621 229.598 175.34 229.786 175.002 229.928C174.667 230.067 174.281 230.136 173.843 230.136ZM179.623 230L177.645 223.455H178.446L179.998 228.854H180.053L181.6 223.455H182.405L183.939 228.841H183.999L185.55 223.455H186.351L184.374 230H183.59L182.039 224.635H181.958L180.407 230H179.623ZM189.654 230.149C189.259 230.149 188.898 230.072 188.571 229.919C188.245 229.763 187.985 229.538 187.792 229.246C187.598 228.95 187.502 228.592 187.502 228.172C187.502 227.848 187.563 227.575 187.685 227.354C187.807 227.132 187.98 226.95 188.205 226.808C188.429 226.666 188.695 226.554 189.002 226.472C189.309 226.389 189.647 226.325 190.016 226.28C190.382 226.234 190.692 226.195 190.945 226.161C191.201 226.126 191.395 226.072 191.529 225.999C191.662 225.925 191.729 225.805 191.729 225.641V225.487C191.729 225.041 191.596 224.69 191.328 224.435C191.064 224.176 190.684 224.047 190.186 224.047C189.715 224.047 189.33 224.151 189.032 224.358C188.736 224.565 188.529 224.81 188.409 225.091L187.689 224.831C187.837 224.473 188.042 224.187 188.303 223.974C188.564 223.759 188.857 223.604 189.181 223.51C189.505 223.413 189.833 223.365 190.165 223.365C190.415 223.365 190.675 223.398 190.945 223.463C191.218 223.528 191.471 223.642 191.703 223.804C191.936 223.963 192.125 224.186 192.27 224.473C192.415 224.757 192.488 225.118 192.488 225.555V230H191.729V228.964H191.682C191.591 229.158 191.456 229.345 191.277 229.527C191.098 229.709 190.874 229.858 190.604 229.974C190.334 230.091 190.017 230.149 189.654 230.149ZM189.756 229.455C190.159 229.455 190.509 229.365 190.804 229.186C191.1 229.007 191.327 228.77 191.486 228.474C191.648 228.176 191.729 227.848 191.729 227.49V226.544C191.672 226.598 191.577 226.646 191.444 226.689C191.313 226.732 191.161 226.77 190.988 226.804C190.817 226.835 190.647 226.862 190.476 226.885C190.306 226.908 190.152 226.928 190.016 226.945C189.647 226.99 189.331 227.061 189.07 227.158C188.809 227.254 188.608 227.388 188.469 227.558C188.33 227.726 188.26 227.942 188.26 228.206C188.26 228.604 188.402 228.912 188.686 229.131C188.971 229.347 189.327 229.455 189.756 229.455ZM194.505 230V223.455H195.243V224.46H195.298C195.429 224.131 195.656 223.865 195.98 223.663C196.306 223.459 196.676 223.357 197.088 223.357C197.15 223.357 197.22 223.358 197.297 223.361C197.373 223.364 197.437 223.366 197.488 223.369V224.141C197.454 224.135 197.395 224.126 197.309 224.115C197.224 224.104 197.132 224.098 197.032 224.098C196.691 224.098 196.387 224.17 196.12 224.315C195.856 224.457 195.647 224.655 195.494 224.908C195.341 225.161 195.264 225.449 195.264 225.773V230H194.505ZM200.94 230.136C200.403 230.136 199.933 229.994 199.529 229.71C199.126 229.426 198.811 229.03 198.583 228.521C198.359 228.013 198.247 227.42 198.247 226.744C198.247 226.071 198.359 225.482 198.583 224.976C198.811 224.467 199.127 224.072 199.534 223.791C199.94 223.507 200.413 223.365 200.953 223.365C201.35 223.365 201.681 223.436 201.946 223.578C202.21 223.717 202.422 223.891 202.581 224.098C202.74 224.305 202.863 224.507 202.951 224.703H203.02V221.273H203.782V230H203.041V228.786H202.951C202.863 228.984 202.738 229.189 202.576 229.399C202.414 229.607 202.2 229.781 201.933 229.923C201.669 230.065 201.338 230.136 200.94 230.136ZM201.029 229.442C201.453 229.442 201.814 229.327 202.112 229.097C202.41 228.864 202.637 228.544 202.794 228.138C202.953 227.729 203.032 227.26 203.032 226.732C203.032 226.209 202.954 225.747 202.798 225.347C202.642 224.943 202.414 224.628 202.116 224.401C201.818 224.17 201.456 224.055 201.029 224.055C200.592 224.055 200.223 224.175 199.922 224.413C199.623 224.649 199.396 224.969 199.24 225.372C199.086 225.776 199.01 226.229 199.01 226.732C199.01 227.24 199.088 227.699 199.244 228.108C199.4 228.517 199.627 228.842 199.926 229.084C200.227 229.322 200.595 229.442 201.029 229.442ZM210.341 224.891L209.646 225.087C209.578 224.891 209.481 224.713 209.356 224.554C209.231 224.395 209.068 224.268 208.866 224.175C208.667 224.081 208.42 224.034 208.125 224.034C207.681 224.034 207.318 224.139 207.034 224.349C206.75 224.56 206.608 224.831 206.608 225.163C206.608 225.445 206.704 225.673 206.897 225.849C207.093 226.023 207.395 226.161 207.801 226.263L208.789 226.506C209.338 226.639 209.748 226.851 210.021 227.141C210.297 227.43 210.434 227.794 210.434 228.232C210.434 228.601 210.332 228.929 210.127 229.216C209.923 229.503 209.637 229.729 209.271 229.893C208.907 230.055 208.485 230.136 208.005 230.136C207.366 230.136 206.839 229.993 206.424 229.706C206.01 229.416 205.744 228.999 205.627 228.453L206.356 228.274C206.45 228.663 206.633 228.957 206.906 229.156C207.181 229.355 207.544 229.455 207.993 229.455C208.495 229.455 208.897 229.342 209.199 229.118C209.5 228.891 209.65 228.607 209.65 228.266C209.65 228.001 209.562 227.78 209.386 227.601C209.21 227.419 208.943 227.286 208.585 227.2L207.515 226.945C206.947 226.808 206.527 226.592 206.254 226.297C205.981 226.001 205.845 225.635 205.845 225.197C205.845 224.837 205.943 224.52 206.139 224.247C206.335 223.972 206.605 223.756 206.949 223.599C207.292 223.443 207.684 223.365 208.125 223.365C208.724 223.365 209.203 223.501 209.561 223.774C209.922 224.044 210.181 224.416 210.341 224.891Z" fill="white"/>
<g filter="url(#filter0_bd_3_2)">
<path d="M85.1813 85.5021C88.7432 62.4179 100.196 41.2818 117.589 25.6923C134.983 10.1028 157.242 1.02367 180.577 0.000762939L183.248 60.9422C174.007 61.3473 165.191 64.943 158.303 71.1171C151.414 77.2911 146.879 85.6619 145.468 94.8042L85.1813 85.5021Z" fill="#949494"/>
<path d="M144.241 93.0971L86.9037 84.2501C90.6661 62.0865 101.828 41.8333 118.59 26.8093C135.353 11.7852 156.703 2.89905 179.145 1.5763L181.685 59.5364C172.645 60.2607 164.075 63.9288 157.302 70.0001C150.528 76.0714 145.947 84.19 144.241 93.0971Z" stroke="#4A5568" stroke-width="3"/>
</g>
<g filter="url(#filter1_bd_3_2)">
<path d="M285.163 113.879C284.487 119.099 283.404 124.258 281.924 129.309L223.386 112.153C223.972 110.153 224.401 108.11 224.669 106.043L285.163 113.879Z" fill="#6DBC9E"/>
<path d="M225.937 107.719L283.472 115.173C282.872 119.313 282.011 123.412 280.895 127.445L225.221 111.128C225.507 110.002 225.746 108.865 225.937 107.719Z" stroke="#4A5568" stroke-width="3"/>
</g>
<g filter="url(#filter2_bd_3_2)">
<path d="M158.77 198.438C136.214 192.372 116.457 178.676 102.865 159.681C89.2717 140.686 82.6825 117.567 84.2188 94.2605L145.087 98.2729C144.478 107.503 147.088 116.659 152.471 124.182C157.854 131.705 165.679 137.129 174.612 139.531L158.77 198.438Z" fill="#6221D8"/>
<path d="M172.781 140.564L157.713 196.589C136.095 190.424 117.184 177.114 104.084 158.808C90.9845 140.502 84.4876 118.308 85.6282 95.8567L143.518 99.6727C143.249 108.738 145.958 117.657 151.251 125.055C156.545 132.452 164.114 137.894 172.781 140.564Z" stroke="#4A5568" stroke-width="3"/>
</g>
<g filter="url(#filter3_bd_3_2)">
<path d="M189.406 0C216.131 1.16684 241.301 12.8882 259.394 32.592C277.487 52.2958 287.024 78.3725 285.913 105.1L224.966 102.566C225.406 91.9806 221.629 81.6532 214.463 73.8497C207.298 66.0462 197.329 61.4041 186.745 60.9419L189.406 0Z" fill="#B300AB"/>
<path d="M188.308 59.5359L190.838 1.57528C216.608 3.08945 240.804 14.564 258.289 33.6066C275.775 52.6491 285.149 77.7338 284.465 103.539L226.5 101.128C226.556 90.6746 222.663 80.5622 215.568 72.8351C208.473 65.108 198.728 60.3687 188.308 59.5359Z" stroke="#4A5568" stroke-width="3"/>
</g>
<g filter="url(#filter4_bd_3_2)">
<path d="M279.079 137.648C274.166 150.228 266.78 161.694 257.358 171.369L213.657 128.811C217.388 124.979 220.313 120.438 222.259 115.456L279.079 137.648Z" fill="#FACC13"/>
<path d="M223.085 117.389L277.126 138.496C272.481 149.879 265.766 160.303 257.322 169.24L215.759 128.764C218.807 125.399 221.282 121.556 223.085 117.389Z" stroke="#4A5568" stroke-width="3"/>
</g>
<g filter="url(#filter5_bd_3_2)">
<path d="M250.942 177.407C239.587 187.194 226.197 194.33 211.742 198.299C197.287 202.268 182.13 202.97 167.37 200.353L178.018 140.29C183.863 141.326 189.866 141.048 195.591 139.476C201.316 137.904 206.619 135.078 211.116 131.202L250.942 177.407Z" fill="#DE4E21"/>
<path d="M210.941 133.297L248.819 177.241C237.882 186.385 225.103 193.075 211.345 196.853C197.587 200.63 183.183 201.403 169.111 199.127L179.238 142.002C184.831 142.786 190.531 142.421 195.988 140.923C201.445 139.425 206.532 136.828 210.941 133.297Z" stroke="#4A5568" stroke-width="3"/>
</g>
<defs>
<filter id="filter0_bd_3_2" x="81.1813" y="-3.99924" width="106.067" height="106.803" filterUnits="userSpaceOnUse" color-interpolation-filters="sRGB">
<feFlood flood-opacity="0" result="BackgroundImageFix"/>
<feGaussianBlur in="BackgroundImageFix" stdDeviation="2"/>
<feComposite in2="SourceAlpha" operator="in" result="effect1_backgroundBlur_3_2"/>
<feColorMatrix in="SourceAlpha" type="matrix" values="0 0 0 0 0 0 0 0 0 0 0 0 0 0 0 0 0 0 127 0" result="hardAlpha"/>
<feOffset dy="4"/>
<feGaussianBlur stdDeviation="2"/>
<feComposite in2="hardAlpha" operator="out"/>
<feColorMatrix type="matrix" values="0 0 0 0 0 0 0 0 0 0 0 0 0 0 0 0 0 0 0.25 0"/>
<feBlend mode="normal" in2="effect1_backgroundBlur_3_2" result="effect2_dropShadow_3_2"/>
<feBlend mode="normal" in="SourceGraphic" in2="effect2_dropShadow_3_2" result="shape"/>
</filter>
<filter id="filter1_bd_3_2" x="219.386" y="102.043" width="69.7776" height="35.2664" filterUnits="userSpaceOnUse" color-interpolation-filters="sRGB">
<feFlood flood-opacity="0" result="BackgroundImageFix"/>
<feGaussianBlur in="BackgroundImageFix" stdDeviation="2"/>
<feComposite in2="SourceAlpha" operator="in" result="effect1_backgroundBlur_3_2"/>
<feColorMatrix in="SourceAlpha" type="matrix" values="0 0 0 0 0 0 0 0 0 0 0 0 0 0 0 0 0 0 127 0" result="hardAlpha"/>
<feOffset dy="4"/>
<feGaussianBlur stdDeviation="2"/>
<feComposite in2="hardAlpha" operator="out"/>
<feColorMatrix type="matrix" values="0 0 0 0 0 0 0 0 0 0 0 0 0 0 0 0 0 0 0.25 0"/>
<feBlend mode="normal" in2="effect1_backgroundBlur_3_2" result="effect2_dropShadow_3_2"/>
<feBlend mode="normal" in="SourceGraphic" in2="effect2_dropShadow_3_2" result="shape"/>
</filter>
<filter id="filter2_bd_3_2" x="80" y="90.2605" width="98.6117" height="116.178" filterUnits="userSpaceOnUse" color-interpolation-filters="sRGB">
<feFlood flood-opacity="0" result="BackgroundImageFix"/>
<feGaussianBlur in="BackgroundImageFix" stdDeviation="2"/>
<feComposite in2="SourceAlpha" operator="in" result="effect1_backgroundBlur_3_2"/>
<feColorMatrix in="SourceAlpha" type="matrix" values="0 0 0 0 0 0 0 0 0 0 0 0 0 0 0 0 0 0 127 0" result="hardAlpha"/>
<feOffset dy="4"/>
<feGaussianBlur stdDeviation="2"/>
<feComposite in2="hardAlpha" operator="out"/>
<feColorMatrix type="matrix" values="0 0 0 0 0 0 0 0 0 0 0 0 0 0 0 0 0 0 0.25 0"/>
<feBlend mode="normal" in2="effect1_backgroundBlur_3_2" result="effect2_dropShadow_3_2"/>
<feBlend mode="normal" in="SourceGraphic" in2="effect2_dropShadow_3_2" result="shape"/>
</filter>
<filter id="filter3_bd_3_2" x="182.745" y="-4" width="107.255" height="117.1" filterUnits="userSpaceOnUse" color-interpolation-filters="sRGB">
<feFlood flood-opacity="0" result="BackgroundImageFix"/>
<feGaussianBlur in="BackgroundImageFix" stdDeviation="2"/>
<feComposite in2="SourceAlpha" operator="in" result="effect1_backgroundBlur_3_2"/>
<feColorMatrix in="SourceAlpha" type="matrix" values="0 0 0 0 0 0 0 0 0 0 0 0 0 0 0 0 0 0 127 0" result="hardAlpha"/>
<feOffset dy="4"/>
<feGaussianBlur stdDeviation="2"/>
<feComposite in2="hardAlpha" operator="out"/>
<feColorMatrix type="matrix" values="0 0 0 0 0 0 0 0 0 0 0 0 0 0 0 0 0 0 0.25 0"/>
<feBlend mode="normal" in2="effect1_backgroundBlur_3_2" result="effect2_dropShadow_3_2"/>
<feBlend mode="normal" in="SourceGraphic" in2="effect2_dropShadow_3_2" result="shape"/>
</filter>
<filter id="filter4_bd_3_2" x="209.657" y="111.456" width="73.4221" height="67.9124" filterUnits="userSpaceOnUse" color-interpolation-filters="sRGB">
<feFlood flood-opacity="0" result="BackgroundImageFix"/>
<feGaussianBlur in="BackgroundImageFix" stdDeviation="2"/>
<feComposite in2="SourceAlpha" operator="in" result="effect1_backgroundBlur_3_2"/>
<feColorMatrix in="SourceAlpha" type="matrix" values="0 0 0 0 0 0 0 0 0 0 0 0 0 0 0 0 0 0 127 0" result="hardAlpha"/>
<feOffset dy="4"/>
<feGaussianBlur stdDeviation="2"/>
<feComposite in2="hardAlpha" operator="out"/>
<feColorMatrix type="matrix" values="0 0 0 0 0 0 0 0 0 0 0 0 0 0 0 0 0 0 0.25 0"/>
<feBlend mode="normal" in2="effect1_backgroundBlur_3_2" result="effect2_dropShadow_3_2"/>
<feBlend mode="normal" in="SourceGraphic" in2="effect2_dropShadow_3_2" result="shape"/>
</filter>
<filter id="filter5_bd_3_2" x="163.37" y="127.202" width="91.5717" height="82.7018" filterUnits="userSpaceOnUse" color-interpolation-filters="sRGB">
<feFlood flood-opacity="0" result="BackgroundImageFix"/>
<feGaussianBlur in="BackgroundImageFix" stdDeviation="2"/>
<feComposite in2="SourceAlpha" operator="in" result="effect1_backgroundBlur_3_2"/>
<feColorMatrix in="SourceAlpha" type="matrix" values="0 0 0 0 0 0 0 0 0 0 0 0 0 0 0 0 0 0 127 0" result="hardAlpha"/>
<feOffset dy="4"/>
<feGaussianBlur stdDeviation="2"/>
<feComposite in2="hardAlpha" operator="out"/>
<feColorMatrix type="matrix" values="0 0 0 0 0 0 0 0 0 0 0 0 0 0 0 0 0 0 0.25 0"/>
<feBlend mode="normal" in2="effect1_backgroundBlur_3_2" result="effect2_dropShadow_3_2"/>
<feBlend mode="normal" in="SourceGraphic" in2="effect2_dropShadow_3_2" result="shape"/>
</filter>
</defs>
</svg>
