<svg width="2000" height="417" viewBox="0 0 2000 417" fill="none" xmlns="http://www.w3.org/2000/svg">
<path d="M28 76L64.0288 117.305C100.187 158.8 172.245 241.411 244.173 240.842C316.101 240.274 387.899 156.147 459.827 140.8C531.755 125.263 603.813 178.316 676 174.905C748.187 171.305 820.245 111.432 892.173 94.5684C964.101 77.8947 1035.9 104.421 1107.83 131.895C1179.76 159.368 1251.81 187.789 1324 194.421C1396.19 201.053 1468.24 185.895 1540.17 159.937C1612.1 134.168 1683.9 97.4105 1755.83 111.621C1827.76 125.832 1899.81 191.011 1935.97 223.411L1972 256" stroke="#FF0080" stroke-width="40" stroke-linecap="round"/>
</svg>
