<svg width="904" height="273" viewBox="0 0 904 273" fill="none" xmlns="http://www.w3.org/2000/svg">
<path d="M0 165L129.573 167L258.142 178L387.716 193L516.284 154L645.858 172L774.427 196L904 168V273H774.427H645.858H516.284H387.716H258.142H129.573H0V165Z" fill="#B03806"/>
<path d="M0 218.492L129.573 223.034L258.142 219.627L387.716 224.169L516.284 229.847L645.858 207.136L774.427 206L904 207.136V273H774.427H645.858H516.284H387.716H258.142H129.573H0V218.492Z" fill="#1A365D"/>
<path d="M818.713 173.899H770.589V181.788H818.713V173.899Z" fill="#28292E"/>
<path d="M628.649 120.443L625.575 118.889L638.298 93.7462L641.371 95.3L628.649 120.443Z" fill="#B9BCBA"/>
<path d="M631.796 132.67H624.268V116.01H631.796V132.67Z" fill="#666666"/>
<path d="M643.27 96.2628L636.396 92.7831L660.056 46.0255L666.93 49.5022L643.27 96.2628" fill="#666666"/>
<path d="M714.549 25.882L718.53 19.2855L762.805 46.0072L758.824 52.6006L714.549 25.882" fill="#666666"/>
<path d="M688.387 8.24899L690.738 4.35069L717.718 20.636L715.364 24.5312L688.387 8.24899" fill="#B9BCBA"/>
<path d="M778.324 149.011C778.324 149.011 778.324 109.794 778.324 102.444C778.324 90.0138 771.047 75.833 758.836 67.4304C746.624 59.0277 702.713 41.1241 695.639 37.3181C687.99 33.2045 686.018 30.7092 684.812 27.0325C683.674 23.568 686.51 19.5375 689.643 20.6082C692.778 21.6789 761.694 44.8193 772.897 49.9236C784.278 55.111 798.634 75.7438 798.634 95.7889C798.634 112.247 798.634 149.011 798.634 149.011H778.324" fill="#0E4A73"/>
<path d="M643.057 132.67C643.057 132.67 685.757 36.503 687.75 31.9493C689.741 27.3988 691.676 6.27681 691.676 2.60008C691.676 -1.07973 685.535 -0.178242 683.132 1.20938C680.726 2.60007 666.635 19.9284 665.232 23.1959C663.832 26.4634 636.756 125.249 636.756 128.024C636.756 130.803 641.891 132.67 643.057 132.67Z" fill="#5D8BC8"/>
<path d="M644.808 179.588H621V126.489H644.808V179.588Z" fill="#E58126"/>
<path d="M636.756 208.534L631.796 215.303L626.834 208.534V179.588H636.756V208.534Z" fill="#535B65"/>
<path d="M892.007 147.076C890.721 141.245 885.555 137.095 879.583 137.095H802.809V173.899H888.318C890.657 173.899 892.869 172.837 894.333 171.013C895.798 169.191 896.358 166.801 895.853 164.518L892.007 147.076" fill="#FBB03B"/>
<path d="M739.729 215.303C730.151 215.303 722.358 207.506 722.358 197.928C722.358 188.347 730.151 180.554 739.729 180.554C740.037 180.529 779.179 177.779 792.209 177.779C805.243 177.779 844.382 180.529 844.776 180.557H844.782C854.274 180.557 862.064 188.35 862.064 197.928C862.064 207.506 854.271 215.303 844.69 215.303H739.729" fill="#535B65"/>
<path d="M844.69 212.835C852.908 212.835 859.597 206.146 859.597 197.928C859.597 189.71 852.951 183.024 844.776 183.024L844.597 183.018C844.216 182.991 805.147 180.246 792.209 180.246C779.204 180.246 740.286 182.987 739.932 183.012L739.831 183.021H739.729C731.511 183.021 724.825 189.71 724.825 197.928C724.825 206.146 731.511 212.835 739.729 212.835H844.69" fill="#28292E"/>
<path d="M754.636 197.928C754.636 189.695 747.963 183.021 739.729 183.021C731.499 183.021 724.825 189.695 724.825 197.928C724.825 206.162 731.499 212.832 739.729 212.832C747.963 212.832 754.636 206.162 754.636 197.928Z" fill="#B9BCBA"/>
<path d="M739.729 206.491C735.009 206.491 731.167 202.648 731.167 197.928C731.167 193.206 735.009 189.366 739.729 189.366C744.452 189.366 748.295 193.206 748.295 197.928C748.295 202.648 744.452 206.491 739.729 206.491Z" fill="#28292E"/>
<path d="M820.033 186.132C820.033 183.732 818.088 181.787 815.688 181.787C813.291 181.787 811.347 183.732 811.347 186.132C811.347 188.529 813.291 190.473 815.688 190.473C818.088 190.473 820.033 188.529 820.033 186.132Z" fill="#B9BCBA"/>
<path d="M819.937 208.485C819.937 206.085 817.993 204.14 815.593 204.14C813.193 204.14 811.248 206.085 811.248 208.485C811.248 210.882 813.193 212.826 815.593 212.826C817.993 212.826 819.937 210.882 819.937 208.485Z" fill="#B9BCBA"/>
<path d="M773.075 208.485C773.075 206.085 771.131 204.14 768.731 204.14C766.334 204.14 764.389 206.085 764.389 208.485C764.389 210.882 766.334 212.826 768.731 212.826C771.131 212.826 773.075 210.882 773.075 208.485Z" fill="#B9BCBA"/>
<path d="M764.389 186.132C764.389 183.732 766.334 181.787 768.731 181.787C771.131 181.787 773.075 183.732 773.075 186.132C773.075 188.529 771.131 190.473 768.731 190.473C766.334 190.473 764.389 188.529 764.389 186.132Z" fill="#B9BCBA"/>
<path d="M829.783 197.928C829.783 189.695 836.456 183.021 844.69 183.021C852.923 183.021 859.597 189.695 859.597 197.928C859.597 206.159 852.923 212.832 844.69 212.832C836.456 212.832 829.783 206.159 829.783 197.928Z" fill="#B9BCBA"/>
<path d="M844.69 206.491C839.967 206.491 836.127 202.648 836.127 197.928C836.127 193.206 839.967 189.366 844.69 189.366C849.413 189.366 853.252 193.206 853.252 197.928C853.252 202.648 849.413 206.491 844.69 206.491Z" fill="#28292E"/>
<path d="M846.514 204.14H737.905V191.713H846.514V204.14Z" fill="#FBB03B"/>
<path d="M802.809 173.899H757.916C753.655 173.899 750.199 170.444 750.199 166.179V156.94C750.199 147.845 748.75 123.668 759.833 110.33C760.771 109.201 762.165 108.545 763.633 108.545H796.455C798.495 108.545 800.203 110.096 800.397 112.127L802.809 137.095V173.899" fill="#E58126"/>
<path d="M758.316 169.524C756.174 169.524 754.433 167.782 754.433 165.641V156.601C754.433 155.767 754.421 154.808 754.408 153.743C754.285 144.134 754.033 124.151 763.011 113.342C763.23 113.077 763.565 112.921 763.909 112.921H796.022C796.129 112.921 796.215 113 796.225 113.105L798.046 131.956C798.357 135.187 796.572 138.255 793.609 139.578L788.21 141.99C785.161 143.353 782.844 145.956 781.844 149.143L777.115 164.232C776.127 167.379 773.207 169.524 769.909 169.524H758.316" fill="white"/>
<path d="M837.822 141.525H820.962C820.448 141.525 820.033 142.694 820.033 144.131H820.962H821.891H836.893H837.822H838.752C838.752 142.694 838.333 141.525 837.822 141.525Z" fill="#E58126"/>
<path d="M837.822 146.919H820.962C820.448 146.919 820.033 148.085 820.033 149.525H820.962H821.891H836.893H837.822H838.752C838.752 148.085 838.333 146.919 837.822 146.919Z" fill="#E58126"/>
<path d="M837.822 152.309H820.962C820.448 152.309 820.033 153.475 820.033 154.915H820.962H821.891H836.893H837.822H838.752C838.752 153.475 838.333 152.309 837.822 152.309Z" fill="#E58126"/>
<path d="M859.24 141.525H842.382C841.868 141.525 841.453 142.694 841.453 144.131H842.382H843.308H858.311H859.24H860.169C860.169 142.694 859.754 141.525 859.24 141.525Z" fill="#E58126"/>
<path d="M859.24 146.919H842.382C841.868 146.919 841.453 148.085 841.453 149.525H842.382H843.308H858.311H859.24H860.169C860.169 148.085 859.754 146.919 859.24 146.919Z" fill="#E58126"/>
<path d="M859.24 152.309H842.382C841.868 152.309 841.453 153.475 841.453 154.915H842.382H843.308H858.311H859.24H860.169C860.169 153.475 859.754 152.309 859.24 152.309Z" fill="#E58126"/>
<path d="M880.66 141.525H863.8C863.289 141.525 862.87 142.694 862.87 144.131H863.8H864.729H879.731H880.66H881.589C881.589 142.694 881.174 141.525 880.66 141.525Z" fill="#E58126"/>
<path d="M880.66 146.919H863.8C863.289 146.919 862.87 148.085 862.87 149.525H863.8H864.729H879.731H880.66H881.589C881.589 148.085 881.174 146.919 880.66 146.919Z" fill="#E58126"/>
<path d="M880.66 152.309H863.8C863.289 152.309 862.87 153.475 862.87 154.915H863.8H864.729H879.731H880.66H881.589C881.589 153.475 881.174 152.309 880.66 152.309Z" fill="#E58126"/>
<path d="M815.664 127.603H868.793C870.393 127.603 871.692 128.898 871.692 130.498V137.095H812.765V130.498C812.765 128.898 814.064 127.603 815.664 127.603Z" fill="#E58126"/>
<path d="M820.876 133.63H818.713V127.603H820.876V133.63Z" fill="#535B65"/>
<path d="M827.275 133.63H825.112V127.603H827.275V133.63Z" fill="#535B65"/>
<path d="M833.672 133.63H831.509V127.603H833.672V133.63Z" fill="#535B65"/>
<path d="M840.072 133.63H837.909V127.603H840.072V133.63Z" fill="#535B65"/>
<path d="M846.468 133.63H844.305V127.603H846.468V133.63Z" fill="#535B65"/>
<path d="M852.868 133.63H850.705V127.603H852.868V133.63Z" fill="#535B65"/>
<path d="M859.264 133.63H857.101V127.603H859.264V133.63Z" fill="#535B65"/>
<path d="M865.664 133.63H863.501V127.603H865.664V133.63Z" fill="#535B65"/>
<path d="M372.795 172.174L352.009 177.744L351.05 174.164L371.836 168.594L372.795 172.174Z" fill="#B9BCBA"/>
<path d="M362.827 168.927L363.533 171.561L378.217 181.287L404.513 174.241L412.371 158.475L411.665 155.841L362.827 168.927Z" fill="#535B65"/>
<path d="M490.836 134.696L358.497 170.156L357.515 166.491L489.854 131.031L490.836 134.696" fill="#E58126"/>
<path d="M388.79 177.818C390.559 184.418 386.643 191.203 380.04 192.972C373.441 194.741 366.652 190.823 364.883 184.223C363.114 177.619 367.035 170.834 373.635 169.066C380.237 167.297 387.021 171.214 388.79 177.818Z" fill="#353938"/>
<path d="M353.971 183.486L351.388 184.178L347.295 168.903L349.878 168.211L353.971 183.486Z" fill="#B9BCBA"/>
<path d="M354.989 176.945L353.971 183.486L349.878 168.211L354.03 173.366L354.989 176.945Z" fill="#535B65"/>
<path d="M387.935 178.047C389.576 184.173 385.939 190.473 379.811 192.115C373.682 193.757 367.382 190.12 365.741 183.994C364.099 177.865 367.737 171.567 373.865 169.925C379.993 168.283 386.293 171.919 387.935 178.047Z" fill="white"/>
<path d="M386.098 178.539C387.468 183.651 384.434 188.91 379.319 190.28C374.205 191.651 368.948 188.614 367.578 183.502C366.207 178.385 369.242 173.129 374.356 171.758C379.471 170.388 384.727 173.423 386.098 178.539Z" fill="#34373D"/>
<path d="M418.229 169.93C419.998 176.529 416.082 183.315 409.48 185.084C402.878 186.853 396.091 182.935 394.323 176.335C392.553 169.731 396.472 162.947 403.074 161.178C409.676 159.409 416.46 163.325 418.229 169.93Z" fill="#353938"/>
<path d="M417.372 170.159C419.013 176.285 415.38 182.584 409.25 184.227C403.121 185.869 396.824 182.231 395.182 176.105C393.54 169.977 397.176 163.679 403.304 162.037C409.435 160.395 415.73 164.031 417.372 170.159Z" fill="white"/>
<path d="M415.539 170.65C416.909 175.763 413.87 181.022 408.758 182.392C403.646 183.762 398.387 180.726 397.017 175.613C395.646 170.497 398.683 165.24 403.795 163.87C408.907 162.5 414.168 165.534 415.539 170.65Z" fill="#34373D"/>
<path d="M479.463 143.593L500.249 138.023L499.289 134.443L478.504 140.013L479.463 143.593Z" fill="#B9BCBA"/>
<path d="M486.472 135.796L487.178 138.431L479.324 154.196L453.025 161.242L438.34 151.517L437.634 148.882L486.472 135.796Z" fill="#535B65"/>
<path d="M468.433 156.478C470.201 163.077 476.983 166.997 483.585 165.228C490.187 163.459 494.105 156.672 492.337 150.072C490.567 143.468 483.782 139.552 477.18 141.321C470.577 143.09 466.663 149.873 468.433 156.478Z" fill="#353938"/>
<path d="M501.419 143.977L504.004 143.284L499.911 128.01L497.326 128.702L501.419 143.977Z" fill="#B9BCBA"/>
<path d="M497.269 138.821L501.419 143.977L497.326 128.702L496.31 135.242L497.269 138.821Z" fill="#535B65"/>
<path d="M469.288 156.248C470.929 162.375 477.229 166.012 483.356 164.37C489.486 162.728 493.123 156.428 491.482 150.302C489.84 144.173 483.54 140.538 477.41 142.181C471.284 143.822 467.646 150.12 469.288 156.248Z" fill="white"/>
<path d="M471.125 155.756C472.495 160.869 477.752 163.906 482.864 162.536C487.98 161.165 491.015 155.906 489.645 150.794C488.274 145.677 483.017 142.643 477.901 144.014C472.789 145.383 469.754 150.64 471.125 155.756Z" fill="#34373D"/>
<path d="M438.993 164.366C440.762 170.966 447.546 174.884 454.148 173.115C460.748 171.347 464.669 164.56 462.9 157.96C461.131 151.356 454.342 147.44 447.743 149.209C441.141 150.978 437.224 157.762 438.993 164.366Z" fill="#353938"/>
<path d="M439.849 164.137C441.49 170.263 447.788 173.901 453.919 172.258C460.047 170.616 463.682 164.317 462.041 158.19C460.399 152.062 454.101 148.426 447.973 150.068C441.842 151.711 438.207 158.008 439.849 164.137Z" fill="white"/>
<path d="M441.684 163.645C443.053 168.757 448.313 171.794 453.427 170.423C458.539 169.053 461.576 163.794 460.206 158.682C458.835 153.565 453.576 150.531 448.464 151.901C443.35 153.271 440.313 158.528 441.684 163.645Z" fill="#34373D"/>
<path d="M491.764 130.519L355.605 167.002L339.542 107.052L475.7 70.5689L491.764 130.519" fill="#FBB03B"/>
<path d="M489.098 128.426L356.867 163.857L342.208 109.148L474.439 73.7166L489.098 128.426" fill="#E58126"/>
<path d="M389.534 155.104L387.566 155.631L372.907 100.922L374.875 100.395L389.534 155.104" fill="#FBB03B"/>
<path d="M423.966 145.878L422 146.405L407.341 91.6957L409.306 91.169L423.966 145.878" fill="#FBB03B"/>
<path d="M458.399 136.652L456.431 137.179L441.772 82.4698L443.74 81.9426L458.399 136.652" fill="#FBB03B"/>
<path d="M425.801 86.7492L416.038 116.284L415.219 113.227L423.792 87.2873L425.801 86.7492" fill="#FBB03B"/>
<path d="M457.949 78.135L481.169 98.8321L480.35 95.7755L459.958 77.5969L457.949 78.135" fill="#FBB03B"/>
<path d="M358.698 104.729L348.937 134.263L348.118 131.207L356.689 105.268L358.698 104.729" fill="#FBB03B"/>
<path d="M390.848 96.1146L414.07 116.811L413.251 113.754L392.857 95.5765L390.848 96.1146" fill="#FBB03B"/>
<path d="M405.506 89.3773L405.833 87.8883L410.296 86.2537C410.296 86.2537 410.3 83.5326 410.482 83.3917C410.665 83.2579 413.09 83.5729 413.09 83.5729L413.095 80.3252L417.603 79.1173L419.867 74.9979L425.17 71.6451L428.574 73.3658L432.41 71.0237L432.919 68.7807L437.958 67.4304L440.112 70.0146L445.73 66.6645L447.976 69.0469L452.611 66.4012L455.279 67.0901L455.86 69.2592L459.821 68.1978L462.718 70.8035L468.939 70.2763L472.674 71.3799L405.506 89.3773" fill="#1B2326"/>
<path d="M342.311 106.31L341.741 104.184L347.905 101.303L348.17 96.6673L354.442 96.4342L355.628 94.6691L359.583 92.5571L360.848 89.4083L364.087 88.5404L366.171 89.5626L371.041 91.9864L373.248 87.8411L377.501 87.4046L381.03 89.3099L384.738 87.3974L388.697 85.2821L392.447 86.9125L397.967 88.9437L402.109 86.954L404.068 89.7627L342.311 106.31Z" fill="#1B2326"/>
<path d="M58.4699 68.3315L55.0719 116.926C54.5135 124.911 60.5309 131.838 68.5156 132.396L152.415 138.263C160.4 138.821 167.323 132.799 167.881 124.815L171.279 76.2199L58.4699 68.3315Z" fill="#0E4A73"/>
<path d="M64.2884 61.7294L65.4917 59.7508L72.7095 59.609C72.7095 59.609 74.059 55.7028 74.3912 55.5939C74.7183 55.4908 78.0469 57.1407 78.0469 57.1407L79.6617 52.4806L86.7299 52.9748L92.0154 48.1777L101.289 45.9847L105.323 50.1395L111.989 48.6714L113.828 45.7024L121.731 46.2551L123.548 51.0301L133.27 48.9978L135.316 53.5307L143.278 52.0203L146.766 54.3314L146.529 57.734L152.742 58.1685L155.614 63.3415L164.805 65.6622L169.623 69.095L64.2884 61.7294Z" fill="#1B2326"/>
<path d="M147.328 154.831L71.2472 149.511L72.4249 132.669L148.506 137.989L147.328 154.831Z" fill="#28292E"/>
<path d="M176.414 76.579L53.3348 67.9724L53.8219 61.0064L176.902 69.6129L176.414 76.579Z" fill="#5D8BC8"/>
<path d="M73.3834 150.664C72.7875 159.185 79.2111 166.577 87.7303 167.173C96.2494 167.769 103.642 161.343 104.237 152.822C104.834 144.297 98.4076 136.905 89.8885 136.31C81.3693 135.714 73.9795 142.139 73.3834 150.664Z" fill="#535B65"/>
<path d="M75.7008 150.826C75.1943 158.069 80.6488 164.351 87.8922 164.857C95.1332 165.364 101.411 159.903 101.918 152.659C102.424 145.418 96.9671 139.138 89.7261 138.632C82.4827 138.125 76.2072 143.584 75.7008 150.826Z" fill="#5D8BC8"/>
<path d="M82.9214 151.331C82.694 154.583 85.1477 157.404 88.3975 157.632C91.6473 157.859 94.4698 155.407 94.6972 152.154C94.9247 148.901 92.471 146.08 89.2212 145.853C85.9713 145.626 83.1489 148.078 82.9214 151.331Z" fill="#34373D"/>
<path d="M80.8705 143.86C80.7716 145.275 81.8376 146.502 83.2522 146.601C84.6667 146.7 85.8931 145.633 85.992 144.219C86.0909 142.804 85.025 141.577 83.6104 141.478C82.1959 141.379 80.9694 142.446 80.8705 143.86Z" fill="#34373D"/>
<path d="M78.8622 156.861C80.1757 157.391 81.6736 156.755 82.2043 155.441C82.7351 154.125 82.0993 152.629 80.7858 152.098C79.4702 151.565 77.9745 152.201 77.4437 153.517C76.9108 154.831 77.5464 156.329 78.8622 156.861Z" fill="#34373D"/>
<path d="M90.6013 162.786C91.5113 161.7 91.3686 160.08 90.2829 159.167C89.1971 158.257 87.5784 158.398 86.6658 159.486C85.7557 160.573 85.8985 162.192 86.9819 163.104C88.0677 164.015 89.6887 163.874 90.6013 162.786Z" fill="#34373D"/>
<path d="M99.8628 153.451C99.1127 152.248 97.5271 151.883 96.3251 152.634C95.1231 153.384 94.7586 154.97 95.5086 156.172C96.2609 157.375 97.8442 157.741 99.0463 156.99C100.248 156.239 100.615 154.652 99.8628 153.451Z" fill="#34373D"/>
<path d="M93.85 141.753C92.4754 142.096 91.6374 143.491 91.98 144.866C92.3225 146.243 93.7173 147.082 95.0921 146.737C96.469 146.394 97.3047 144.998 96.9621 143.623C96.6195 142.248 95.2246 141.41 93.85 141.753Z" fill="#34373D"/>
<path d="M142.82 162.663C138.366 169.953 128.849 172.252 121.562 167.797C114.275 163.342 111.977 153.82 116.429 146.53C120.885 139.238 130.404 136.943 137.691 141.396C144.979 145.851 147.275 155.371 142.82 162.663Z" fill="#535B65"/>
<path d="M140.839 161.452C137.053 167.646 128.968 169.602 122.772 165.815C116.579 162.029 114.628 153.938 118.414 147.743C122.198 141.55 130.285 139.596 136.478 143.382C142.672 147.17 144.622 155.259 140.839 161.452Z" fill="#5D8BC8"/>
<path d="M134.663 157.676C132.962 160.458 129.329 161.336 126.548 159.634C123.769 157.936 122.892 154.302 124.59 151.519C126.291 148.737 129.924 147.86 132.703 149.559C135.484 151.26 136.361 154.894 134.663 157.676Z" fill="#34373D"/>
<path d="M140.664 152.778C139.923 153.988 138.343 154.37 137.133 153.631C135.926 152.891 135.542 151.309 136.283 150.099C137.021 148.889 138.602 148.507 139.812 149.249C141.021 149.987 141.402 151.568 140.664 152.778Z" fill="#34373D"/>
<path d="M134.766 164.535C133.388 164.205 132.537 162.819 132.866 161.441C133.194 160.061 134.581 159.211 135.959 159.539C137.339 159.868 138.188 161.255 137.861 162.634C137.531 164.013 136.146 164.864 134.766 164.535Z" fill="#34373D"/>
<path d="M121.766 162.558C121.652 161.144 122.708 159.906 124.121 159.794C125.535 159.68 126.773 160.734 126.884 162.147C126.998 163.562 125.942 164.8 124.529 164.914C123.118 165.027 121.88 163.972 121.766 162.558Z" fill="#34373D"/>
<path d="M119.63 149.579C120.938 149.035 122.442 149.655 122.986 150.966C123.53 152.275 122.908 153.777 121.599 154.321C120.29 154.867 118.787 154.245 118.243 152.937C117.699 151.628 118.319 150.123 119.63 149.579Z" fill="#34373D"/>
<path d="M131.307 143.535C132.231 144.612 132.104 146.234 131.027 147.157C129.952 148.079 128.329 147.954 127.408 146.877C126.485 145.797 126.612 144.177 127.689 143.254C128.766 142.333 130.386 142.458 131.307 143.535Z" fill="#34373D"/>
<path d="M162.79 120.826L60.669 113.685L63.4802 73.4826L165.601 80.6236L162.79 120.826Z" fill="#5D8BC8"/>
<path d="M114.871 121.389L108.043 120.911L111.399 72.9194L118.227 73.3968L114.871 121.389Z" fill="#0E4A73"/>
<path d="M44.6933 140.764L71.7267 142.654L71.3567 147.946L44.3233 146.056L44.6933 140.764Z" fill="#28292E"/>
<path d="M39.7316 138.938L54.4502 139.967C55.6896 140.054 56.6246 141.129 56.5379 142.369L56.276 146.114C56.1893 147.353 55.1138 148.289 53.8744 148.202L39.1557 147.173L39.7316 138.938Z" fill="#535B65"/>
</svg>
