<svg width="1440" height="320" viewBox="0 0 1440 320" fill="none" xmlns="http://www.w3.org/2000/svg">
<g id="wave 1" clip-path="url(#clip0_1_2)">
<g id="Vector" filter="url(#filter0_d_1_2)">
<path d="M0 288L48 272C96 256 192 224 288 197.3C384 171 480 149 576 165.3C672 181 768 235 864 250.7C960 267 1056 245 1152 250.7C1248 256 1344 288 1392 304L1440 320H1392C1344 320 1248 320 1152 320C1056 320 960 320 864 320C768 320 672 320 576 320C480 320 384 320 288 320C192 320 96 320 48 320H0V288Z" fill="#1A365D"/>
</g>
<g id="mandrilling">
<path id="path238" d="M912.68 204.628C919.67 210.899 927.306 218 929.591 220.376L928.46 221.745L927.605 222.887C924.841 221.091 916.737 215.657 908.94 209.581C906.29 207.516 906.627 205.708 907.607 204.521C908.588 203.333 910.18 202.384 912.68 204.628Z" fill="#0E4A73"/>
<path id="path240" d="M931.379 221.912C931.87 222.347 931.77 223.268 931.153 223.969C930.581 224.708 929.695 224.98 929.175 224.58L927.329 223.115L928.46 221.745L929.591 220.376L931.379 221.912Z" fill="#E4B69D"/>
<path id="path242" d="M906.445 253.248C908.254 253.248 909.846 254.945 910.089 257.143C910.105 257.292 910.057 257.44 909.957 257.552C909.858 257.663 909.715 257.725 909.566 257.725H901.093C899.345 257.725 899.082 257.048 899.01 256.285C898.945 255.593 899.179 254.492 899.858 253.248H906.445Z" fill="#34373D"/>
<path id="path244" d="M918.022 228.003C918.022 228.003 915.342 239.441 913.051 243.883C910.496 248.837 906.576 253.248 906.576 253.248H903.167H899.858C899.858 253.248 905.104 242.941 905.333 241.696C905.628 240.104 906.842 231.571 906.842 228.003H918.022Z" fill="#0E4A73"/>
<path id="path246" d="M927.166 239.564C926.567 236.824 918.387 229.323 918.387 228.14C918.387 224.163 914.237 205.728 913.014 201.813C912.328 199.62 911.506 198.935 911.657 197.163L910.883 196.86L910.11 196.556C908.364 197.119 907.065 197.776 905.957 199.051C900.178 205.701 903.712 221.024 906.577 229.041C909.087 236.067 918.411 240.188 918.789 241.383C919.171 242.589 921.413 253.196 921.413 253.196L925.117 253.213L929.28 253.233C929.28 253.233 927.695 241.987 927.166 239.564Z" fill="#5D8BC8"/>
<path id="path248" d="M929.187 253.233C931.147 253.243 932.757 254.948 932.992 257.148C933.008 257.296 932.96 257.444 932.86 257.555C932.76 257.665 932.618 257.728 932.469 257.728L923.451 257.725C921.703 257.717 921.404 256.841 921.408 255.812L921.413 253.196L929.187 253.233Z" fill="#34373D"/>
<path id="path250" d="M956.336 254.696L956.858 257.728L954.078 256.409L945.017 244.469L947.275 242.756L956.336 254.696Z" fill="#B9BCBA"/>
<path id="path252" d="M947.166 242.839L945.126 244.387C944.316 245.001 943.16 244.843 942.546 244.033L936.229 235.708L941.202 231.935L947.519 240.259C948.134 241.069 947.976 242.224 947.166 242.839Z" fill="#34373D"/>
<path id="path254" d="M941.832 231.456L935.599 236.187C934.857 236.749 933.801 236.604 933.238 235.863L923.053 222.443L931.971 215.675L942.155 229.096C942.718 229.837 942.573 230.893 941.832 231.456Z" fill="#FBB03B"/>
<path id="path256" d="M931.971 215.675L923.053 222.443L920.227 218.719C919.75 218.089 919.873 217.193 920.502 216.715L927.141 211.677C927.77 211.199 928.668 211.323 929.145 211.952L931.971 215.675Z" fill="#34373D"/>
<path id="path258" d="M921.375 192.687C919.582 197.267 914.386 199.513 909.767 197.705C905.149 195.899 902.859 190.72 904.652 186.14C906.445 181.559 911.642 179.311 916.26 181.119C920.878 182.927 923.168 188.104 921.375 192.687Z" fill="#E4B69D"/>
<path id="path260" d="M925.482 225.997L928.564 223.611C929.382 222.515 928.281 220.627 926.743 221.211L923.661 223.597C922.999 224.1 922.869 225.045 923.371 225.708C923.875 226.371 924.819 226.5 925.482 225.997Z" fill="#34373D"/>
<path id="path262" d="M935.497 222.66L929.028 227.569L928.237 226.528L934.706 221.619L935.497 222.66Z" fill="#34373D"/>
<path id="path264" d="M937.079 224.744L930.61 229.653L929.818 228.612L936.288 223.703L937.079 224.744Z" fill="#34373D"/>
<path id="path266" d="M938.66 226.828L932.191 231.739L931.4 230.696L937.87 225.787L938.66 226.828Z" fill="#34373D"/>
<path id="path268" d="M947.43 242.637L944.861 244.588L945.616 245.583L948.186 243.633L947.43 242.637Z" fill="#666666"/>
<path id="path270" d="M925.752 224.82C925.752 225.515 925.189 226.077 924.495 226.077C923.801 226.077 923.239 225.515 923.239 224.82C923.239 224.127 923.801 223.564 924.495 223.564C925.189 223.564 925.752 224.127 925.752 224.82Z" fill="#666666"/>
<path id="path272" d="M922.028 220.517L924.334 221.003C924.974 221.148 925.331 222.003 925.128 222.915C924.924 223.829 924.239 224.453 923.598 224.309L921.411 223.765L922.028 220.517Z" fill="#E4B69D"/>
<path id="path274" d="M910.749 204.647C911 198.771 905.04 198.869 904.782 203.263C904.055 215.629 910.43 223.703 921.411 224.075L922.655 220.376C914.499 219.008 910.952 213.803 910.749 204.647Z" fill="#0E4A73"/>
<path id="path276" d="M907.272 176.656C907.272 176.656 907.399 176.108 907.514 176.02C907.628 175.932 909.245 174.675 911.353 174.244C913.319 173.844 915.853 173.863 918.277 174.859C920.701 175.855 921.918 176.959 922.036 177.344C922.094 177.535 922.637 181.172 922.637 181.172L907.272 176.656Z" fill="#E58126"/>
<path id="path278" d="M923.277 187.728C923.277 187.728 923.322 186.696 923.277 185.343C923.219 183.632 922.827 181.344 922.23 180.033C921.063 177.469 918.46 175.469 915.984 174.82C913.509 174.172 910.338 174.279 907.519 176.455C904.562 178.737 902.978 184.475 902.877 185.265L923.277 187.728Z" fill="#FBB03B"/>
<path id="path280" d="M923.277 185.343C924.415 186.624 924.927 186.983 926.528 188.312C926.754 188.5 926.647 188.925 925.863 188.995C924.993 189.071 920.537 189.185 913.256 188.248C906.41 187.365 902.129 185.781 901.946 185.545C901.946 185.545 902.776 184.483 903.251 183.805C910.86 186.039 917.26 186.587 921.08 186.528C922.679 186.503 923.277 185.343 923.277 185.343Z" fill="#E58126"/>
<path id="path282" d="M915.731 183.951L919.178 184.395C919.407 184.424 919.569 184.633 919.539 184.861L919.249 187.119L914.972 186.568L915.263 184.311C915.292 184.083 915.502 183.92 915.731 183.951Z" fill="#E58126"/>
<path id="path284" d="M907.708 182.916L911.155 183.361C911.384 183.391 911.546 183.6 911.516 183.828L911.226 186.085L906.949 185.535L907.24 183.277C907.269 183.049 907.479 182.887 907.708 182.916Z" fill="#E58126"/>
<path id="path286" d="M921.596 181.079C921.828 180.959 919.408 176.237 914.672 175.628C909.853 175.007 907.56 177.481 907.522 177.767C907.486 178.052 910.159 176.932 914.219 177.629C918.58 178.377 921.095 181.337 921.596 181.079Z" fill="#E58126"/>
<path id="path288" d="M925.084 185.701L926.383 185.868C926.485 185.881 926.578 185.809 926.591 185.708L927.334 179.94C927.347 179.839 927.275 179.745 927.174 179.732L925.875 179.565C925.773 179.552 925.68 179.624 925.667 179.725L924.924 185.493C924.911 185.595 924.983 185.688 925.084 185.701Z" fill="#28292E"/>
<path id="path290" d="M924.77 179.756L925.649 179.869L924.943 185.349L924.065 185.237C923.325 185.141 922.883 183.837 923.078 182.324C923.273 180.811 924.031 179.66 924.77 179.756Z" fill="#28292E"/>
<path id="path292" d="M904.158 180.767L924.242 183.353C924.38 183.371 924.506 183.273 924.525 183.135L924.683 181.905C924.701 181.767 924.603 181.641 924.465 181.623L904.895 179.103L904.158 180.767Z" fill="#535B65"/>
<path id="path294" d="M957.606 256.085L957.029 246.439H959.127L957.606 256.085Z" fill="#34373D"/>
<path id="path296" d="M958.414 256.031L962.105 250.243L963.615 251.291L958.414 256.031Z" fill="#34373D"/>
<path id="path298" d="M952.961 257.135L947.894 252.479L946.262 253.421L952.961 257.135Z" fill="#34373D"/>
<path id="path300" d="M951.178 257.507L946.363 256.492L945.613 257.583L951.178 257.507Z" fill="#34373D"/>
</g>
<g id="crane">
<path id="path302" d="M1189.01 220.321L1144.58 216.433L1143.94 223.717L1188.38 227.604L1189.01 220.321Z" fill="#28292E"/>
<path id="path304" d="M1104.79 75.2395L1109 69.4704L1147.72 97.7193L1143.51 103.486L1104.79 75.2395Z" fill="#666666"/>
<path id="path306" d="M1082.06 56.8452L1084.55 53.4359L1108.14 70.6517L1105.66 74.0583L1082.06 56.8452Z" fill="#B9BCBA"/>
<path id="path308" d="M1153.73 194.078C1153.73 194.078 1156.9 157.869 1157.49 151.082C1158.5 139.606 1152.92 125.924 1142.33 117.179C1131.73 108.435 1092.63 88.3566 1086.41 84.2714C1079.68 79.8553 1078.06 77.3918 1077.24 73.8998C1076.47 70.6091 1079.41 67.1165 1082.22 68.3584C1085.03 69.6 1146.79 96.533 1156.73 102.151C1166.81 107.86 1178.4 128.07 1176.78 146.578C1175.45 161.774 1172.48 195.719 1172.48 195.719L1153.73 194.078Z" fill="#E58126"/>
<path id="path310" d="M1030.16 168.064C1030.16 168.064 1077.35 82.7203 1079.56 78.6767C1081.77 74.6361 1085.26 55.2901 1085.56 51.8953C1085.85 48.4977 1080.11 48.834 1077.78 49.9211C1075.45 51.0108 1061.03 65.8718 1059.48 68.7756C1057.92 71.6795 1024.94 160.703 1024.72 163.265C1024.49 165.831 1029.08 167.97 1030.16 168.064Z" fill="#FBB03B"/>
<path id="path312" d="M1258.85 201.475C1258.14 195.988 1253.7 191.738 1248.19 191.256L1177.3 185.054L1174.33 219.036L1253.28 225.943C1255.44 226.132 1257.57 225.331 1259.07 223.764C1260.57 222.201 1261.28 220.039 1261 217.89L1258.85 201.475Z" fill="#5D8BC8"/>
<path id="path314" d="M1112.74 252.169C1103.9 251.396 1097.33 243.567 1098.1 234.724C1098.88 225.877 1106.71 219.311 1115.55 220.085C1115.83 220.087 1152.2 220.709 1164.23 221.762C1176.26 222.815 1212.18 228.516 1212.54 228.574L1212.55 228.574C1221.31 229.341 1227.87 237.166 1227.1 246.009C1226.32 254.853 1218.5 261.422 1209.65 260.648L1112.74 252.169Z" fill="#535B65"/>
<path id="path316" d="M1209.85 258.37C1217.44 259.034 1224.15 253.398 1224.82 245.81C1225.48 238.222 1219.89 231.512 1212.34 230.852L1212.17 230.832C1211.83 230.775 1175.98 225.085 1164.03 224.04C1152.02 222.989 1115.87 222.377 1115.54 222.371L1115.44 222.372L1115.35 222.363C1107.76 221.7 1101.05 227.335 1100.38 234.923C1099.72 242.511 1105.35 249.227 1112.94 249.891L1209.85 258.37Z" fill="#28292E"/>
<path id="path318" d="M1127.91 237.331C1128.57 229.729 1122.95 223.028 1115.35 222.363C1107.75 221.698 1101.05 227.321 1100.38 234.923C1099.72 242.525 1105.34 249.223 1112.94 249.888C1120.54 250.553 1127.24 244.933 1127.91 237.331Z" fill="#B9BCBA"/>
<path id="path320" d="M1113.45 244.033C1109.09 243.652 1105.86 239.793 1106.24 235.436C1106.62 231.075 1110.48 227.84 1114.84 228.221C1119.2 228.603 1122.43 232.458 1122.05 236.819C1121.67 241.177 1117.81 244.415 1113.45 244.033Z" fill="#28292E"/>
<path id="path322" d="M1189.24 231.722C1189.44 229.507 1187.8 227.554 1185.58 227.36C1183.37 227.166 1181.42 228.805 1181.22 231.02C1181.03 233.233 1182.67 235.186 1184.88 235.38C1187.1 235.574 1189.05 233.935 1189.24 231.722Z" fill="#B9BCBA"/>
<path id="path324" d="M1187.35 252.353C1187.54 250.137 1185.9 248.185 1183.69 247.991C1181.47 247.797 1179.52 249.436 1179.33 251.651C1179.13 253.864 1180.77 255.817 1182.99 256.011C1185.2 256.204 1187.15 254.566 1187.35 252.353Z" fill="#B9BCBA"/>
<path id="path326" d="M1144.08 248.568C1144.28 246.352 1142.64 244.399 1140.42 244.206C1138.21 244.012 1136.25 245.65 1136.06 247.866C1135.87 250.079 1137.5 252.031 1139.72 252.225C1141.94 252.419 1143.89 250.781 1144.08 248.568Z" fill="#B9BCBA"/>
<path id="path328" d="M1137.86 227.227C1138.06 225.011 1140.01 223.373 1142.23 223.567C1144.44 223.761 1146.08 225.713 1145.89 227.929C1145.69 230.142 1143.74 231.78 1141.52 231.587C1139.31 231.393 1137.67 229.44 1137.86 227.227Z" fill="#B9BCBA"/>
<path id="path330" d="M1197.29 243.402C1197.96 235.8 1204.66 230.177 1212.26 230.842C1219.86 231.507 1225.48 238.208 1224.82 245.81C1224.15 253.409 1217.45 259.032 1209.85 258.367C1202.25 257.702 1196.63 251.001 1197.29 243.402Z" fill="#B9BCBA"/>
<path id="path332" d="M1210.37 252.512C1206 252.13 1202.77 248.272 1203.15 243.914C1203.53 239.554 1207.39 236.318 1211.75 236.7C1216.11 237.081 1219.34 240.937 1218.96 245.298C1218.58 249.655 1214.72 252.893 1210.37 252.512Z" fill="#28292E"/>
<path id="path334" d="M1212.24 250.489L1111.96 241.715L1112.96 230.241L1213.24 239.015L1212.24 250.489Z" fill="#5D8BC8"/>
<path id="path336" d="M1174.33 219.036L1132.88 215.409C1128.94 215.065 1126.03 211.596 1126.38 207.658L1127.12 199.127C1127.86 190.73 1128.47 168.29 1139.78 156.87C1140.74 155.903 1142.08 155.411 1143.44 155.529L1173.74 158.181C1175.63 158.345 1177.07 159.915 1177.09 161.806L1177.3 185.054L1174.33 219.036Z" fill="#0E4A73"/>
<path id="path338" d="M1133.6 211.402C1131.62 211.229 1130.16 209.48 1130.33 207.503L1131.06 199.157C1131.13 198.387 1131.19 197.5 1131.27 196.515C1131.93 187.634 1133.31 169.162 1142.47 159.908C1142.7 159.681 1143.02 159.563 1143.34 159.591L1172.99 162.185C1173.08 162.194 1173.16 162.275 1173.16 162.372L1173.32 179.925C1173.35 182.933 1171.45 185.621 1168.61 186.603L1163.43 188.394C1160.5 189.406 1158.15 191.623 1156.97 194.485L1151.39 208.034C1150.22 210.861 1147.35 212.605 1144.31 212.339L1133.6 211.402Z" fill="white"/>
<path id="path340" d="M1209.27 191.973L1193.71 190.611C1193.23 190.57 1192.75 191.616 1192.64 192.942L1193.49 193.017L1194.35 193.092L1208.2 194.304L1209.06 194.379L1209.92 194.454C1210.03 193.127 1209.74 192.014 1209.27 191.973Z" fill="#0E4A73"/>
<path id="path342" d="M1208.83 196.953L1193.27 195.591C1192.79 195.55 1192.32 196.593 1192.2 197.922L1193.06 197.997L1193.91 198.072L1207.77 199.284L1208.62 199.359L1209.48 199.434C1209.6 198.104 1209.31 196.994 1208.83 196.953Z" fill="#0E4A73"/>
<path id="path344" d="M1208.4 201.93L1192.83 200.568C1192.36 200.527 1191.88 201.57 1191.77 202.899L1192.62 202.974L1193.48 203.049L1207.33 204.261L1208.19 204.336L1209.05 204.411C1209.16 203.082 1208.87 201.971 1208.4 201.93Z" fill="#0E4A73"/>
<path id="path346" d="M1229.05 193.703L1213.48 192.341C1213.01 192.3 1212.53 193.346 1212.41 194.672L1213.27 194.747L1214.13 194.822L1227.98 196.034L1228.84 196.109L1229.7 196.184C1229.81 194.858 1229.52 193.745 1229.05 193.703Z" fill="#0E4A73"/>
<path id="path348" d="M1228.61 198.683L1213.04 197.321C1212.57 197.28 1212.09 198.323 1211.98 199.652L1212.83 199.727L1213.69 199.802L1227.54 201.014L1228.4 201.089L1229.26 201.164C1229.38 199.835 1229.09 198.725 1228.61 198.683Z" fill="#0E4A73"/>
<path id="path350" d="M1228.18 203.66L1212.61 202.298C1212.14 202.257 1211.66 203.3 1211.54 204.629L1212.4 204.704L1213.26 204.779L1227.11 205.991L1227.97 206.066L1228.82 206.141C1228.94 204.812 1228.65 203.702 1228.18 203.66Z" fill="#0E4A73"/>
<path id="path352" d="M1248.83 195.433L1233.26 194.072C1232.78 194.03 1232.31 195.076 1232.19 196.403L1233.05 196.478L1233.91 196.553L1247.76 197.765L1248.62 197.84L1249.47 197.915C1249.59 196.588 1249.3 195.475 1248.83 195.433Z" fill="#0E4A73"/>
<path id="path354" d="M1248.39 200.413L1232.82 199.051C1232.35 199.01 1231.87 200.053 1231.75 201.383L1232.61 201.458L1233.47 201.533L1247.32 202.745L1248.18 202.82L1249.04 202.895C1249.15 201.565 1248.86 200.455 1248.39 200.413Z" fill="#0E4A73"/>
<path id="path356" d="M1247.95 205.391L1232.39 204.029C1231.91 203.987 1231.43 205.03 1231.32 206.36L1232.18 206.435L1233.03 206.51L1246.89 207.722L1247.74 207.797L1248.6 207.872C1248.72 206.542 1248.43 205.432 1247.95 205.391Z" fill="#0E4A73"/>
<path id="path358" d="M1189.93 177.328L1238.99 181.62C1240.47 181.749 1241.56 183.05 1241.43 184.527L1240.9 190.618L1186.49 185.858L1187.03 179.767C1187.16 178.29 1188.46 177.199 1189.93 177.328Z" fill="#0E4A73"/>
<path id="path360" d="M1194.26 183.315L1192.27 183.14L1192.75 177.575L1194.75 177.749L1194.26 183.315Z" fill="#28292E"/>
<path id="path362" d="M1200.17 183.831L1198.17 183.657L1198.66 178.091L1200.66 178.266L1200.17 183.831Z" fill="#28292E"/>
<path id="path364" d="M1206.08 184.348L1204.08 184.173L1204.57 178.608L1206.57 178.783L1206.08 184.348Z" fill="#28292E"/>
<path id="path366" d="M1211.98 184.865L1209.99 184.69L1210.48 179.125L1212.47 179.3L1211.98 184.865Z" fill="#28292E"/>
<path id="path368" d="M1217.89 185.382L1215.9 185.207L1216.38 179.642L1218.38 179.817L1217.89 185.382Z" fill="#28292E"/>
<path id="path370" d="M1223.8 185.899L1221.8 185.724L1222.29 180.159L1224.29 180.334L1223.8 185.899Z" fill="#28292E"/>
<path id="path372" d="M1229.71 186.416L1227.71 186.241L1228.2 180.676L1230.2 180.85L1229.71 186.416Z" fill="#28292E"/>
<path id="path374" d="M1235.61 186.932L1233.62 186.758L1234.1 181.192L1236.1 181.367L1235.61 186.932Z" fill="#28292E"/>
<path id="path376" d="M1037.01 166.752L1031.46 162.135C1029.44 160.453 1026.36 161.328 1025.53 163.823L1022.98 175.417L1029.55 201.435L1037.01 166.752Z" fill="#E58126"/>
<path id="path378" d="M1061.14 182.494C1061.14 182.494 1068.06 183.36 1069.23 183.124C1071.33 182.698 1076.56 173.251 1078.28 172.454C1080 171.654 1080.57 171.67 1080.57 171.67L1072.62 187.669L1066.99 186.375L1061.14 182.494Z" fill="#28292E"/>
<path id="path380" d="M1067.26 195.745L1031.12 171.804L1036.47 163.724C1036.47 163.724 1048.35 175.143 1052.91 178.164C1057.47 181.185 1072.62 187.669 1072.62 187.669L1067.26 195.745Z" fill="#535B65"/>
<path id="path382" d="M1049.19 183.773L1032.24 172.546C1032.24 172.546 1027.29 189.42 1026.27 193.046C1025.2 196.857 1028.1 200.468 1029.55 201.435C1031.01 202.401 1035.07 205.092 1035.07 205.092C1035.07 205.092 1039.13 207.78 1040.59 208.746C1042.05 209.713 1046.5 210.97 1049.59 208.498C1052.53 206.145 1066.14 195.003 1066.14 195.003L1049.19 183.773Z" fill="#28292E"/>
</g>
<g id="truckcoal">
<path id="path16" d="M205.263 183.977L360 145.397L347.535 95.4034L192.798 133.984L205.263 183.977Z" fill="#535B65"/>
<path id="path18" d="M288.734 175.058L320.896 167.039C323.218 166.46 324.631 164.105 324.052 161.782L317.374 134.997C316.794 132.671 314.442 131.258 312.119 131.837L279.957 139.856C277.631 140.436 276.218 142.788 276.798 145.114L283.476 171.899C284.055 174.222 286.408 175.638 288.734 175.058Z" fill="#B9BCBA"/>
<path id="path20" d="M206.927 181.764C211.866 201.572 231.929 213.627 251.737 208.688C271.545 203.75 283.598 183.687 278.659 163.879C273.72 144.071 253.661 132.018 233.852 136.957C214.044 141.895 201.988 161.955 206.927 181.764Z" fill="#34373D"/>
<path id="path22" d="M225.086 177.236C227.525 187.017 237.429 192.968 247.209 190.529C256.99 188.091 262.941 178.186 260.503 168.406C258.064 158.625 248.16 152.674 238.379 155.113C228.599 157.551 222.647 167.456 225.086 177.236Z" fill="#FBB03B"/>
<path id="path24" d="M323.71 152.647C328.649 172.455 348.712 184.51 368.52 179.571C388.329 174.632 400.381 154.57 395.442 134.762C390.503 114.953 370.444 102.9 350.635 107.839C330.827 112.778 318.771 132.838 323.71 152.647Z" fill="#34373D"/>
<path id="path26" d="M341.869 148.119C344.308 157.899 354.212 163.851 363.993 161.412C373.773 158.974 379.724 149.069 377.286 139.289C374.847 129.508 364.943 123.557 355.162 125.996C345.382 128.434 339.431 138.338 341.869 148.119Z" fill="#FBB03B"/>
<path id="path28" d="M276.828 138.817L278.854 138.312L258.268 117.66L192.823 133.977L198.875 158.253C198.875 158.253 198.46 158.356 200.937 157.739L211.111 135.318L253.578 124.73L276.828 138.817Z" fill="#FBB03B"/>
<path id="path30" d="M281.494 135.928L230.271 83.1508L185.145 94.4019L183.626 88.3076L242.638 73.5941L250.809 78.5032L398.382 41.709L421.16 66.6553L281.494 135.928Z" fill="#FBB03B"/>
<path id="path32" d="M415.729 65.6384L397.262 45.4161L237.05 85.3616L282.191 131.871L415.729 65.6384Z" fill="#E58126"/>
<path id="path34" d="M187.817 135.226L192.798 133.984L205.263 183.977L200.282 185.219L187.817 135.226Z" fill="#E58126"/>
<path id="path36" d="M245.125 120.937L240.242 101.351L233.017 92.7117L201.003 100.694L216.512 128.071L245.125 120.937Z" fill="#E58126"/>
<path id="path38" d="M217.062 118.296L233.429 114.215L228.962 96.2978L216.776 99.3361L217.062 118.296Z" fill="white"/>
<path id="path40" d="M213.7 100.103L213.956 119.07L204.472 102.404L213.7 100.103Z" fill="white"/>
<path id="path42" d="M315.335 168.426L318.202 167.711L309.425 132.509L306.558 133.224L315.335 168.426Z" fill="#535B65"/>
<path id="path44" d="M294.292 173.672L291.425 174.387L282.648 139.185L285.515 138.47L294.292 173.672Z" fill="#535B65"/>
<path id="path46" d="M296.181 144.313C296.436 145.336 297.472 145.956 298.495 145.701C299.517 145.446 300.139 144.413 299.884 143.39C299.629 142.367 298.594 141.744 297.572 141.998C296.549 142.253 295.926 143.291 296.181 144.313Z" fill="#535B65"/>
<path id="path48" d="M272.095 76.6237L311.571 117.296L296.547 124.75L254.175 81.0916L272.095 76.6237Z" fill="#FBB03B"/>
<path id="path50" d="M309.496 67.2985L342.932 101.745L327.908 109.196L291.576 71.7664L309.496 67.2985Z" fill="#FBB03B"/>
<path id="path52" d="M346.9 57.9727L374.289 86.1896L359.266 93.6435L328.98 62.4406L346.9 57.9727Z" fill="#FBB03B"/>
<path id="path54" d="M384.304 48.6468L405.647 70.6368L390.623 78.0879L366.384 53.1148L384.304 48.6468Z" fill="#FBB03B"/>
<path id="path56" d="M251.095 78.4319L256.011 74.111L257.876 68.2154L266.964 65.9495L273.689 58.1647L281.037 51.582L291.152 58.7537L310.206 44.3095L316.088 35.8619L332.897 35.1599L340.794 41.4334L355.873 39.1309L361.345 39.7054L371.412 45.3384L380.602 46.142L251.095 78.4319Z" fill="#1B2326"/>
</g>
</g>
<defs>
<filter id="filter0_d_1_2" x="-4" y="159.712" width="1448" height="168.288" filterUnits="userSpaceOnUse" color-interpolation-filters="sRGB">
<feFlood flood-opacity="0" result="BackgroundImageFix"/>
<feColorMatrix in="SourceAlpha" type="matrix" values="0 0 0 0 0 0 0 0 0 0 0 0 0 0 0 0 0 0 127 0" result="hardAlpha"/>
<feOffset dy="4"/>
<feGaussianBlur stdDeviation="2"/>
<feComposite in2="hardAlpha" operator="out"/>
<feColorMatrix type="matrix" values="0 0 0 0 0 0 0 0 0 0 0 0 0 0 0 0 0 0 1 0"/>
<feBlend mode="normal" in2="BackgroundImageFix" result="effect1_dropShadow_1_2"/>
<feBlend mode="normal" in="SourceGraphic" in2="effect1_dropShadow_1_2" result="shape"/>
</filter>
<clipPath id="clip0_1_2">
<rect width="1440" height="320" fill="white"/>
</clipPath>
</defs>
</svg>
