<svg width="1440" height="319" viewBox="0 0 1440 319" fill="none" xmlns="http://www.w3.org/2000/svg">
<g id="wave 3" clip-path="url(#clip0_15_308)">
<g id="Vector" filter="url(#filter0_d_15_308)">
<path d="M0 287.1L48 271.15C96 255.2 192 223.3 288 196.683C384 170.466 480 148.534 576 164.783C672 180.434 768 234.266 864 249.917C960 266.166 1056 244.234 1152 249.917C1248 255.2 1344 287.1 1392 303.05L1440 319H1392C1344 319 1248 319 1152 319C1056 319 960 319 864 319C768 319 672 319 576 319C480 319 384 319 288 319C192 319 96 319 48 319H0V287.1Z" fill="black"/>
</g>
<g id="mandrilling">
<path id="path238" d="M212.011 165.508C219.984 170.46 228.736 176.117 231.4 178.056L230.525 179.596L229.881 180.865C226.848 179.578 217.924 175.641 209.191 171.019C206.223 169.448 206.239 167.614 206.998 166.279C207.756 164.943 209.158 163.736 212.011 165.508Z" fill="#0E4A73"/>
<path id="path240" d="M233.427 179.246C233.986 179.588 234.048 180.511 233.563 181.306C233.128 182.13 232.303 182.55 231.722 182.247L229.65 181.127L230.525 179.587L231.4 178.046L233.427 179.246Z" fill="#E4B69D"/>
<path id="path242" d="M214.313 214.324C216.094 214.012 217.957 215.404 218.579 217.522C218.621 217.666 218.6 217.819 218.521 217.947C218.442 218.072 218.313 218.159 218.166 218.184L209.823 219.648C208.102 219.95 207.725 219.33 207.522 218.593C207.337 217.924 207.376 216.802 207.827 215.462L214.313 214.324Z" fill="#34373D"/>
<path id="path244" d="M221.321 187.537C221.321 187.537 220.674 199.233 219.192 203.991C217.541 209.297 214.45 214.306 214.45 214.306L211.095 214.894L207.838 215.466C207.838 215.466 211.207 204.438 211.216 203.176C211.229 201.561 210.939 192.971 210.318 189.468L221.321 187.537Z" fill="#0E4A73"/>
<path id="path246" d="M232.341 197.313C231.275 194.726 221.92 188.772 221.714 187.611C221.022 183.705 213.731 166.32 211.846 162.687C210.789 160.652 209.861 160.12 209.702 158.354L208.887 158.191L208.073 158.026C206.454 158.88 205.29 159.749 204.421 161.192C199.891 168.721 206.036 183.157 210.25 190.535C213.942 197 223.835 199.437 224.415 200.545C225 201.664 229.052 211.692 229.052 211.692L232.7 211.07L236.8 210.371C236.8 210.371 233.284 199.6 232.341 197.313Z" fill="#5D8BC8"/>
<path id="path248" d="M236.707 210.373C238.638 210.044 240.521 211.441 241.135 213.562C241.177 213.705 241.155 213.859 241.076 213.985C240.997 214.111 240.868 214.197 240.722 214.222L231.841 215.778C230.119 216.072 229.672 215.263 229.497 214.251L229.046 211.679L236.707 210.373Z" fill="#34373D"/>
<path id="path250" d="M263.698 207.115L264.739 210.002L261.774 209.187L250.776 199.026L252.701 196.953L263.698 207.115Z" fill="#B9BCBA"/>
<path id="path252" d="M252.609 197.061L250.87 198.934C250.18 199.677 249.015 199.721 248.269 199.032L240.601 191.947L244.84 187.382L252.507 194.466C253.254 195.156 253.299 196.318 252.609 197.061Z" fill="#34373D"/>
<path id="path254" d="M245.378 186.812L240.066 192.534C239.434 193.215 238.368 193.255 237.685 192.624L225.324 181.202L232.924 173.015L245.285 184.438C245.968 185.069 246.009 186.131 245.378 186.812Z" fill="#FBB03B"/>
<path id="path256" d="M232.925 173.022L225.325 181.209L221.894 178.04C221.315 177.504 221.28 176.603 221.816 176.024L227.475 169.93C228.011 169.351 228.916 169.318 229.495 169.853L232.925 173.022Z" fill="#34373D"/>
<path id="path258" d="M218.499 152.291C217.531 157.099 212.807 160.203 207.946 159.225C203.086 158.248 199.93 153.557 200.897 148.749C201.865 143.94 206.589 140.834 211.45 141.813C216.311 142.791 219.467 147.481 218.499 152.291Z" fill="#E4B69D"/>
<path id="path260" d="M228.331 184.278L230.95 181.402C231.565 180.184 230.152 178.52 228.74 179.359L226.121 182.235C225.556 182.843 225.593 183.794 226.203 184.358C226.814 184.922 227.767 184.886 228.331 184.278Z" fill="#34373D"/>
<path id="path262" d="M237.611 179.268L232.097 185.207L231.138 184.321L236.652 178.381L237.611 179.268Z" fill="#34373D"/>
<path id="path264" d="M239.531 181.04L234.017 186.979L233.057 186.093L238.571 180.154L239.531 181.04Z" fill="#34373D"/>
<path id="path266" d="M241.45 182.812L235.937 188.753L234.976 187.865L240.491 181.926L241.45 182.812Z" fill="#34373D"/>
<path id="path268" d="M252.834 196.814L250.644 199.173L251.56 200.02L253.75 197.661L252.834 196.814Z" fill="#666666"/>
<path id="path270" d="M228.391 183.075C228.512 183.758 228.056 184.407 227.373 184.527C226.69 184.647 226.038 184.191 225.917 183.509C225.796 182.828 226.252 182.178 226.935 182.059C227.618 181.939 228.27 182.394 228.391 183.075Z" fill="#666666"/>
<path id="path272" d="M223.977 179.494L226.332 179.572C226.987 179.605 227.487 180.382 227.445 181.313C227.404 182.247 226.838 182.978 226.182 182.947L223.935 182.79L223.977 179.494Z" fill="#E4B69D"/>
<path id="path274" d="M210.112 165.863C209.336 160.049 203.487 161.175 203.998 165.534C205.435 177.805 213.115 184.633 223.988 183.102L224.568 179.255C216.302 179.32 211.905 174.82 210.112 165.863Z" fill="#0E4A73"/>
<path id="path276" d="M201.83 138.986C201.83 138.986 201.86 138.426 201.957 138.319C202.055 138.213 203.428 136.699 205.428 135.911C207.295 135.179 209.792 134.759 212.353 135.319C214.913 135.879 216.303 136.754 216.486 137.112C216.577 137.289 217.744 140.769 217.744 140.769L201.83 138.986Z" fill="#E58126"/>
<path id="path278" d="M219.513 147.097C219.513 147.097 219.378 146.075 219.098 144.754C218.743 143.083 217.958 140.903 217.143 139.719C215.548 137.402 212.636 135.887 210.086 135.676C207.536 135.467 204.433 136.12 202.037 138.744C199.522 141.497 198.962 147.407 199 148.201L219.513 147.097Z" fill="#FBB03B"/>
<path id="path280" d="M219.097 144.748C220.442 145.811 221.008 146.075 222.816 147.105C223.072 147.251 223.04 147.688 222.28 147.891C221.437 148.116 217.069 148.999 209.736 149.336C202.841 149.651 198.349 148.834 198.129 148.634C198.129 148.634 198.76 147.446 199.11 146.698C206.992 147.578 213.39 147.011 217.14 146.293C218.71 145.992 219.097 144.748 219.097 144.748Z" fill="#E58126"/>
<path id="path282" d="M211.426 144.685L214.897 144.526C215.127 144.515 215.323 144.693 215.333 144.922L215.44 147.19L211.134 147.387L211.028 145.12C211.017 144.891 211.195 144.695 211.426 144.685Z" fill="#E58126"/>
<path id="path284" d="M203.345 145.058L206.816 144.9C207.047 144.89 207.242 145.067 207.253 145.296L207.36 147.564L203.054 147.762L202.947 145.494C202.936 145.265 203.114 145.069 203.345 145.058Z" fill="#E58126"/>
<path id="path286" d="M216.703 140.857C216.911 140.699 213.706 136.478 208.937 136.697C204.084 136.919 202.256 139.747 202.269 140.034C202.283 140.32 204.72 138.758 208.839 138.742C213.263 138.724 216.255 141.198 216.703 140.857Z" fill="#E58126"/>
<path id="path288" d="M220.943 144.786L222.25 144.726C222.353 144.721 222.431 144.635 222.427 144.533L222.154 138.741C222.149 138.639 222.062 138.56 221.96 138.564L220.654 138.625C220.551 138.629 220.472 138.716 220.476 138.818L220.749 144.61C220.754 144.712 220.841 144.791 220.943 144.786Z" fill="#28292E"/>
<path id="path290" d="M219.598 139.003L220.482 138.963L220.741 144.466L219.858 144.508C219.113 144.541 218.451 143.337 218.38 141.817C218.308 140.298 218.854 139.037 219.598 139.003Z" fill="#28292E"/>
<path id="path292" d="M199.477 143.561L219.704 142.632C219.843 142.626 219.95 142.508 219.944 142.369L219.886 141.133C219.879 140.993 219.762 140.887 219.622 140.893L199.913 141.798L199.477 143.561Z" fill="#535B65"/>
<path id="path294" d="M265.193 208.255L262.948 198.883L265.011 198.521L265.193 208.255Z" fill="#34373D"/>
<path id="path296" d="M265.979 208.061L268.605 201.739L270.274 202.508L265.979 208.061Z" fill="#34373D"/>
<path id="path298" d="M260.799 210.092L254.999 206.393L253.557 207.601L260.799 210.092Z" fill="#34373D"/>
<path id="path300" d="M259.107 210.764L254.189 210.599L253.64 211.801L259.107 210.764Z" fill="#34373D"/>
</g>
<g id="crane">
<path id="path302" d="M1189.01 219.624L1144.58 215.757L1143.94 223.026L1188.37 226.893L1189.01 219.624Z" fill="#28292E"/>
<path id="path304" d="M1104.8 75.0065L1109.01 69.2524L1147.71 97.4118L1143.51 103.163L1104.8 75.0065Z" fill="#666666"/>
<path id="path306" d="M1082.06 56.6688L1084.55 53.2685L1108.14 70.4297L1105.65 73.8274L1082.06 56.6688Z" fill="#B9BCBA"/>
<path id="path308" d="M1153.71 193.477C1153.71 193.477 1156.88 157.373 1157.48 150.606C1158.49 139.162 1152.92 125.522 1142.33 116.806C1131.73 108.089 1092.65 88.0806 1086.43 84.0089C1079.71 79.6076 1078.08 77.1517 1077.27 73.6702C1076.5 70.3893 1079.44 66.9062 1082.25 68.1437C1085.06 69.3809 1146.8 96.2186 1156.73 101.818C1166.81 107.507 1178.39 127.655 1176.76 146.109C1175.43 161.261 1172.45 195.107 1172.45 195.107L1153.71 193.477Z" fill="#E58126"/>
<path id="path310" d="M1030.15 167.55C1030.15 167.55 1077.35 82.4537 1079.55 78.4218C1081.76 74.393 1085.26 55.1049 1085.56 51.7203C1085.85 48.3329 1080.11 48.6697 1077.78 49.7541C1075.45 50.8411 1061.04 65.6608 1059.48 68.5562C1057.93 71.4517 1024.94 160.213 1024.72 162.768C1024.49 165.325 1029.08 167.457 1030.15 167.55Z" fill="#FBB03B"/>
<path id="path312" d="M1258.85 200.832C1258.14 195.359 1253.7 191.122 1248.19 190.642L1177.31 184.476L1174.33 218.37L1253.27 225.239C1255.43 225.427 1257.56 224.627 1259.06 223.064C1260.56 221.504 1261.27 219.348 1260.99 217.205L1258.85 200.832Z" fill="#5D8BC8"/>
<path id="path314" d="M1112.74 251.404C1103.9 250.635 1097.33 242.827 1098.11 234.004C1098.88 225.179 1106.71 218.626 1115.56 219.396C1115.84 219.398 1152.2 220.009 1164.23 221.056C1176.26 222.103 1212.18 227.781 1212.54 227.838L1212.55 227.839C1221.31 228.601 1227.87 236.406 1227.09 245.228C1226.32 254.051 1218.49 260.606 1209.65 259.837L1112.74 251.404Z" fill="#535B65"/>
<path id="path316" d="M1209.85 257.565C1217.43 258.225 1224.15 252.601 1224.81 245.03C1225.48 237.46 1219.89 230.767 1212.34 230.111L1212.17 230.09C1211.83 230.035 1175.98 224.367 1164.03 223.328C1152.02 222.283 1115.87 221.681 1115.54 221.676L1115.45 221.676L1115.36 221.668C1107.77 221.008 1101.05 226.632 1100.39 234.202C1099.72 241.773 1105.35 248.472 1112.94 249.132L1209.85 257.565Z" fill="#28292E"/>
<path id="path318" d="M1127.91 236.586C1128.57 229.006 1122.95 222.326 1115.35 221.665C1107.75 221.004 1101.05 226.612 1100.38 234.192C1099.72 241.772 1105.34 248.449 1112.94 249.111C1120.54 249.772 1127.24 244.166 1127.91 236.586Z" fill="#B9BCBA"/>
<path id="path320" d="M1113.45 243.273C1109.09 242.893 1105.86 239.047 1106.24 234.702C1106.62 230.354 1110.48 227.127 1114.84 227.506C1119.2 227.885 1122.43 231.729 1122.05 236.077C1121.67 240.422 1117.81 243.652 1113.45 243.273Z" fill="#28292E"/>
<path id="path322" d="M1189.24 230.997C1189.44 228.788 1187.8 226.841 1185.58 226.649C1183.37 226.456 1181.42 228.09 1181.22 230.3C1181.03 232.506 1182.67 234.453 1184.88 234.645C1187.1 234.838 1189.05 233.204 1189.24 230.997Z" fill="#B9BCBA"/>
<path id="path324" d="M1187.35 251.563C1187.54 249.354 1185.9 247.408 1183.69 247.215C1181.48 247.022 1179.52 248.656 1179.33 250.866C1179.13 253.073 1180.77 255.019 1182.99 255.212C1185.2 255.404 1187.15 253.77 1187.35 251.563Z" fill="#B9BCBA"/>
<path id="path326" d="M1144.08 247.79C1144.27 245.58 1142.64 243.634 1140.42 243.441C1138.21 243.249 1136.25 244.883 1136.06 247.092C1135.87 249.299 1137.5 251.245 1139.72 251.438C1141.93 251.631 1143.89 249.997 1144.08 247.79Z" fill="#B9BCBA"/>
<path id="path328" d="M1137.87 226.518C1138.06 224.309 1140.01 222.675 1142.23 222.867C1144.44 223.06 1146.08 225.006 1145.89 227.216C1145.69 229.423 1143.74 231.057 1141.52 230.864C1139.31 230.671 1137.67 228.725 1137.87 226.518Z" fill="#B9BCBA"/>
<path id="path330" d="M1197.3 242.644C1197.96 235.064 1204.66 229.456 1212.26 230.117C1219.86 230.778 1225.48 237.458 1224.81 245.038C1224.15 252.616 1217.45 258.224 1209.85 257.563C1202.25 256.902 1196.63 250.222 1197.3 242.644Z" fill="#B9BCBA"/>
<path id="path332" d="M1210.36 251.725C1206 251.346 1202.77 247.499 1203.15 243.154C1203.54 238.806 1207.39 235.579 1211.75 235.958C1216.11 236.337 1219.34 240.181 1218.96 244.529C1218.58 248.874 1214.72 252.104 1210.36 251.725Z" fill="#28292E"/>
<path id="path334" d="M1212.24 249.706L1111.96 240.975L1112.97 229.522L1213.24 238.253L1212.24 249.706Z" fill="#5D8BC8"/>
<path id="path336" d="M1174.31 218.351L1132.88 214.747C1128.94 214.404 1126.03 210.946 1126.38 207.02L1127.13 198.514C1127.86 190.141 1128.49 167.767 1139.8 156.378C1140.75 155.414 1142.09 154.922 1143.45 155.04L1173.74 157.675C1175.63 157.839 1177.07 159.404 1177.09 161.289L1177.3 184.469L1174.31 218.351Z" fill="#0E4A73"/>
<path id="path338" d="M1133.6 210.75C1131.62 210.579 1130.16 208.836 1130.33 206.864L1131.06 198.542C1131.13 197.775 1131.2 196.89 1131.27 195.909C1131.93 187.053 1133.32 168.636 1142.48 159.406C1142.71 159.18 1143.03 159.063 1143.35 159.09L1172.99 161.668C1173.09 161.677 1173.16 161.758 1173.16 161.855L1173.32 179.356C1173.34 182.355 1171.44 185.036 1168.6 186.016L1163.42 187.803C1160.5 188.813 1158.15 191.023 1156.97 193.877L1151.38 207.388C1150.21 210.207 1147.35 211.946 1144.3 211.682L1133.6 210.75Z" fill="white"/>
<path id="path340" d="M1209.27 191.37L1193.71 190.015C1193.23 189.974 1192.75 191.018 1192.64 192.342L1193.49 192.417L1194.35 192.491L1208.2 193.697L1209.06 193.772L1209.92 193.846C1210.03 192.522 1209.74 191.412 1209.27 191.37Z" fill="#0E4A73"/>
<path id="path342" d="M1208.83 196.335L1193.27 194.98C1192.8 194.938 1192.32 195.98 1192.2 197.306L1193.06 197.381L1193.91 197.456L1207.77 198.661L1208.62 198.736L1209.48 198.811C1209.6 197.484 1209.31 196.376 1208.83 196.335Z" fill="#0E4A73"/>
<path id="path344" d="M1208.4 201.296L1192.83 199.941C1192.36 199.9 1191.88 200.941 1191.77 202.268L1192.62 202.343L1193.48 202.417L1207.33 203.623L1208.19 203.698L1209.05 203.772C1209.16 202.445 1208.87 201.338 1208.4 201.296Z" fill="#0E4A73"/>
<path id="path346" d="M1229.05 193.095L1213.48 191.74C1213.01 191.699 1212.53 192.743 1212.41 194.067L1213.27 194.141L1214.13 194.216L1227.98 195.422L1228.84 195.497L1229.69 195.571C1229.81 194.247 1229.52 193.136 1229.05 193.095Z" fill="#0E4A73"/>
<path id="path348" d="M1228.61 198.06L1213.04 196.704C1212.57 196.663 1212.09 197.704 1211.98 199.031L1212.83 199.106L1213.69 199.181L1227.54 200.386L1228.4 200.461L1229.26 200.536C1229.38 199.209 1229.09 198.101 1228.61 198.06Z" fill="#0E4A73"/>
<path id="path350" d="M1228.18 203.021L1212.61 201.666C1212.14 201.625 1211.66 202.666 1211.54 203.993L1212.4 204.067L1213.26 204.142L1227.11 205.348L1227.97 205.423L1228.82 205.497C1228.94 204.17 1228.65 203.062 1228.18 203.021Z" fill="#0E4A73"/>
<path id="path352" d="M1248.83 194.82L1233.26 193.465C1232.78 193.424 1232.31 194.468 1232.19 195.792L1233.05 195.866L1233.91 195.941L1247.76 197.147L1248.61 197.222L1249.47 197.296C1249.59 195.972 1249.3 194.861 1248.83 194.82Z" fill="#0E4A73"/>
<path id="path354" d="M1248.39 199.784L1232.82 198.429C1232.35 198.388 1231.87 199.429 1231.75 200.756L1232.61 200.831L1233.47 200.905L1247.32 202.111L1248.18 202.186L1249.04 202.261C1249.15 200.934 1248.86 199.826 1248.39 199.784Z" fill="#0E4A73"/>
<path id="path356" d="M1247.95 204.746L1232.39 203.391C1231.91 203.35 1231.44 204.391 1231.32 205.718L1232.18 205.792L1233.03 205.867L1246.89 207.073L1247.74 207.148L1248.6 207.222C1248.72 205.895 1248.43 204.787 1247.95 204.746Z" fill="#0E4A73"/>
<path id="path358" d="M1189.94 176.773L1238.99 181.044C1240.47 181.172 1241.56 182.47 1241.43 183.944L1240.9 190.022L1186.49 185.287L1187.03 179.209C1187.16 177.734 1188.46 176.645 1189.94 176.773Z" fill="#0E4A73"/>
<path id="path360" d="M1194.26 182.742L1192.27 182.568L1192.75 177.02L1194.75 177.193L1194.26 182.742Z" fill="#28292E"/>
<path id="path362" d="M1200.17 183.257L1198.17 183.083L1198.66 177.535L1200.66 177.708L1200.17 183.257Z" fill="#28292E"/>
<path id="path364" d="M1206.08 183.772L1204.08 183.598L1204.57 178.05L1206.57 178.224L1206.08 183.772Z" fill="#28292E"/>
<path id="path366" d="M1211.98 184.287L1209.99 184.114L1210.48 178.565L1212.47 178.739L1211.98 184.287Z" fill="#28292E"/>
<path id="path368" d="M1217.89 184.803L1215.9 184.629L1216.38 179.081L1218.38 179.254L1217.89 184.803Z" fill="#28292E"/>
<path id="path370" d="M1223.8 185.318L1221.8 185.144L1222.29 179.596L1224.29 179.77L1223.8 185.318Z" fill="#28292E"/>
<path id="path372" d="M1229.71 185.833L1227.71 185.659L1228.2 180.111L1230.2 180.285L1229.71 185.833Z" fill="#28292E"/>
<path id="path374" d="M1235.61 186.348L1233.62 186.174L1234.11 180.626L1236.1 180.8L1235.61 186.348Z" fill="#28292E"/>
<path id="path376" d="M1037.01 166.228L1031.47 161.627C1029.45 159.95 1026.37 160.824 1025.53 163.311L1022.99 174.87L1029.55 200.806L1037.01 166.228Z" fill="#E58126"/>
<path id="path378" d="M1061.14 181.927C1061.14 181.927 1068.06 182.789 1069.23 182.553C1071.33 182.128 1076.56 172.707 1078.28 171.912C1080 171.114 1080.57 171.129 1080.57 171.129L1072.61 187.084L1066.99 185.796L1061.14 181.927Z" fill="#28292E"/>
<path id="path380" d="M1067.26 195.135L1031.13 171.27L1036.48 163.212C1036.48 163.212 1048.35 174.595 1052.91 177.607C1057.47 180.618 1072.61 187.079 1072.61 187.079L1067.26 195.135Z" fill="#535B65"/>
<path id="path382" d="M1049.2 183.196L1032.25 172.006C1032.25 172.006 1027.29 188.832 1026.28 192.449C1025.2 196.249 1028.1 199.849 1029.55 200.812C1031.01 201.775 1035.07 204.457 1035.07 204.457C1035.07 204.457 1039.13 207.137 1040.58 208.1C1042.05 209.063 1046.5 210.315 1049.59 207.85C1052.53 205.502 1066.14 194.389 1066.14 194.389L1049.2 183.196Z" fill="#28292E"/>
</g>
<g id="truckcoal">
<path id="path16" d="M586.206 130.949L738.677 177.367L753.776 128.186L601.306 81.7684L586.206 130.949Z" fill="#535B65"/>
<path id="path18" d="M662.347 166.143L694.027 175.785C696.316 176.482 698.74 175.192 699.441 172.908L707.529 146.574C708.231 144.288 706.944 141.872 704.656 141.176L672.976 131.534C670.685 130.836 668.262 132.123 667.559 134.41L659.472 160.744C658.771 163.027 660.056 165.446 662.347 166.143Z" fill="#B9BCBA"/>
<path id="path20" d="M588.795 129.872C582.814 149.345 593.783 169.947 613.294 175.885C632.805 181.823 653.469 170.849 659.449 151.376C665.43 131.902 654.462 111.304 634.951 105.366C615.441 99.4275 594.775 110.398 588.795 129.872Z" fill="#34373D"/>
<path id="path22" d="M606.681 135.315C603.728 144.931 609.143 155.101 618.777 158.033C628.41 160.965 638.613 155.548 641.565 145.933C644.518 136.318 639.103 126.147 629.47 123.215C619.836 120.283 609.634 125.7 606.681 135.315Z" fill="#FBB03B"/>
<path id="path24" d="M703.894 164.951C697.913 184.425 708.882 205.026 728.393 210.964C747.904 216.903 768.568 205.929 774.548 186.455C780.529 166.981 769.562 146.383 750.051 140.445C730.54 134.507 709.874 145.477 703.894 164.951Z" fill="#34373D"/>
<path id="path26" d="M721.78 170.395C718.827 180.01 724.242 190.18 733.876 193.112C743.51 196.044 753.712 190.627 756.665 181.012C759.618 171.397 754.203 161.227 744.569 158.295C734.935 155.362 724.733 160.78 721.78 170.395Z" fill="#FBB03B"/>
<path id="path28" d="M670.792 129.042L672.788 129.65L665.8 101.409L601.312 81.7756L593.98 105.657C593.98 105.657 593.571 105.533 596.012 106.276L616.29 92.3117L658.136 105.052L670.792 129.042Z" fill="#FBB03B"/>
<path id="path30" d="M676.28 129.026L659.607 57.5624L615.141 44.0249L616.982 38.0294L675.131 55.733L679.6 64.1285L825.014 108.4L831.666 141.442L676.28 129.026Z" fill="#FBB03B"/>
<path id="path32" d="M827.544 137.788L822.149 111.003L664.283 62.9414L678.976 125.916L827.544 137.788Z" fill="#E58126"/>
<path id="path34" d="M596.371 80.2722L601.271 81.7646L586.197 130.887L581.297 129.395L596.371 80.2722Z" fill="#E58126"/>
<path id="path36" d="M652.825 97.4865L658.739 78.2297L657.004 67.1333L625.468 57.5351L624.639 88.9078L652.825 97.4865Z" fill="#E58126"/>
<path id="path38" d="M630.149 80.831L646.269 85.7373L651.679 68.1237L639.676 64.4708L630.149 80.831Z" fill="white"/>
<path id="path40" d="M636.637 63.5432L627.083 79.8908L627.551 60.7775L636.637 63.5432Z" fill="white"/>
<path id="path42" d="M688.566 174.115L691.386 174.974L701.999 140.385L699.179 139.526L688.566 174.115Z" fill="#535B65"/>
<path id="path44" d="M667.821 167.792L665.001 166.933L675.614 132.344L678.434 133.203L667.821 167.792Z" fill="#535B65"/>
<path id="path46" d="M684.568 143.676C684.259 144.681 684.827 145.743 685.835 146.05C686.842 146.356 687.907 145.791 688.215 144.786C688.524 143.78 687.96 142.716 686.952 142.41C685.945 142.103 684.877 142.67 684.568 143.676Z" fill="#535B65"/>
<path id="path48" d="M698.802 73.4574L711.646 128.488L694.938 127.156L681.153 68.0856L698.802 73.4574Z" fill="#FBB03B"/>
<path id="path50" d="M735.661 84.692L746.541 131.302L729.833 129.967L718.01 79.32L735.661 84.692Z" fill="#FBB03B"/>
<path id="path52" d="M772.522 95.9276L781.435 134.11L764.725 132.777L754.871 90.5555L772.522 95.9276Z" fill="#FBB03B"/>
<path id="path54" d="M809.383 107.163L816.328 136.92L799.619 135.584L791.732 101.791L809.383 107.163Z" fill="#FBB03B"/>
<path id="path56" d="M679.852 64.27L686.293 63.0961L690.931 59.0066L699.887 61.7337L709.664 58.5229L719.355 56.6616L724.324 67.9951L748.099 65.4144L757.495 61.2035L772.261 69.2344L775.792 78.66L789.9 84.4321L794.292 87.7337L800.014 97.7255L807.474 103.133L679.852 64.27Z" fill="#1B2326"/>
</g>
</g>
<defs>
<filter id="filter0_d_15_308" x="-4" y="159.213" width="1448" height="167.787" filterUnits="userSpaceOnUse" color-interpolation-filters="sRGB">
<feFlood flood-opacity="0" result="BackgroundImageFix"/>
<feColorMatrix in="SourceAlpha" type="matrix" values="0 0 0 0 0 0 0 0 0 0 0 0 0 0 0 0 0 0 127 0" result="hardAlpha"/>
<feOffset dy="4"/>
<feGaussianBlur stdDeviation="2"/>
<feComposite in2="hardAlpha" operator="out"/>
<feColorMatrix type="matrix" values="0 0 0 0 0 0 0 0 0 0 0 0 0 0 0 0 0 0 1 0"/>
<feBlend mode="normal" in2="BackgroundImageFix" result="effect1_dropShadow_15_308"/>
<feBlend mode="normal" in="SourceGraphic" in2="effect1_dropShadow_15_308" result="shape"/>
</filter>
<clipPath id="clip0_15_308">
<rect width="1440" height="319" fill="white"/>
</clipPath>
</defs>
</svg>
